{"glyphs":{"0":{"ha":971,"x_min":65,"x_max":906,"o":"m 486 -22 q 261 40 356 -22 q 116 217 167 101 q 65 492 65 332 q 117 767 65 651 q 262 946 168 883 q 486 1008 356 1008 q 709 946 615 1008 q 854 767 803 883 q 906 492 906 651 q 855 218 906 333 q 710 40 804 103 q 486 -22 615 -22 m 486 156 q 635 240 583 156 q 688 492 688 325 q 665 679 688 604 q 597 792 642 754 q 486 831 551 831 q 374 792 419 831 q 306 679 329 754 q 283 492 283 604 q 335 240 283 325 q 486 156 388 156 z "},"1":{"ha":624,"x_min":53,"x_max":478,"o":"m 267 0 l 267 649 l 53 649 l 53 803 l 138 803 q 237 820 199 803 q 292 877 275 838 q 310 986 310 917 l 478 986 l 478 0 l 267 0 z "},"2":{"ha":907,"x_min":81,"x_max":828,"o":"m 81 0 q 115 219 81 126 q 226 386 149 313 q 431 526 303 460 q 538 588 499 561 q 594 643 578 615 q 611 708 611 671 q 595 772 611 744 q 549 815 579 799 q 472 831 518 831 q 353 787 397 831 q 299 660 310 743 l 82 672 q 197 919 96 829 q 469 1008 297 1008 q 663 971 583 1008 q 785 867 743 933 q 828 711 828 800 q 802 581 828 633 q 719 483 776 528 q 569 389 663 439 q 393 272 450 325 q 332 178 336 218 l 828 178 l 828 0 l 81 0 z "},"3":{"ha":903,"x_min":61,"x_max":842,"o":"m 450 -22 q 167 62 267 -22 q 61 289 68 146 l 276 297 q 328 190 283 224 q 450 156 374 156 q 539 170 500 156 q 601 215 578 185 q 624 292 624 246 q 575 398 624 363 q 443 433 526 433 l 356 433 l 356 590 l 443 590 q 549 617 507 590 q 592 710 592 644 q 557 798 592 765 q 447 831 522 831 q 335 800 372 831 q 289 721 297 769 l 76 732 q 187 933 90 857 q 447 1008 283 1008 q 644 975 564 1008 q 767 879 725 942 q 808 732 808 817 q 751 588 808 644 q 585 510 693 531 l 585 533 q 775 449 708 515 q 842 276 842 382 q 793 116 842 183 q 657 13 744 49 q 450 -22 569 -22 z "},"4":{"ha":911,"x_min":33,"x_max":850,"o":"m 524 0 l 524 188 l 33 188 l 33 356 l 483 986 l 735 986 l 735 365 l 850 365 l 850 188 l 735 188 l 735 0 l 524 0 m 257 365 l 524 365 l 524 726 l 257 365 z "},"5":{"ha":932,"x_min":78,"x_max":854,"o":"m 464 -22 q 260 14 343 -22 q 131 117 176 50 q 78 272 85 183 l 292 282 q 348 187 304 218 q 464 156 392 156 q 591 201 544 156 q 638 328 638 247 q 616 419 638 381 q 556 481 594 458 q 463 503 517 503 q 360 476 403 503 q 300 410 317 450 l 89 410 l 157 986 l 786 986 l 786 808 l 336 808 l 300 521 l 276 542 q 335 603 300 578 q 418 644 371 629 q 522 658 465 658 q 699 615 625 658 q 814 497 774 572 q 854 328 854 422 q 806 142 854 221 q 669 20 757 63 q 464 -22 582 -22 z "},"6":{"ha":918,"x_min":78,"x_max":839,"o":"m 461 -22 q 249 32 335 -22 q 121 188 164 86 q 78 435 78 290 q 103 663 78 558 q 178 845 128 768 q 308 965 229 922 q 494 1008 388 1008 q 723 939 639 1008 q 835 750 807 869 l 639 736 q 590 808 622 782 q 494 835 558 835 q 342 750 397 835 q 279 489 286 665 l 250 494 q 299 569 265 535 q 384 626 332 604 q 506 647 436 647 q 681 607 606 647 q 798 494 757 567 q 839 325 839 422 q 792 137 839 214 q 660 19 744 60 q 461 -22 575 -22 m 460 146 q 583 194 536 146 q 629 322 629 242 q 609 414 629 375 q 552 475 589 453 q 467 497 515 497 q 375 475 415 497 q 313 414 335 453 q 290 322 290 375 q 311 231 290 271 q 370 168 332 190 q 460 146 408 146 z "},"7":{"ha":756,"x_min":28,"x_max":756,"o":"m 228 0 q 267 296 228 153 q 376 568 306 439 q 542 808 447 697 l 28 808 l 28 986 l 756 986 l 756 821 q 583 581 653 704 q 477 317 513 458 q 442 0 442 175 l 228 0 z "},"8":{"ha":928,"x_min":50,"x_max":878,"o":"m 464 -22 q 244 10 338 -22 q 101 108 151 43 q 50 268 50 174 q 119 451 50 379 q 304 542 189 522 l 307 514 q 154 590 211 532 q 97 738 97 649 q 140 879 97 818 q 265 974 183 940 q 464 1008 346 1008 q 663 974 581 1008 q 787 879 744 940 q 829 738 829 818 q 773 591 829 649 q 619 514 717 533 l 622 542 q 808 450 739 521 q 878 268 878 379 q 827 108 878 174 q 683 10 776 43 q 464 -22 590 -22 m 464 156 q 606 194 553 156 q 660 300 660 232 q 609 409 660 368 q 464 450 558 450 q 318 409 369 450 q 267 300 267 368 q 321 194 267 232 q 464 156 375 156 m 464 599 q 574 627 535 599 q 614 715 614 656 q 576 800 614 768 q 464 832 538 832 q 351 800 390 832 q 313 715 313 768 q 353 627 313 656 q 464 599 393 599 z "},"9":{"ha":924,"x_min":78,"x_max":846,"o":"m 436 -22 q 215 41 300 -22 q 94 222 131 104 l 297 235 q 347 173 313 194 q 436 151 382 151 q 590 228 540 151 q 639 482 639 304 l 667 469 q 565 358 629 396 q 406 321 500 321 q 235 362 308 321 q 119 478 161 403 q 78 651 78 553 q 124 841 78 761 q 253 965 169 921 q 447 1008 336 1008 q 670 952 582 1008 q 802 789 758 896 q 846 528 846 682 q 821 297 846 399 q 747 124 796 194 q 620 15 697 53 q 436 -22 543 -22 m 451 472 q 542 494 504 472 q 601 557 581 517 q 622 654 622 597 q 602 752 622 710 q 544 817 582 794 q 454 840 507 840 q 367 817 404 840 q 309 753 329 794 q 289 656 289 711 q 310 558 289 599 q 367 495 331 518 q 451 472 403 472 z "},"A":{"ha":1014,"x_min":26,"x_max":988,"o":"m 26 0 l 382 986 l 632 986 l 988 0 l 768 0 l 696 210 l 317 210 l 244 0 l 26 0 m 376 383 l 638 383 l 507 764 l 376 383 z "},"Á":{"ha":1014,"x_min":26,"x_max":988,"o":"m 26 0 l 382 986 l 632 986 l 988 0 l 768 0 l 696 210 l 317 210 l 244 0 l 26 0 m 376 383 l 638 383 l 507 764 l 376 383 m 413 1063 l 494 1268 l 696 1268 l 571 1063 l 413 1063 z "},"Ă":{"ha":1014,"x_min":26,"x_max":988,"o":"m 26 0 l 382 986 l 632 986 l 988 0 l 768 0 l 696 210 l 317 210 l 244 0 l 26 0 m 376 383 l 638 383 l 507 764 l 376 383 m 508 1064 q 353 1117 411 1064 q 290 1268 294 1171 l 411 1268 q 441 1199 415 1221 q 508 1178 467 1178 q 575 1199 550 1178 q 604 1268 600 1221 l 725 1268 q 663 1117 721 1171 q 508 1064 604 1064 z "},"Ǎ":{"ha":1014,"x_min":26,"x_max":988,"o":"m 26 0 l 382 986 l 632 986 l 988 0 l 768 0 l 696 210 l 317 210 l 244 0 l 26 0 m 376 383 l 638 383 l 507 764 l 376 383 m 274 1275 l 419 1275 l 528 1124 l 486 1124 l 594 1275 l 740 1275 l 607 1063 l 407 1063 l 274 1275 z "},"Â":{"ha":1014,"x_min":26,"x_max":988,"o":"m 26 0 l 382 986 l 632 986 l 988 0 l 768 0 l 696 210 l 317 210 l 244 0 l 26 0 m 376 383 l 638 383 l 507 764 l 376 383 m 274 1063 l 407 1275 l 607 1275 l 740 1063 l 594 1063 l 486 1215 l 528 1215 l 419 1063 l 274 1063 z "},"Ä":{"ha":1014,"x_min":26,"x_max":988,"o":"m 26 0 l 382 986 l 632 986 l 988 0 l 768 0 l 696 210 l 317 210 l 244 0 l 26 0 m 376 383 l 638 383 l 507 764 l 376 383 m 258 1074 l 258 1242 l 457 1242 l 457 1074 l 258 1074 m 557 1074 l 557 1242 l 756 1242 l 756 1074 l 557 1074 z "},"À":{"ha":1014,"x_min":26,"x_max":988,"o":"m 26 0 l 382 986 l 632 986 l 988 0 l 768 0 l 696 210 l 317 210 l 244 0 l 26 0 m 376 383 l 638 383 l 507 764 l 376 383 m 442 1072 l 317 1276 l 518 1276 l 600 1072 l 442 1072 z "},"Ā":{"ha":1014,"x_min":26,"x_max":988,"o":"m 26 0 l 382 986 l 632 986 l 988 0 l 768 0 l 696 210 l 317 210 l 244 0 l 26 0 m 376 383 l 638 383 l 507 764 l 376 383 m 300 1085 l 300 1238 l 715 1238 l 715 1085 l 300 1085 z "},"Ą":{"ha":1014,"x_min":26,"x_max":1039,"o":"m 26 0 l 382 986 l 632 986 l 988 0 l 768 0 l 696 210 l 317 210 l 244 0 l 26 0 m 376 383 l 638 383 l 507 764 l 376 383 m 890 -301 q 774 -271 815 -301 q 733 -183 733 -240 q 755 -101 733 -140 q 803 -28 776 -61 l 849 33 l 988 0 l 946 -56 q 913 -104 925 -83 q 901 -143 901 -125 q 912 -169 901 -160 q 938 -178 922 -178 q 972 -172 956 -178 q 1000 -160 989 -167 l 1039 -265 q 977 -291 1019 -281 q 890 -301 935 -301 z "},"Å":{"ha":1022,"x_min":18,"x_max":979,"o":"m 18 0 l 374 986 l 624 986 l 979 0 l 760 0 l 688 210 l 308 210 l 236 0 l 18 0 m 368 383 l 629 383 l 499 764 l 368 383 m 504 1049 q 402 1089 443 1049 q 361 1189 361 1129 q 402 1290 361 1250 q 504 1331 443 1331 q 605 1290 564 1331 q 646 1190 646 1250 q 605 1089 646 1129 q 504 1049 564 1049 m 504 1138 q 541 1152 526 1138 q 556 1189 556 1167 q 541 1226 556 1211 q 504 1242 526 1242 q 467 1226 482 1242 q 451 1189 451 1211 q 467 1152 451 1167 q 504 1138 482 1138 z "},"Ã":{"ha":1022,"x_min":18,"x_max":979,"o":"m 18 0 l 374 986 l 624 986 l 979 0 l 760 0 l 688 210 l 308 210 l 236 0 l 18 0 m 368 383 l 629 383 l 499 764 l 368 383 m 576 1083 q 521 1093 544 1083 q 471 1125 497 1103 q 444 1144 456 1138 q 417 1150 432 1150 q 381 1135 396 1150 q 364 1076 367 1119 l 260 1076 q 301 1220 261 1167 q 413 1274 342 1274 q 472 1264 446 1274 q 526 1232 499 1254 q 555 1213 543 1219 q 579 1207 567 1207 q 615 1223 601 1207 q 632 1283 629 1239 l 735 1283 q 692 1138 733 1192 q 576 1083 651 1083 z "},"Æ":{"ha":1447,"x_min":26,"x_max":1385,"o":"m 26 0 l 554 986 l 1374 986 l 1374 808 l 939 808 l 939 582 l 1357 582 l 1357 407 l 939 407 l 939 178 l 1385 178 l 1385 0 l 728 0 l 728 211 l 335 211 l 417 382 l 728 382 l 728 811 l 668 811 l 249 0 l 26 0 z "},"B":{"ha":976,"x_min":103,"x_max":906,"o":"m 103 0 l 103 986 l 486 986 q 767 922 669 986 q 864 718 864 857 q 839 612 864 657 q 766 540 814 567 q 650 508 718 514 l 650 511 q 840 440 774 503 q 906 272 906 376 q 809 67 906 135 q 533 0 713 0 l 103 0 m 314 172 l 524 172 q 647 203 600 172 q 693 297 693 235 q 647 392 693 360 q 524 425 600 425 l 314 425 l 314 172 m 314 578 l 481 578 q 605 608 558 578 q 651 696 651 639 q 606 785 651 757 q 481 814 561 814 l 314 814 l 314 578 z "},"C":{"ha":1019,"x_min":58,"x_max":968,"o":"m 521 -22 q 281 39 386 -22 q 117 215 176 100 q 58 492 58 331 q 115 765 58 649 q 278 944 172 881 q 525 1008 383 1008 q 826 913 718 1008 q 964 642 933 818 l 744 633 q 672 778 728 726 q 525 831 617 831 q 390 789 446 831 q 306 671 335 747 q 276 492 276 594 q 306 312 276 388 q 392 196 336 236 q 524 156 447 156 q 678 212 624 156 q 747 368 733 268 l 968 360 q 892 154 949 239 q 742 24 835 69 q 521 -22 650 -22 z "},"Ć":{"ha":1019,"x_min":58,"x_max":968,"o":"m 521 -22 q 281 39 386 -22 q 117 215 176 100 q 58 492 58 331 q 115 765 58 649 q 278 944 172 881 q 525 1008 383 1008 q 826 913 718 1008 q 964 642 933 818 l 744 633 q 672 778 728 726 q 525 831 617 831 q 390 789 446 831 q 306 671 335 747 q 276 492 276 594 q 306 312 276 388 q 392 196 336 236 q 524 156 447 156 q 678 212 624 156 q 747 368 733 268 l 968 360 q 892 154 949 239 q 742 24 835 69 q 521 -22 650 -22 m 429 1063 l 511 1268 l 713 1268 l 588 1063 l 429 1063 z "},"Č":{"ha":1019,"x_min":58,"x_max":968,"o":"m 521 -22 q 281 39 386 -22 q 117 215 176 100 q 58 492 58 331 q 115 765 58 649 q 278 944 172 881 q 525 1008 383 1008 q 826 913 718 1008 q 964 642 933 818 l 744 633 q 672 778 728 726 q 525 831 617 831 q 390 789 446 831 q 306 671 335 747 q 276 492 276 594 q 306 312 276 388 q 392 196 336 236 q 524 156 447 156 q 678 212 624 156 q 747 368 733 268 l 968 360 q 892 154 949 239 q 742 24 835 69 q 521 -22 650 -22 m 290 1275 l 436 1275 l 544 1124 l 503 1124 l 611 1275 l 757 1275 l 624 1063 l 424 1063 l 290 1275 z "},"Ç":{"ha":1019,"x_min":58,"x_max":968,"o":"m 521 -22 q 281 39 386 -22 q 117 215 176 100 q 58 492 58 331 q 115 765 58 649 q 278 944 172 881 q 525 1008 383 1008 q 826 913 718 1008 q 964 642 933 818 l 744 633 q 672 778 728 726 q 525 831 617 831 q 390 789 446 831 q 306 671 335 747 q 276 492 276 594 q 306 312 276 388 q 392 196 336 236 q 524 156 447 156 q 678 212 624 156 q 747 368 733 268 l 968 360 q 892 154 949 239 q 742 24 835 69 q 521 -22 650 -22 m 518 -322 q 403 -290 449 -322 q 340 -207 358 -258 l 432 -168 q 463 -208 443 -194 q 514 -221 482 -221 q 563 -208 544 -221 q 581 -171 581 -194 q 563 -131 581 -146 q 490 -117 546 -117 l 433 -62 l 479 14 l 599 14 l 561 -43 q 663 -87 631 -50 q 694 -175 694 -124 q 670 -258 694 -225 q 607 -306 646 -290 q 518 -322 568 -322 z "},"Ĉ":{"ha":1019,"x_min":58,"x_max":968,"o":"m 521 -22 q 281 39 386 -22 q 117 215 176 100 q 58 492 58 331 q 115 765 58 649 q 278 944 172 881 q 525 1008 383 1008 q 826 913 718 1008 q 964 642 933 818 l 744 633 q 672 778 728 726 q 525 831 617 831 q 390 789 446 831 q 306 671 335 747 q 276 492 276 594 q 306 312 276 388 q 392 196 336 236 q 524 156 447 156 q 678 212 624 156 q 747 368 733 268 l 968 360 q 892 154 949 239 q 742 24 835 69 q 521 -22 650 -22 m 290 1063 l 424 1275 l 624 1275 l 757 1063 l 611 1063 l 503 1215 l 544 1215 l 436 1063 l 290 1063 z "},"Ċ":{"ha":1019,"x_min":58,"x_max":968,"o":"m 521 -22 q 281 39 386 -22 q 117 215 176 100 q 58 492 58 331 q 115 765 58 649 q 278 944 172 881 q 525 1008 383 1008 q 826 913 718 1008 q 964 642 933 818 l 744 633 q 672 778 728 726 q 525 831 617 831 q 390 789 446 831 q 306 671 335 747 q 276 492 276 594 q 306 312 276 388 q 392 196 336 236 q 524 156 447 156 q 678 212 624 156 q 747 368 733 268 l 968 360 q 892 154 949 239 q 742 24 835 69 q 521 -22 650 -22 m 417 1078 l 417 1244 l 632 1244 l 632 1078 l 417 1078 z "},"D":{"ha":1000,"x_min":103,"x_max":942,"o":"m 103 0 l 103 986 l 443 986 q 813 858 683 986 q 942 492 942 729 q 815 128 942 256 q 451 0 688 0 l 103 0 m 314 178 l 443 178 q 655 255 586 178 q 724 493 724 332 q 655 731 724 654 q 443 808 586 808 l 314 808 l 314 178 z "},"Ď":{"ha":1000,"x_min":103,"x_max":942,"o":"m 103 0 l 103 986 l 443 986 q 813 858 683 986 q 942 492 942 729 q 815 128 942 256 q 451 0 688 0 l 103 0 m 314 178 l 443 178 q 655 255 586 178 q 724 493 724 332 q 655 731 724 654 q 443 808 586 808 l 314 808 l 314 178 m 218 1275 l 364 1275 l 472 1124 l 431 1124 l 539 1275 l 685 1275 l 551 1063 l 351 1063 l 218 1275 z "},"Đ":{"ha":1000,"x_min":13,"x_max":942,"o":"m 103 0 l 103 986 l 443 986 q 813 858 683 986 q 942 492 942 729 q 815 128 942 256 q 451 0 688 0 l 103 0 m 314 178 l 443 178 q 655 255 586 178 q 724 493 724 332 q 655 731 724 654 q 443 808 586 808 l 314 808 l 314 178 m 13 414 l 13 574 l 571 574 l 571 414 l 13 414 z "},"Ð":{"ha":1000,"x_min":13,"x_max":942,"o":"m 103 0 l 103 986 l 443 986 q 813 858 683 986 q 942 492 942 729 q 815 128 942 256 q 451 0 688 0 l 103 0 m 314 178 l 443 178 q 655 255 586 178 q 724 493 724 332 q 655 731 724 654 q 443 808 586 808 l 314 808 l 314 178 m 13 414 l 13 574 l 571 574 l 571 414 l 13 414 z "},"E":{"ha":864,"x_min":103,"x_max":800,"o":"m 103 0 l 103 986 l 789 986 l 789 808 l 314 808 l 314 582 l 772 582 l 772 407 l 314 407 l 314 178 l 800 178 l 800 0 l 103 0 z "},"É":{"ha":864,"x_min":103,"x_max":800,"o":"m 103 0 l 103 986 l 789 986 l 789 808 l 314 808 l 314 582 l 772 582 l 772 407 l 314 407 l 314 178 l 800 178 l 800 0 l 103 0 m 353 1063 l 435 1268 l 636 1268 l 511 1063 l 353 1063 z "},"Ě":{"ha":864,"x_min":103,"x_max":800,"o":"m 103 0 l 103 986 l 789 986 l 789 808 l 314 808 l 314 582 l 772 582 l 772 407 l 314 407 l 314 178 l 800 178 l 800 0 l 103 0 m 214 1275 l 360 1275 l 468 1124 l 426 1124 l 535 1275 l 681 1275 l 547 1063 l 347 1063 l 214 1275 z "},"Ê":{"ha":864,"x_min":103,"x_max":800,"o":"m 103 0 l 103 986 l 789 986 l 789 808 l 314 808 l 314 582 l 772 582 l 772 407 l 314 407 l 314 178 l 800 178 l 800 0 l 103 0 m 214 1063 l 347 1275 l 547 1275 l 681 1063 l 535 1063 l 426 1215 l 468 1215 l 360 1063 l 214 1063 z "},"Ë":{"ha":864,"x_min":103,"x_max":800,"o":"m 103 0 l 103 986 l 789 986 l 789 808 l 314 808 l 314 582 l 772 582 l 772 407 l 314 407 l 314 178 l 800 178 l 800 0 l 103 0 m 199 1074 l 199 1242 l 397 1242 l 397 1074 l 199 1074 m 497 1074 l 497 1242 l 696 1242 l 696 1074 l 497 1074 z "},"Ė":{"ha":864,"x_min":103,"x_max":800,"o":"m 103 0 l 103 986 l 789 986 l 789 808 l 314 808 l 314 582 l 772 582 l 772 407 l 314 407 l 314 178 l 800 178 l 800 0 l 103 0 m 339 1078 l 339 1244 l 554 1244 l 554 1078 l 339 1078 z "},"È":{"ha":864,"x_min":103,"x_max":800,"o":"m 103 0 l 103 986 l 789 986 l 789 808 l 314 808 l 314 582 l 772 582 l 772 407 l 314 407 l 314 178 l 800 178 l 800 0 l 103 0 m 381 1072 l 256 1276 l 457 1276 l 539 1072 l 381 1072 z "},"Ē":{"ha":864,"x_min":103,"x_max":800,"o":"m 103 0 l 103 986 l 789 986 l 789 808 l 314 808 l 314 582 l 772 582 l 772 407 l 314 407 l 314 178 l 800 178 l 800 0 l 103 0 m 239 1085 l 239 1238 l 654 1238 l 654 1085 l 239 1085 z "},"Ę":{"ha":864,"x_min":103,"x_max":851,"o":"m 103 0 l 103 986 l 789 986 l 789 808 l 314 808 l 314 582 l 772 582 l 772 407 l 314 407 l 314 178 l 800 178 l 800 0 l 103 0 m 703 -301 q 587 -271 628 -301 q 546 -183 546 -240 q 567 -101 546 -140 q 615 -28 589 -61 l 661 33 l 800 0 l 758 -56 q 726 -104 738 -83 q 714 -143 714 -125 q 724 -169 714 -160 q 750 -178 735 -178 q 785 -172 768 -178 q 813 -160 801 -167 l 851 -265 q 790 -291 832 -281 q 703 -301 747 -301 z "},"Ẽ":{"ha":864,"x_min":103,"x_max":800,"o":"m 103 0 l 103 986 l 789 986 l 789 808 l 314 808 l 314 582 l 772 582 l 772 407 l 314 407 l 314 178 l 800 178 l 800 0 l 103 0 m 525 1075 q 469 1085 493 1075 q 419 1117 446 1094 q 392 1135 404 1129 q 365 1142 381 1142 q 330 1126 344 1142 q 313 1068 315 1111 l 208 1068 q 250 1212 210 1158 q 361 1265 290 1265 q 421 1256 394 1265 q 475 1224 447 1246 q 503 1205 492 1211 q 528 1199 515 1199 q 564 1215 550 1199 q 581 1275 578 1231 l 683 1275 q 641 1129 682 1183 q 525 1075 600 1075 z "},"Ə":{"ha":1051,"x_min":58,"x_max":993,"o":"m 789 396 l 285 396 q 329 260 297 313 q 408 181 361 207 q 519 156 456 156 q 656 191 599 156 q 744 296 713 226 q 776 467 776 365 l 776 501 q 743 679 776 606 q 651 792 710 753 q 515 831 593 831 q 432 814 472 831 q 360 765 392 797 q 308 683 329 732 l 86 696 q 177 862 117 792 q 324 970 238 932 q 517 1008 410 1008 q 765 948 657 1008 q 933 772 872 888 q 993 493 993 657 q 956 269 993 365 q 853 109 918 174 q 701 11 788 44 q 517 -22 615 -22 q 344 10 426 -22 q 197 106 261 42 q 95 264 132 169 q 58 483 58 358 l 58 561 l 797 561 l 789 396 z "},"F":{"ha":839,"x_min":103,"x_max":783,"o":"m 103 0 l 103 986 l 783 986 l 783 808 l 197 808 l 314 929 l 314 478 l 197 569 l 758 569 l 758 394 l 197 394 l 314 486 l 314 0 l 103 0 z "},"G":{"ha":1025,"x_min":58,"x_max":960,"o":"m 514 -22 q 269 43 371 -22 q 113 224 168 108 q 58 492 58 340 q 114 757 58 640 q 274 941 169 874 q 526 1008 379 1008 q 742 966 654 1008 q 883 846 831 924 q 957 663 936 768 l 739 653 q 674 783 724 735 q 528 831 625 831 q 387 786 443 831 q 303 665 331 742 q 276 492 276 589 q 303 317 276 393 q 387 199 331 242 q 532 156 443 156 q 645 182 597 156 q 720 254 693 208 q 753 358 747 300 l 528 358 l 528 513 l 960 513 l 960 0 l 829 0 l 818 211 l 843 200 q 782 85 829 135 q 666 6 735 35 q 514 -22 597 -22 z "},"Ğ":{"ha":1025,"x_min":58,"x_max":960,"o":"m 514 -22 q 269 43 371 -22 q 113 224 168 108 q 58 492 58 340 q 114 757 58 640 q 274 941 169 874 q 526 1008 379 1008 q 742 966 654 1008 q 883 846 831 924 q 957 663 936 768 l 739 653 q 674 783 724 735 q 528 831 625 831 q 387 786 443 831 q 303 665 331 742 q 276 492 276 589 q 303 317 276 393 q 387 199 331 242 q 532 156 443 156 q 645 182 597 156 q 720 254 693 208 q 753 358 747 300 l 528 358 l 528 513 l 960 513 l 960 0 l 829 0 l 818 211 l 843 200 q 782 85 829 135 q 666 6 735 35 q 514 -22 597 -22 m 529 1064 q 374 1117 432 1064 q 311 1268 315 1171 l 432 1268 q 462 1199 436 1221 q 529 1178 488 1178 q 596 1199 571 1178 q 625 1268 621 1221 l 746 1268 q 683 1117 742 1171 q 529 1064 625 1064 z "},"Ǧ":{"ha":1025,"x_min":58,"x_max":960,"o":"m 514 -22 q 269 43 371 -22 q 113 224 168 108 q 58 492 58 340 q 114 757 58 640 q 274 941 169 874 q 526 1008 379 1008 q 742 966 654 1008 q 883 846 831 924 q 957 663 936 768 l 739 653 q 674 783 724 735 q 528 831 625 831 q 387 786 443 831 q 303 665 331 742 q 276 492 276 589 q 303 317 276 393 q 387 199 331 242 q 532 156 443 156 q 645 182 597 156 q 720 254 693 208 q 753 358 747 300 l 528 358 l 528 513 l 960 513 l 960 0 l 829 0 l 818 211 l 843 200 q 782 85 829 135 q 666 6 735 35 q 514 -22 597 -22 m 294 1275 l 440 1275 l 549 1124 l 507 1124 l 615 1275 l 761 1275 l 628 1063 l 428 1063 l 294 1275 z "},"Ĝ":{"ha":1025,"x_min":58,"x_max":960,"o":"m 514 -22 q 269 43 371 -22 q 113 224 168 108 q 58 492 58 340 q 114 757 58 640 q 274 941 169 874 q 526 1008 379 1008 q 742 966 654 1008 q 883 846 831 924 q 957 663 936 768 l 739 653 q 674 783 724 735 q 528 831 625 831 q 387 786 443 831 q 303 665 331 742 q 276 492 276 589 q 303 317 276 393 q 387 199 331 242 q 532 156 443 156 q 645 182 597 156 q 720 254 693 208 q 753 358 747 300 l 528 358 l 528 513 l 960 513 l 960 0 l 829 0 l 818 211 l 843 200 q 782 85 829 135 q 666 6 735 35 q 514 -22 597 -22 m 294 1063 l 428 1275 l 628 1275 l 761 1063 l 615 1063 l 507 1215 l 549 1215 l 440 1063 l 294 1063 z "},"Ģ":{"ha":1025,"x_min":58,"x_max":960,"o":"m 514 -22 q 269 43 371 -22 q 113 224 168 108 q 58 492 58 340 q 114 757 58 640 q 274 941 169 874 q 526 1008 379 1008 q 742 966 654 1008 q 883 846 831 924 q 957 663 936 768 l 739 653 q 674 783 724 735 q 528 831 625 831 q 387 786 443 831 q 303 665 331 742 q 276 492 276 589 q 303 317 276 393 q 387 199 331 242 q 532 156 443 156 q 645 182 597 156 q 720 254 693 208 q 753 358 747 300 l 528 358 l 528 513 l 960 513 l 960 0 l 829 0 l 818 211 l 843 200 q 782 85 829 135 q 666 6 735 35 q 514 -22 597 -22 m 418 -351 l 490 -229 l 442 -229 l 442 -68 l 622 -68 l 622 -214 l 540 -351 l 418 -351 z "},"Ġ":{"ha":1025,"x_min":58,"x_max":960,"o":"m 514 -22 q 269 43 371 -22 q 113 224 168 108 q 58 492 58 340 q 114 757 58 640 q 274 941 169 874 q 526 1008 379 1008 q 742 966 654 1008 q 883 846 831 924 q 957 663 936 768 l 739 653 q 674 783 724 735 q 528 831 625 831 q 387 786 443 831 q 303 665 331 742 q 276 492 276 589 q 303 317 276 393 q 387 199 331 242 q 532 156 443 156 q 645 182 597 156 q 720 254 693 208 q 753 358 747 300 l 528 358 l 528 513 l 960 513 l 960 0 l 829 0 l 818 211 l 843 200 q 782 85 829 135 q 666 6 735 35 q 514 -22 597 -22 m 421 1078 l 421 1244 l 636 1244 l 636 1078 l 421 1078 z "},"Ḡ":{"ha":1025,"x_min":58,"x_max":960,"o":"m 514 -22 q 269 43 371 -22 q 113 224 168 108 q 58 492 58 340 q 114 757 58 640 q 274 941 169 874 q 526 1008 379 1008 q 742 966 654 1008 q 883 846 831 924 q 957 663 936 768 l 739 653 q 674 783 724 735 q 528 831 625 831 q 387 786 443 831 q 303 665 331 742 q 276 492 276 589 q 303 317 276 393 q 387 199 331 242 q 532 156 443 156 q 645 182 597 156 q 720 254 693 208 q 753 358 747 300 l 528 358 l 528 513 l 960 513 l 960 0 l 829 0 l 818 211 l 843 200 q 782 85 829 135 q 666 6 735 35 q 514 -22 597 -22 m 321 1085 l 321 1238 l 736 1238 l 736 1085 l 321 1085 z "},"Ǥ":{"ha":1082,"x_min":58,"x_max":1031,"o":"m 528 235 l 528 335 l 1031 335 l 1031 235 l 528 235 m 529 -22 q 269 45 374 -22 q 111 229 164 113 q 58 492 58 346 q 114 756 58 639 q 276 940 169 872 q 535 1008 382 1008 q 821 916 714 1008 q 957 663 928 824 l 739 653 q 705 747 729 707 q 638 809 681 788 q 531 831 596 831 q 386 786 443 831 q 303 665 329 742 q 276 492 276 589 q 303 317 276 393 q 386 199 331 242 q 525 156 442 156 q 650 183 600 156 q 726 263 700 210 q 753 396 751 317 l 528 396 l 528 513 l 960 513 l 960 454 q 908 190 960 296 q 758 31 856 85 q 529 -22 661 -22 z "},"H":{"ha":1001,"x_min":103,"x_max":899,"o":"m 103 0 l 103 986 l 314 986 l 314 518 l 221 585 l 782 585 l 688 518 l 688 986 l 899 986 l 899 0 l 688 0 l 688 474 l 782 407 l 221 407 l 314 474 l 314 0 l 103 0 z "},"Ħ":{"ha":1001,"x_min":4,"x_max":999,"o":"m 103 0 l 103 986 l 314 986 l 314 518 l 221 585 l 782 585 l 688 518 l 688 986 l 899 986 l 899 0 l 688 0 l 688 474 l 782 407 l 221 407 l 314 474 l 314 0 l 103 0 m 4 722 l 4 876 l 999 876 l 999 722 l 4 722 z "},"Ĥ":{"ha":1001,"x_min":103,"x_max":899,"o":"m 103 0 l 103 986 l 314 986 l 314 518 l 221 585 l 782 585 l 688 518 l 688 986 l 899 986 l 899 0 l 688 0 l 688 474 l 782 407 l 221 407 l 314 474 l 314 0 l 103 0 m 268 1063 l 401 1275 l 601 1275 l 735 1063 l 589 1063 l 481 1215 l 522 1215 l 414 1063 l 268 1063 z "},"I":{"ha":417,"x_min":103,"x_max":314,"o":"m 103 0 l 103 986 l 314 986 l 314 0 l 103 0 z "},"Ĳ":{"ha":1268,"x_min":103,"x_max":1186,"o":"m 103 0 l 103 986 l 314 986 l 314 0 l 103 0 m 826 -22 q 631 26 711 -22 q 509 159 551 75 q 465 351 467 243 l 678 361 q 718 206 679 256 q 826 156 757 156 q 936 204 897 156 q 975 354 975 253 l 975 986 l 1186 986 l 1186 354 q 1141 154 1186 239 q 1015 24 1096 69 q 826 -22 935 -22 z "},"Í":{"ha":417,"x_min":103,"x_max":397,"o":"m 103 0 l 103 986 l 314 986 l 314 0 l 103 0 m 114 1063 l 196 1268 l 397 1268 l 272 1063 l 114 1063 z "},"Î":{"ha":417,"x_min":-25,"x_max":442,"o":"m 103 0 l 103 986 l 314 986 l 314 0 l 103 0 m -25 1063 l 108 1275 l 308 1275 l 442 1063 l 296 1063 l 188 1215 l 229 1215 l 121 1063 l -25 1063 z "},"Ï":{"ha":417,"x_min":-40,"x_max":457,"o":"m 103 0 l 103 986 l 314 986 l 314 0 l 103 0 m -40 1074 l -40 1242 l 158 1242 l 158 1074 l -40 1074 m 258 1074 l 258 1242 l 457 1242 l 457 1074 l 258 1074 z "},"İ":{"ha":417,"x_min":100,"x_max":317,"o":"m 103 0 l 103 986 l 314 986 l 314 0 l 103 0 m 101 1078 l 101 1244 l 317 1244 l 317 1078 l 101 1078 z "},"Ì":{"ha":417,"x_min":17,"x_max":314,"o":"m 103 0 l 103 986 l 314 986 l 314 0 l 103 0 m 142 1072 l 17 1276 l 218 1276 l 300 1072 l 142 1072 z "},"Ī":{"ha":417,"x_min":0,"x_max":417,"o":"m 103 0 l 103 986 l 314 986 l 314 0 l 103 0 m 1 1085 l 1 1238 l 417 1238 l 417 1085 l 1 1085 z "},"Į":{"ha":417,"x_min":60,"x_max":365,"o":"m 103 0 l 103 986 l 314 986 l 314 0 l 103 0 m 217 -301 q 101 -271 142 -301 q 60 -183 60 -240 q 81 -101 60 -140 q 129 -28 103 -61 l 175 33 l 314 0 l 272 -56 q 240 -104 251 -83 q 228 -143 228 -125 q 238 -169 228 -160 q 264 -178 249 -178 q 299 -172 282 -178 q 326 -160 315 -167 l 365 -265 q 303 -291 346 -281 q 217 -301 261 -301 z "},"Ĩ":{"ha":417,"x_min":-31,"x_max":446,"o":"m 103 0 l 103 986 l 314 986 l 314 0 l 103 0 m 286 1075 q 231 1085 254 1075 q 181 1117 207 1094 q 153 1135 165 1129 q 126 1142 142 1142 q 91 1126 106 1142 q 74 1068 76 1111 l -31 1068 q 11 1212 -29 1158 q 122 1265 51 1265 q 182 1256 156 1265 q 236 1224 208 1246 q 265 1205 253 1211 q 289 1199 276 1199 q 325 1215 311 1199 q 342 1275 339 1231 l 444 1275 q 402 1129 443 1183 q 286 1075 361 1075 z "},"J":{"ha":871,"x_min":68,"x_max":789,"o":"m 429 -22 q 234 26 314 -22 q 112 159 154 75 q 68 351 69 243 l 281 361 q 321 206 282 256 q 429 156 360 156 q 539 204 500 156 q 578 354 578 253 l 578 986 l 789 986 l 789 354 q 744 154 789 239 q 618 24 699 69 q 429 -22 538 -22 z "},"Ĵ":{"ha":871,"x_min":68,"x_max":918,"o":"m 429 -22 q 234 26 314 -22 q 112 159 154 75 q 68 351 69 243 l 281 361 q 321 206 282 256 q 429 156 360 156 q 539 204 500 156 q 578 354 578 253 l 578 986 l 789 986 l 789 354 q 744 154 789 239 q 618 24 699 69 q 429 -22 538 -22 m 450 1063 l 583 1275 l 783 1275 l 917 1063 l 771 1063 l 663 1215 l 704 1215 l 596 1063 l 450 1063 z "},"K":{"ha":957,"x_min":103,"x_max":940,"o":"m 103 0 l 103 986 l 314 986 l 314 556 l 672 986 l 918 986 l 556 551 l 940 0 l 700 0 l 417 410 l 314 290 l 314 0 l 103 0 z "},"Ǩ":{"ha":957,"x_min":103,"x_max":940,"o":"m 103 0 l 103 986 l 314 986 l 314 556 l 672 986 l 918 986 l 556 551 l 940 0 l 700 0 l 417 410 l 314 290 l 314 0 l 103 0 m 247 1275 l 393 1275 l 501 1124 l 460 1124 l 568 1275 l 714 1275 l 581 1063 l 381 1063 l 247 1275 z "},"Ķ":{"ha":957,"x_min":103,"x_max":940,"o":"m 103 0 l 103 986 l 314 986 l 314 556 l 672 986 l 918 986 l 556 551 l 940 0 l 700 0 l 417 410 l 314 290 l 314 0 l 103 0 m 382 -351 l 454 -229 l 406 -229 l 406 -68 l 586 -68 l 586 -214 l 504 -351 l 382 -351 z "},"L":{"ha":818,"x_min":103,"x_max":768,"o":"m 103 0 l 103 986 l 314 986 l 314 57 l 197 178 l 768 178 l 768 0 l 103 0 z "},"Ĺ":{"ha":818,"x_min":103,"x_max":768,"o":"m 103 0 l 103 986 l 314 986 l 314 57 l 197 178 l 768 178 l 768 0 l 103 0 m 114 1063 l 196 1268 l 397 1268 l 272 1063 l 114 1063 z "},"Ľ":{"ha":818,"x_min":103,"x_max":768,"o":"m 103 0 l 103 986 l 314 986 l 314 57 l 197 178 l 768 178 l 768 0 l 103 0 m 531 589 l 571 986 l 750 986 l 675 589 l 531 589 z "},"Ļ":{"ha":818,"x_min":103,"x_max":768,"o":"m 103 0 l 103 986 l 314 986 l 314 57 l 197 178 l 768 178 l 768 0 l 103 0 m 322 -351 l 394 -229 l 346 -229 l 346 -68 l 526 -68 l 526 -214 l 444 -351 l 322 -351 z "},"Ł":{"ha":818,"x_min":7,"x_max":768,"o":"m 103 0 l 103 986 l 314 986 l 314 57 l 197 178 l 768 178 l 768 0 l 103 0 m 7 336 l 7 478 l 503 718 l 503 575 l 7 336 z "},"M":{"ha":1271,"x_min":103,"x_max":1168,"o":"m 103 0 l 103 986 l 385 986 l 636 268 l 886 986 l 1168 986 l 1168 0 l 957 0 l 957 639 l 725 3 l 544 3 l 314 639 l 314 0 l 103 0 z "},"N":{"ha":1042,"x_min":103,"x_max":939,"o":"m 103 0 l 103 986 l 336 986 l 728 306 l 728 986 l 939 986 l 939 0 l 703 0 l 314 657 l 314 0 l 103 0 z "},"Ń":{"ha":1042,"x_min":103,"x_max":939,"o":"m 103 0 l 103 986 l 336 986 l 728 306 l 728 986 l 939 986 l 939 0 l 703 0 l 314 657 l 314 0 l 103 0 m 435 1063 l 517 1268 l 718 1268 l 593 1063 l 435 1063 z "},"Ň":{"ha":1042,"x_min":103,"x_max":939,"o":"m 103 0 l 103 986 l 336 986 l 728 306 l 728 986 l 939 986 l 939 0 l 703 0 l 314 657 l 314 0 l 103 0 m 296 1275 l 442 1275 l 550 1124 l 508 1124 l 617 1275 l 763 1275 l 629 1063 l 429 1063 l 296 1275 z "},"Ņ":{"ha":1042,"x_min":103,"x_max":939,"o":"m 103 0 l 103 986 l 336 986 l 728 306 l 728 986 l 939 986 l 939 0 l 703 0 l 314 657 l 314 0 l 103 0 m 404 -351 l 476 -229 l 428 -229 l 428 -68 l 608 -68 l 608 -214 l 526 -351 l 404 -351 z "},"Ñ":{"ha":1042,"x_min":103,"x_max":939,"o":"m 103 0 l 103 986 l 336 986 l 728 306 l 728 986 l 939 986 l 939 0 l 703 0 l 314 657 l 314 0 l 103 0 m 608 1075 q 553 1085 576 1075 q 503 1117 529 1094 q 476 1135 488 1129 q 449 1142 464 1142 q 413 1126 428 1142 q 396 1068 399 1111 l 292 1068 q 333 1212 293 1158 q 444 1265 374 1265 q 504 1256 478 1265 q 558 1224 531 1246 q 587 1205 575 1211 q 611 1199 599 1199 q 647 1215 633 1199 q 664 1275 661 1231 l 767 1275 q 724 1129 765 1183 q 608 1075 683 1075 z "},"Ŋ":{"ha":1042,"x_min":103,"x_max":939,"o":"m 103 0 l 103 986 l 336 986 l 728 307 l 728 986 l 939 986 l 939 0 l 703 0 l 314 657 l 314 0 l 103 0 m 535 -225 l 535 -81 l 665 -81 q 721 -65 703 -81 q 739 -11 739 -49 l 739 158 l 939 158 l 939 -8 q 883 -167 939 -110 q 715 -225 826 -225 l 535 -225 z "},"O":{"ha":1078,"x_min":58,"x_max":1019,"o":"m 539 -22 q 281 40 389 -22 q 116 218 174 103 q 58 492 58 333 q 116 766 58 650 q 281 945 174 882 q 539 1008 389 1008 q 797 945 689 1008 q 962 766 904 882 q 1019 492 1019 650 q 962 218 1019 333 q 797 40 904 103 q 539 -22 689 -22 m 538 156 q 680 195 621 156 q 770 310 739 235 q 801 492 801 385 q 770 674 801 599 q 680 790 739 750 q 538 831 621 831 q 397 790 456 831 q 308 674 339 750 q 276 492 276 599 q 308 310 276 385 q 398 195 339 235 q 538 156 457 156 z "},"Ó":{"ha":1078,"x_min":58,"x_max":1019,"o":"m 539 -22 q 281 40 389 -22 q 116 218 174 103 q 58 492 58 333 q 116 766 58 650 q 281 945 174 882 q 539 1008 389 1008 q 797 945 689 1008 q 962 766 904 882 q 1019 492 1019 650 q 962 218 1019 333 q 797 40 904 103 q 539 -22 689 -22 m 538 156 q 680 195 621 156 q 770 310 739 235 q 801 492 801 385 q 770 674 801 599 q 680 790 739 750 q 538 831 621 831 q 397 790 456 831 q 308 674 339 750 q 276 492 276 599 q 308 310 276 385 q 398 195 339 235 q 538 156 457 156 m 444 1063 l 526 1268 l 728 1268 l 603 1063 l 444 1063 z "},"Ô":{"ha":1078,"x_min":58,"x_max":1019,"o":"m 539 -22 q 281 40 389 -22 q 116 218 174 103 q 58 492 58 333 q 116 766 58 650 q 281 945 174 882 q 539 1008 389 1008 q 797 945 689 1008 q 962 766 904 882 q 1019 492 1019 650 q 962 218 1019 333 q 797 40 904 103 q 539 -22 689 -22 m 538 156 q 680 195 621 156 q 770 310 739 235 q 801 492 801 385 q 770 674 801 599 q 680 790 739 750 q 538 831 621 831 q 397 790 456 831 q 308 674 339 750 q 276 492 276 599 q 308 310 276 385 q 398 195 339 235 q 538 156 457 156 m 306 1063 l 439 1275 l 639 1275 l 772 1063 l 626 1063 l 518 1215 l 560 1215 l 451 1063 l 306 1063 z "},"Ö":{"ha":1078,"x_min":58,"x_max":1019,"o":"m 539 -22 q 281 40 389 -22 q 116 218 174 103 q 58 492 58 333 q 116 766 58 650 q 281 945 174 882 q 539 1008 389 1008 q 797 945 689 1008 q 962 766 904 882 q 1019 492 1019 650 q 962 218 1019 333 q 797 40 904 103 q 539 -22 689 -22 m 538 156 q 680 195 621 156 q 770 310 739 235 q 801 492 801 385 q 770 674 801 599 q 680 790 739 750 q 538 831 621 831 q 397 790 456 831 q 308 674 339 750 q 276 492 276 599 q 308 310 276 385 q 398 195 339 235 q 538 156 457 156 m 290 1074 l 290 1242 l 489 1242 l 489 1074 l 290 1074 m 589 1074 l 589 1242 l 788 1242 l 788 1074 l 589 1074 z "},"Ò":{"ha":1078,"x_min":58,"x_max":1019,"o":"m 539 -22 q 281 40 389 -22 q 116 218 174 103 q 58 492 58 333 q 116 766 58 650 q 281 945 174 882 q 539 1008 389 1008 q 797 945 689 1008 q 962 766 904 882 q 1019 492 1019 650 q 962 218 1019 333 q 797 40 904 103 q 539 -22 689 -22 m 538 156 q 680 195 621 156 q 770 310 739 235 q 801 492 801 385 q 770 674 801 599 q 680 790 739 750 q 538 831 621 831 q 397 790 456 831 q 308 674 339 750 q 276 492 276 599 q 308 310 276 385 q 398 195 339 235 q 538 156 457 156 m 472 1072 l 347 1276 l 549 1276 l 631 1072 l 472 1072 z "},"Ő":{"ha":1078,"x_min":58,"x_max":1019,"o":"m 539 -22 q 281 40 389 -22 q 116 218 174 103 q 58 492 58 333 q 116 766 58 650 q 281 945 174 882 q 539 1008 389 1008 q 797 945 689 1008 q 962 766 904 882 q 1019 492 1019 650 q 962 218 1019 333 q 797 40 904 103 q 539 -22 689 -22 m 538 156 q 680 195 621 156 q 770 310 739 235 q 801 492 801 385 q 770 674 801 599 q 680 790 739 750 q 538 831 621 831 q 397 790 456 831 q 308 674 339 750 q 276 492 276 599 q 308 310 276 385 q 398 195 339 235 q 538 156 457 156 m 336 1063 l 418 1268 l 619 1268 l 494 1063 l 336 1063 m 582 1063 l 664 1268 l 865 1268 l 740 1063 l 582 1063 z "},"Ō":{"ha":1078,"x_min":58,"x_max":1019,"o":"m 539 -22 q 281 40 389 -22 q 116 218 174 103 q 58 492 58 333 q 116 766 58 650 q 281 945 174 882 q 539 1008 389 1008 q 797 945 689 1008 q 962 766 904 882 q 1019 492 1019 650 q 962 218 1019 333 q 797 40 904 103 q 539 -22 689 -22 m 538 156 q 680 195 621 156 q 770 310 739 235 q 801 492 801 385 q 770 674 801 599 q 680 790 739 750 q 538 831 621 831 q 397 790 456 831 q 308 674 339 750 q 276 492 276 599 q 308 310 276 385 q 398 195 339 235 q 538 156 457 156 m 331 1085 l 331 1238 l 746 1238 l 746 1085 l 331 1085 z "},"Ø":{"ha":1078,"x_min":58,"x_max":1019,"o":"m 539 -22 q 281 40 389 -22 q 116 218 174 103 q 58 492 58 333 q 116 766 58 650 q 281 945 174 882 q 539 1008 389 1008 q 797 945 689 1008 q 962 766 904 882 q 1019 492 1019 650 q 962 218 1019 333 q 797 40 904 103 q 539 -22 689 -22 m 538 156 q 680 195 621 156 q 770 310 739 235 q 801 492 801 385 q 770 674 801 599 q 680 790 739 750 q 538 831 621 831 q 397 790 456 831 q 308 674 339 750 q 276 492 276 599 q 308 310 276 385 q 398 195 339 235 q 538 156 457 156 m 100 -22 l 822 1008 l 978 1008 l 256 -22 l 100 -22 z "},"Õ":{"ha":1078,"x_min":58,"x_max":1019,"o":"m 539 -22 q 281 40 389 -22 q 116 218 174 103 q 58 492 58 333 q 116 766 58 650 q 281 945 174 882 q 539 1008 389 1008 q 797 945 689 1008 q 962 766 904 882 q 1019 492 1019 650 q 962 218 1019 333 q 797 40 904 103 q 539 -22 689 -22 m 538 156 q 680 195 621 156 q 770 310 739 235 q 801 492 801 385 q 770 674 801 599 q 680 790 739 750 q 538 831 621 831 q 397 790 456 831 q 308 674 339 750 q 276 492 276 599 q 308 310 276 385 q 398 195 339 235 q 538 156 457 156 m 617 1075 q 561 1085 585 1075 q 511 1117 538 1094 q 484 1135 496 1129 q 457 1142 472 1142 q 422 1126 436 1142 q 404 1068 407 1111 l 300 1068 q 342 1212 301 1158 q 453 1265 382 1265 q 513 1256 486 1265 q 567 1224 539 1246 q 595 1205 583 1211 q 619 1199 607 1199 q 656 1215 642 1199 q 672 1275 669 1231 l 775 1275 q 733 1129 774 1183 q 617 1075 692 1075 z "},"Œ":{"ha":1556,"x_min":58,"x_max":1492,"o":"m 536 -22 q 285 40 392 -22 q 118 218 178 103 q 58 492 58 333 q 117 769 58 654 q 284 946 176 883 q 536 1008 392 1008 q 705 978 631 1008 q 833 890 779 947 l 833 986 l 1481 986 l 1481 808 l 1044 808 l 1044 582 l 1464 582 l 1464 407 l 1044 407 l 1044 178 l 1492 178 l 1492 0 l 833 0 l 833 96 q 705 8 779 39 q 536 -22 631 -22 m 536 156 q 685 199 628 156 q 772 319 743 243 q 800 492 800 396 q 772 665 800 589 q 686 786 744 742 q 536 831 628 831 q 390 786 447 831 q 304 665 332 742 q 276 492 276 589 q 305 319 276 396 q 391 199 333 243 q 536 156 449 156 z "},"P":{"ha":933,"x_min":103,"x_max":876,"o":"m 103 0 l 103 986 l 497 986 q 776 900 675 986 q 876 664 876 814 q 831 492 876 565 q 701 380 786 419 q 497 340 615 340 l 314 340 l 314 0 l 103 0 m 314 518 l 485 518 q 614 555 568 518 q 660 664 660 592 q 615 772 660 735 q 485 808 569 808 l 314 808 l 314 518 z "},"Þ":{"ha":892,"x_min":103,"x_max":835,"o":"m 172 207 l 172 385 l 463 385 q 579 416 540 385 q 618 508 618 447 q 579 600 618 569 q 463 631 540 631 l 172 631 l 172 810 l 467 810 q 739 731 643 810 q 835 510 835 651 q 739 286 835 365 q 467 207 643 207 l 172 207 m 103 0 l 103 986 l 314 986 l 314 0 l 103 0 z "},"Q":{"ha":1068,"x_min":58,"x_max":1010,"o":"m 788 -86 l 711 10 q 634 -14 679 -6 q 535 -22 589 -22 q 282 44 389 -22 q 117 226 175 110 q 58 492 58 342 q 113 756 58 639 q 274 940 168 872 q 535 1008 381 1008 q 795 940 689 1008 q 956 756 901 872 q 1010 492 1010 639 q 963 250 1010 354 q 831 76 917 146 l 961 -86 l 788 -86 m 535 156 q 568 158 553 156 q 597 165 583 160 l 460 333 l 635 333 l 707 238 q 770 338 749 276 q 792 492 792 400 q 765 659 792 582 q 681 783 738 736 q 535 831 624 831 q 388 783 444 831 q 303 659 331 736 q 276 492 276 582 q 303 326 276 403 q 388 202 331 249 q 535 156 446 156 z "},"R":{"ha":968,"x_min":103,"x_max":899,"o":"m 103 0 l 103 986 l 535 986 q 723 950 643 986 q 846 848 803 914 q 889 692 889 782 q 860 571 889 624 q 783 485 832 518 q 669 443 733 451 l 665 456 q 815 413 764 456 q 874 283 867 371 l 899 0 l 683 0 l 665 250 q 630 334 661 307 q 524 361 599 361 l 314 361 l 314 0 l 103 0 m 314 538 l 511 538 q 630 573 588 538 q 672 674 672 608 q 629 774 672 740 q 504 808 586 808 l 314 808 l 314 538 z "},"Ŕ":{"ha":968,"x_min":103,"x_max":899,"o":"m 103 0 l 103 986 l 535 986 q 723 950 643 986 q 846 848 803 914 q 889 692 889 782 q 860 571 889 624 q 783 485 832 518 q 669 443 733 451 l 665 456 q 815 413 764 456 q 874 283 867 371 l 899 0 l 683 0 l 665 250 q 630 334 661 307 q 524 361 599 361 l 314 361 l 314 0 l 103 0 m 314 538 l 511 538 q 630 573 588 538 q 672 674 672 608 q 629 774 672 740 q 504 808 586 808 l 314 808 l 314 538 m 385 1063 l 467 1268 l 668 1268 l 543 1063 l 385 1063 z "},"Ř":{"ha":968,"x_min":103,"x_max":899,"o":"m 103 0 l 103 986 l 535 986 q 723 950 643 986 q 846 848 803 914 q 889 692 889 782 q 860 571 889 624 q 783 485 832 518 q 669 443 733 451 l 665 456 q 815 413 764 456 q 874 283 867 371 l 899 0 l 683 0 l 665 250 q 630 334 661 307 q 524 361 599 361 l 314 361 l 314 0 l 103 0 m 314 538 l 511 538 q 630 573 588 538 q 672 674 672 608 q 629 774 672 740 q 504 808 586 808 l 314 808 l 314 538 m 246 1275 l 392 1275 l 500 1124 l 458 1124 l 567 1275 l 713 1275 l 579 1063 l 379 1063 l 246 1275 z "},"Ŗ":{"ha":968,"x_min":103,"x_max":899,"o":"m 103 0 l 103 986 l 535 986 q 723 950 643 986 q 846 848 803 914 q 889 692 889 782 q 860 571 889 624 q 783 485 832 518 q 669 443 733 451 l 665 456 q 815 413 764 456 q 874 283 867 371 l 899 0 l 683 0 l 665 250 q 630 334 661 307 q 524 361 599 361 l 314 361 l 314 0 l 103 0 m 314 538 l 511 538 q 630 573 588 538 q 672 674 672 608 q 629 774 672 740 q 504 808 586 808 l 314 808 l 314 538 m 386 -351 l 458 -229 l 410 -229 l 410 -68 l 590 -68 l 590 -214 l 508 -351 l 386 -351 z "},"S":{"ha":946,"x_min":72,"x_max":874,"o":"m 493 -22 q 274 21 365 -22 q 131 142 182 64 q 72 325 79 219 l 285 335 q 319 235 293 276 q 388 174 344 194 q 496 153 432 153 q 585 165 549 153 q 642 203 622 178 q 661 267 661 229 q 644 327 661 301 q 581 374 628 353 q 442 417 533 396 q 238 482 315 446 q 126 573 161 518 q 92 711 92 628 q 135 867 92 800 q 263 971 179 933 q 461 1008 346 1008 q 668 965 583 1008 q 801 847 753 922 q 858 675 849 772 l 647 664 q 619 753 643 715 q 556 813 596 792 q 458 833 515 833 q 345 801 386 833 q 304 718 304 769 q 323 658 304 682 q 385 615 342 633 q 510 581 429 597 q 727 510 647 553 q 840 410 807 468 q 874 276 874 351 q 827 117 874 185 q 695 14 781 50 q 493 -22 610 -22 z "},"Ś":{"ha":946,"x_min":72,"x_max":874,"o":"m 493 -22 q 274 21 365 -22 q 131 142 182 64 q 72 325 79 219 l 285 335 q 319 235 293 276 q 388 174 344 194 q 496 153 432 153 q 585 165 549 153 q 642 203 622 178 q 661 267 661 229 q 644 327 661 301 q 581 374 628 353 q 442 417 533 396 q 238 482 315 446 q 126 573 161 518 q 92 711 92 628 q 135 867 92 800 q 263 971 179 933 q 461 1008 346 1008 q 668 965 583 1008 q 801 847 753 922 q 858 675 849 772 l 647 664 q 619 753 643 715 q 556 813 596 792 q 458 833 515 833 q 345 801 386 833 q 304 718 304 769 q 323 658 304 682 q 385 615 342 633 q 510 581 429 597 q 727 510 647 553 q 840 410 807 468 q 874 276 874 351 q 827 117 874 185 q 695 14 781 50 q 493 -22 610 -22 m 368 1063 l 450 1268 l 651 1268 l 526 1063 l 368 1063 z "},"Š":{"ha":946,"x_min":72,"x_max":874,"o":"m 493 -22 q 274 21 365 -22 q 131 142 182 64 q 72 325 79 219 l 285 335 q 319 235 293 276 q 388 174 344 194 q 496 153 432 153 q 585 165 549 153 q 642 203 622 178 q 661 267 661 229 q 644 327 661 301 q 581 374 628 353 q 442 417 533 396 q 238 482 315 446 q 126 573 161 518 q 92 711 92 628 q 135 867 92 800 q 263 971 179 933 q 461 1008 346 1008 q 668 965 583 1008 q 801 847 753 922 q 858 675 849 772 l 647 664 q 619 753 643 715 q 556 813 596 792 q 458 833 515 833 q 345 801 386 833 q 304 718 304 769 q 323 658 304 682 q 385 615 342 633 q 510 581 429 597 q 727 510 647 553 q 840 410 807 468 q 874 276 874 351 q 827 117 874 185 q 695 14 781 50 q 493 -22 610 -22 m 229 1275 l 375 1275 l 483 1124 l 442 1124 l 550 1275 l 696 1275 l 563 1063 l 363 1063 l 229 1275 z "},"Ş":{"ha":946,"x_min":72,"x_max":874,"o":"m 493 -22 q 274 21 365 -22 q 131 142 182 64 q 72 325 79 219 l 285 335 q 319 235 293 276 q 388 174 344 194 q 496 153 432 153 q 585 165 549 153 q 642 203 622 178 q 661 267 661 229 q 644 327 661 301 q 581 374 628 353 q 442 417 533 396 q 238 482 315 446 q 126 573 161 518 q 92 711 92 628 q 135 867 92 800 q 263 971 179 933 q 461 1008 346 1008 q 668 965 583 1008 q 801 847 753 922 q 858 675 849 772 l 647 664 q 619 753 643 715 q 556 813 596 792 q 458 833 515 833 q 345 801 386 833 q 304 718 304 769 q 323 658 304 682 q 385 615 342 633 q 510 581 429 597 q 727 510 647 553 q 840 410 807 468 q 874 276 874 351 q 827 117 874 185 q 695 14 781 50 q 493 -22 610 -22 m 476 -322 q 362 -290 407 -322 q 299 -207 317 -258 l 390 -168 q 421 -208 401 -194 q 472 -221 440 -221 q 521 -208 503 -221 q 539 -171 539 -194 q 522 -131 539 -146 q 449 -117 504 -117 l 392 -62 l 438 14 l 557 14 l 519 -43 q 621 -87 589 -50 q 653 -175 653 -124 q 628 -258 653 -225 q 565 -306 604 -290 q 476 -322 526 -322 z "},"Ŝ":{"ha":946,"x_min":72,"x_max":874,"o":"m 493 -22 q 274 21 365 -22 q 131 142 182 64 q 72 325 79 219 l 285 335 q 319 235 293 276 q 388 174 344 194 q 496 153 432 153 q 585 165 549 153 q 642 203 622 178 q 661 267 661 229 q 644 327 661 301 q 581 374 628 353 q 442 417 533 396 q 238 482 315 446 q 126 573 161 518 q 92 711 92 628 q 135 867 92 800 q 263 971 179 933 q 461 1008 346 1008 q 668 965 583 1008 q 801 847 753 922 q 858 675 849 772 l 647 664 q 619 753 643 715 q 556 813 596 792 q 458 833 515 833 q 345 801 386 833 q 304 718 304 769 q 323 658 304 682 q 385 615 342 633 q 510 581 429 597 q 727 510 647 553 q 840 410 807 468 q 874 276 874 351 q 827 117 874 185 q 695 14 781 50 q 493 -22 610 -22 m 229 1063 l 363 1275 l 563 1275 l 696 1063 l 550 1063 l 442 1215 l 483 1215 l 375 1063 l 229 1063 z "},"Ș":{"ha":946,"x_min":72,"x_max":874,"o":"m 493 -22 q 274 21 365 -22 q 131 142 182 64 q 72 325 79 219 l 285 335 q 319 235 293 276 q 388 174 344 194 q 496 153 432 153 q 585 165 549 153 q 642 203 622 178 q 661 267 661 229 q 644 327 661 301 q 581 374 628 353 q 442 417 533 396 q 238 482 315 446 q 126 573 161 518 q 92 711 92 628 q 135 867 92 800 q 263 971 179 933 q 461 1008 346 1008 q 668 965 583 1008 q 801 847 753 922 q 858 675 849 772 l 647 664 q 619 753 643 715 q 556 813 596 792 q 458 833 515 833 q 345 801 386 833 q 304 718 304 769 q 323 658 304 682 q 385 615 342 633 q 510 581 429 597 q 727 510 647 553 q 840 410 807 468 q 874 276 874 351 q 827 117 874 185 q 695 14 781 50 q 493 -22 610 -22 m 371 -351 l 443 -229 l 394 -229 l 394 -68 l 575 -68 l 575 -214 l 493 -351 l 371 -351 z "},"ẞ":{"ha":1029,"x_min":103,"x_max":960,"o":"m 103 0 l 103 651 q 195 900 103 814 q 463 986 288 986 l 911 986 l 911 804 l 544 476 l 544 593 q 854 519 749 593 q 960 307 960 446 q 915 142 960 210 q 783 37 869 74 q 575 0 697 0 l 407 0 l 407 178 l 575 178 q 698 213 653 178 q 743 310 743 247 q 695 408 743 374 q 563 442 647 442 l 426 442 l 426 588 l 769 907 l 783 808 l 463 808 q 351 769 389 808 q 314 651 314 729 l 314 0 l 103 0 z "},"T":{"ha":832,"x_min":15,"x_max":818,"o":"m 310 0 l 310 808 l 15 808 l 15 986 l 818 986 l 818 808 l 522 808 l 522 0 l 310 0 z "},"Ŧ":{"ha":832,"x_min":15,"x_max":818,"o":"m 310 0 l 310 808 l 15 808 l 15 986 l 818 986 l 818 808 l 522 808 l 522 0 l 310 0 m 138 374 l 138 533 l 696 533 l 696 374 l 138 374 z "},"Ť":{"ha":832,"x_min":15,"x_max":818,"o":"m 310 0 l 310 808 l 15 808 l 15 986 l 818 986 l 818 808 l 522 808 l 522 0 l 310 0 m 182 1275 l 328 1275 l 436 1124 l 394 1124 l 503 1275 l 649 1275 l 515 1063 l 315 1063 l 182 1275 z "},"Ţ":{"ha":832,"x_min":15,"x_max":818,"o":"m 310 0 l 310 808 l 15 808 l 15 986 l 818 986 l 818 808 l 522 808 l 522 0 l 310 0 m 407 -322 q 292 -290 338 -322 q 229 -207 247 -258 l 321 -168 q 351 -208 332 -194 q 403 -221 371 -221 q 451 -208 433 -221 q 469 -171 469 -194 q 452 -131 469 -146 q 379 -117 435 -117 l 322 -62 l 368 14 l 488 14 l 450 -43 q 551 -87 519 -50 q 583 -175 583 -124 q 559 -258 583 -225 q 496 -306 535 -290 q 407 -322 457 -322 z "},"Ț":{"ha":832,"x_min":15,"x_max":818,"o":"m 310 0 l 310 808 l 15 808 l 15 986 l 818 986 l 818 808 l 522 808 l 522 0 l 310 0 m 301 -351 l 374 -229 l 325 -229 l 325 -68 l 506 -68 l 506 -214 l 424 -351 l 301 -351 z "},"U":{"ha":976,"x_min":82,"x_max":894,"o":"m 489 -22 q 273 24 364 -22 q 132 155 182 69 q 82 356 82 240 l 82 988 l 293 988 l 293 356 q 344 208 293 260 q 489 156 394 156 q 633 208 583 156 q 683 356 683 260 l 683 988 l 894 988 l 894 356 q 845 155 894 240 q 704 24 796 69 q 489 -22 613 -22 z "},"Ú":{"ha":976,"x_min":82,"x_max":894,"o":"m 489 -22 q 273 24 364 -22 q 132 155 182 69 q 82 356 82 240 l 82 988 l 293 988 l 293 356 q 344 208 293 260 q 489 156 394 156 q 633 208 583 156 q 683 356 683 260 l 683 988 l 894 988 l 894 356 q 845 155 894 240 q 704 24 796 69 q 489 -22 613 -22 m 394 1063 l 476 1268 l 678 1268 l 553 1063 l 394 1063 z "},"Ŭ":{"ha":976,"x_min":82,"x_max":894,"o":"m 489 -22 q 273 24 364 -22 q 132 155 182 69 q 82 356 82 240 l 82 988 l 293 988 l 293 356 q 344 208 293 260 q 489 156 394 156 q 633 208 583 156 q 683 356 683 260 l 683 988 l 894 988 l 894 356 q 845 155 894 240 q 704 24 796 69 q 489 -22 613 -22 m 489 1064 q 333 1117 392 1064 q 271 1268 275 1171 l 392 1268 q 422 1199 396 1221 q 489 1178 447 1178 q 556 1199 531 1178 q 585 1268 581 1221 l 706 1268 q 643 1117 701 1171 q 489 1064 585 1064 z "},"Û":{"ha":976,"x_min":82,"x_max":894,"o":"m 489 -22 q 273 24 364 -22 q 132 155 182 69 q 82 356 82 240 l 82 988 l 293 988 l 293 356 q 344 208 293 260 q 489 156 394 156 q 633 208 583 156 q 683 356 683 260 l 683 988 l 894 988 l 894 356 q 845 155 894 240 q 704 24 796 69 q 489 -22 613 -22 m 256 1063 l 389 1275 l 589 1275 l 722 1063 l 576 1063 l 468 1215 l 510 1215 l 401 1063 l 256 1063 z "},"Ü":{"ha":976,"x_min":82,"x_max":894,"o":"m 489 -22 q 273 24 364 -22 q 132 155 182 69 q 82 356 82 240 l 82 988 l 293 988 l 293 356 q 344 208 293 260 q 489 156 394 156 q 633 208 583 156 q 683 356 683 260 l 683 988 l 894 988 l 894 356 q 845 155 894 240 q 704 24 796 69 q 489 -22 613 -22 m 240 1074 l 240 1242 l 439 1242 l 439 1074 l 240 1074 m 539 1074 l 539 1242 l 738 1242 l 738 1074 l 539 1074 z "},"Ù":{"ha":976,"x_min":82,"x_max":894,"o":"m 489 -22 q 273 24 364 -22 q 132 155 182 69 q 82 356 82 240 l 82 988 l 293 988 l 293 356 q 344 208 293 260 q 489 156 394 156 q 633 208 583 156 q 683 356 683 260 l 683 988 l 894 988 l 894 356 q 845 155 894 240 q 704 24 796 69 q 489 -22 613 -22 m 422 1072 l 297 1276 l 499 1276 l 581 1072 l 422 1072 z "},"Ű":{"ha":976,"x_min":82,"x_max":894,"o":"m 489 -22 q 273 24 364 -22 q 132 155 182 69 q 82 356 82 240 l 82 988 l 293 988 l 293 356 q 344 208 293 260 q 489 156 394 156 q 633 208 583 156 q 683 356 683 260 l 683 988 l 894 988 l 894 356 q 845 155 894 240 q 704 24 796 69 q 489 -22 613 -22 m 286 1063 l 368 1268 l 569 1268 l 444 1063 l 286 1063 m 532 1063 l 614 1268 l 815 1268 l 690 1063 l 532 1063 z "},"Ū":{"ha":976,"x_min":82,"x_max":894,"o":"m 489 -22 q 273 24 364 -22 q 132 155 182 69 q 82 356 82 240 l 82 988 l 293 988 l 293 356 q 344 208 293 260 q 489 156 394 156 q 633 208 583 156 q 683 356 683 260 l 683 988 l 894 988 l 894 356 q 845 155 894 240 q 704 24 796 69 q 489 -22 613 -22 m 281 1085 l 281 1238 l 696 1238 l 696 1085 l 281 1085 z "},"Ų":{"ha":976,"x_min":82,"x_max":894,"o":"m 489 -22 q 273 24 364 -22 q 132 155 182 69 q 82 356 82 240 l 82 988 l 293 988 l 293 356 q 344 208 293 260 q 489 156 394 156 q 633 208 583 156 q 683 356 683 260 l 683 988 l 894 988 l 894 356 q 845 155 894 240 q 704 24 796 69 q 489 -22 613 -22 m 551 -300 q 435 -269 476 -300 q 394 -182 394 -239 q 416 -99 394 -139 q 464 -26 438 -60 l 510 35 l 649 1 l 607 -54 q 574 -103 586 -82 q 563 -142 563 -124 q 573 -167 563 -158 q 599 -176 583 -176 q 633 -171 617 -176 q 661 -158 650 -165 l 700 -264 q 638 -290 681 -279 q 551 -300 596 -300 z "},"Ů":{"ha":976,"x_min":82,"x_max":894,"o":"m 489 -22 q 273 24 364 -22 q 132 155 182 69 q 82 356 82 240 l 82 988 l 293 988 l 293 356 q 344 208 293 260 q 489 156 394 156 q 633 208 583 156 q 683 356 683 260 l 683 988 l 894 988 l 894 356 q 845 155 894 240 q 704 24 796 69 q 489 -22 613 -22 m 489 1040 q 387 1081 428 1040 q 346 1181 346 1121 q 387 1282 346 1242 q 489 1322 428 1322 q 590 1282 549 1322 q 631 1182 631 1242 q 590 1081 631 1121 q 489 1040 549 1040 m 489 1129 q 526 1144 511 1129 q 540 1181 540 1158 q 526 1218 540 1203 q 489 1233 511 1233 q 451 1218 467 1233 q 436 1181 436 1203 q 451 1144 436 1158 q 489 1129 467 1129 z "},"Ũ":{"ha":976,"x_min":82,"x_max":894,"o":"m 489 -22 q 273 24 364 -22 q 132 155 182 69 q 82 356 82 240 l 82 988 l 293 988 l 293 356 q 344 208 293 260 q 489 156 394 156 q 633 208 583 156 q 683 356 683 260 l 683 988 l 894 988 l 894 356 q 845 155 894 240 q 704 24 796 69 q 489 -22 613 -22 m 567 1075 q 511 1085 535 1075 q 461 1117 488 1094 q 434 1135 446 1129 q 407 1142 422 1142 q 372 1126 386 1142 q 354 1068 357 1111 l 250 1068 q 292 1212 251 1158 q 403 1265 332 1265 q 463 1256 436 1265 q 517 1224 489 1246 q 545 1205 533 1211 q 569 1199 557 1199 q 606 1215 592 1199 q 622 1275 619 1231 l 725 1275 q 683 1129 724 1183 q 567 1075 642 1075 z "},"V":{"ha":1014,"x_min":26,"x_max":988,"o":"m 382 0 l 26 986 l 244 986 l 507 238 l 769 986 l 988 986 l 631 0 l 382 0 z "},"W":{"ha":1410,"x_min":51,"x_max":1358,"o":"m 318 0 l 51 986 l 272 986 l 442 292 l 613 986 l 797 986 l 969 292 l 1138 986 l 1358 986 l 1093 0 l 865 0 l 704 631 l 543 0 l 318 0 z "},"Ẃ":{"ha":1410,"x_min":51,"x_max":1358,"o":"m 318 0 l 51 986 l 272 986 l 442 292 l 613 986 l 797 986 l 969 292 l 1138 986 l 1358 986 l 1093 0 l 865 0 l 704 631 l 543 0 l 318 0 m 610 1063 l 692 1268 l 893 1268 l 768 1063 l 610 1063 z "},"Ŵ":{"ha":1410,"x_min":51,"x_max":1358,"o":"m 318 0 l 51 986 l 272 986 l 442 292 l 613 986 l 797 986 l 969 292 l 1138 986 l 1358 986 l 1093 0 l 865 0 l 704 631 l 543 0 l 318 0 m 471 1063 l 604 1275 l 804 1275 l 938 1063 l 792 1063 l 683 1215 l 725 1215 l 617 1063 l 471 1063 z "},"Ẅ":{"ha":1410,"x_min":51,"x_max":1358,"o":"m 318 0 l 51 986 l 272 986 l 442 292 l 613 986 l 797 986 l 969 292 l 1138 986 l 1358 986 l 1093 0 l 865 0 l 704 631 l 543 0 l 318 0 m 457 1074 l 457 1242 l 656 1242 l 656 1074 l 457 1074 m 756 1074 l 756 1242 l 954 1242 l 954 1074 l 756 1074 z "},"Ẁ":{"ha":1410,"x_min":51,"x_max":1358,"o":"m 318 0 l 51 986 l 272 986 l 442 292 l 613 986 l 797 986 l 969 292 l 1138 986 l 1358 986 l 1093 0 l 865 0 l 704 631 l 543 0 l 318 0 m 639 1072 l 514 1276 l 715 1276 l 797 1072 l 639 1072 z "},"X":{"ha":956,"x_min":17,"x_max":939,"o":"m 17 0 l 351 494 l 19 986 l 264 986 l 479 654 l 689 986 l 935 986 l 603 497 l 939 0 l 693 0 l 476 338 l 263 0 l 17 0 z "},"Y":{"ha":876,"x_min":-10,"x_max":886,"o":"m 333 0 l 333 383 l -10 986 l 224 986 l 439 589 l 653 986 l 886 986 l 544 383 l 544 0 l 333 0 z "},"Ý":{"ha":876,"x_min":-10,"x_max":886,"o":"m 333 0 l 333 383 l -10 986 l 224 986 l 439 589 l 653 986 l 886 986 l 544 383 l 544 0 l 333 0 m 344 1063 l 426 1268 l 628 1268 l 503 1063 l 344 1063 z "},"Ŷ":{"ha":876,"x_min":-10,"x_max":886,"o":"m 333 0 l 333 383 l -10 986 l 224 986 l 439 589 l 653 986 l 886 986 l 544 383 l 544 0 l 333 0 m 206 1063 l 339 1275 l 539 1275 l 672 1063 l 526 1063 l 418 1215 l 460 1215 l 351 1063 l 206 1063 z "},"Ÿ":{"ha":876,"x_min":-10,"x_max":886,"o":"m 333 0 l 333 383 l -10 986 l 224 986 l 439 589 l 653 986 l 886 986 l 544 383 l 544 0 l 333 0 m 190 1074 l 190 1242 l 389 1242 l 389 1074 l 190 1074 m 489 1074 l 489 1242 l 688 1242 l 688 1074 l 489 1074 z "},"Ỳ":{"ha":876,"x_min":-10,"x_max":886,"o":"m 333 0 l 333 383 l -10 986 l 224 986 l 439 589 l 653 986 l 886 986 l 544 383 l 544 0 l 333 0 m 374 1072 l 249 1276 l 450 1276 l 532 1072 l 374 1072 z "},"Ỹ":{"ha":876,"x_min":-10,"x_max":886,"o":"m 333 0 l 333 383 l -10 986 l 224 986 l 439 589 l 653 986 l 886 986 l 544 383 l 544 0 l 333 0 m 518 1075 q 463 1085 486 1075 q 413 1117 439 1094 q 385 1135 397 1129 q 358 1142 374 1142 q 323 1126 338 1142 q 306 1068 308 1111 l 201 1068 q 243 1212 203 1158 q 354 1265 283 1265 q 414 1256 388 1265 q 468 1224 440 1246 q 497 1205 485 1211 q 521 1199 508 1199 q 557 1215 543 1199 q 574 1275 571 1231 l 676 1275 q 634 1129 675 1183 q 518 1075 593 1075 z "},"Z":{"ha":825,"x_min":38,"x_max":788,"o":"m 38 0 l 38 172 l 507 808 l 60 808 l 60 986 l 769 986 l 769 814 l 290 178 l 788 178 l 788 0 l 38 0 z "},"Ź":{"ha":825,"x_min":38,"x_max":788,"o":"m 38 0 l 38 172 l 507 808 l 60 808 l 60 986 l 769 986 l 769 814 l 290 178 l 788 178 l 788 0 l 38 0 m 331 1063 l 413 1268 l 614 1268 l 489 1063 l 331 1063 z "},"Ž":{"ha":825,"x_min":38,"x_max":788,"o":"m 38 0 l 38 172 l 507 808 l 60 808 l 60 986 l 769 986 l 769 814 l 290 178 l 788 178 l 788 0 l 38 0 m 192 1275 l 338 1275 l 446 1124 l 404 1124 l 513 1275 l 658 1275 l 525 1063 l 325 1063 l 192 1275 z "},"Ż":{"ha":825,"x_min":38,"x_max":788,"o":"m 38 0 l 38 172 l 507 808 l 60 808 l 60 986 l 769 986 l 769 814 l 290 178 l 788 178 l 788 0 l 38 0 m 317 1078 l 317 1244 l 532 1244 l 532 1078 l 317 1078 z "},"Ꞌ":{"ha":314,"x_min":58,"x_max":256,"o":"m 76 458 l 58 792 l 58 986 l 256 986 l 256 792 l 238 458 l 76 458 z "},"a":{"ha":825,"x_min":51,"x_max":807,"o":"m 313 -17 q 124 37 197 -17 q 51 186 51 90 q 113 338 51 285 q 296 417 175 392 l 536 464 q 503 573 536 536 q 410 610 471 610 q 317 583 350 610 q 274 503 283 556 l 64 513 q 174 698 85 635 q 410 761 264 761 q 660 682 576 761 q 744 450 744 603 l 744 196 q 755 153 744 164 q 786 143 765 143 l 807 143 l 807 0 q 776 -6 797 -3 q 733 -8 754 -8 q 651 7 689 -8 q 589 59 613 22 q 565 164 565 96 l 583 150 q 534 63 569 100 q 442 4 499 25 q 313 -17 386 -17 m 363 126 q 453 147 414 126 q 514 206 492 167 q 536 297 536 244 l 536 333 l 367 297 q 291 265 317 288 q 265 206 265 242 q 290 147 265 168 q 363 126 315 126 z "},"á":{"ha":825,"x_min":51,"x_max":807,"o":"m 313 -17 q 124 37 197 -17 q 51 186 51 90 q 113 338 51 285 q 296 417 175 392 l 536 464 q 503 573 536 536 q 410 610 471 610 q 317 583 350 610 q 274 503 283 556 l 64 513 q 174 698 85 635 q 410 761 264 761 q 660 682 576 761 q 744 450 744 603 l 744 196 q 755 153 744 164 q 786 143 765 143 l 807 143 l 807 0 q 776 -6 797 -3 q 733 -8 754 -8 q 651 7 689 -8 q 589 59 613 22 q 565 164 565 96 l 583 150 q 534 63 569 100 q 442 4 499 25 q 313 -17 386 -17 m 363 126 q 453 147 414 126 q 514 206 492 167 q 536 297 536 244 l 536 333 l 367 297 q 291 265 317 288 q 265 206 265 242 q 290 147 265 168 q 363 126 315 126 m 318 821 l 400 1026 l 601 1026 l 476 821 l 318 821 z "},"ă":{"ha":825,"x_min":51,"x_max":807,"o":"m 313 -17 q 124 37 197 -17 q 51 186 51 90 q 113 338 51 285 q 296 417 175 392 l 536 464 q 503 573 536 536 q 410 610 471 610 q 317 583 350 610 q 274 503 283 556 l 64 513 q 174 698 85 635 q 410 761 264 761 q 660 682 576 761 q 744 450 744 603 l 744 196 q 755 153 744 164 q 786 143 765 143 l 807 143 l 807 0 q 776 -6 797 -3 q 733 -8 754 -8 q 651 7 689 -8 q 589 59 613 22 q 565 164 565 96 l 583 150 q 534 63 569 100 q 442 4 499 25 q 313 -17 386 -17 m 363 126 q 453 147 414 126 q 514 206 492 167 q 536 297 536 244 l 536 333 l 367 297 q 291 265 317 288 q 265 206 265 242 q 290 147 265 168 q 363 126 315 126 m 413 822 q 257 876 315 822 q 194 1026 199 929 l 315 1026 q 345 958 319 979 q 413 936 371 936 q 479 958 454 936 q 508 1026 504 979 l 629 1026 q 567 876 625 929 q 413 822 508 822 z "},"ǎ":{"ha":825,"x_min":51,"x_max":807,"o":"m 313 -17 q 124 37 197 -17 q 51 186 51 90 q 113 338 51 285 q 296 417 175 392 l 536 464 q 503 573 536 536 q 410 610 471 610 q 317 583 350 610 q 274 503 283 556 l 64 513 q 174 698 85 635 q 410 761 264 761 q 660 682 576 761 q 744 450 744 603 l 744 196 q 755 153 744 164 q 786 143 765 143 l 807 143 l 807 0 q 776 -6 797 -3 q 733 -8 754 -8 q 651 7 689 -8 q 589 59 613 22 q 565 164 565 96 l 583 150 q 534 63 569 100 q 442 4 499 25 q 313 -17 386 -17 m 363 126 q 453 147 414 126 q 514 206 492 167 q 536 297 536 244 l 536 333 l 367 297 q 291 265 317 288 q 265 206 265 242 q 290 147 265 168 q 363 126 315 126 m 179 1033 l 325 1033 l 433 882 l 392 882 l 500 1033 l 646 1033 l 513 821 l 313 821 l 179 1033 z "},"â":{"ha":825,"x_min":51,"x_max":807,"o":"m 313 -17 q 124 37 197 -17 q 51 186 51 90 q 113 338 51 285 q 296 417 175 392 l 536 464 q 503 573 536 536 q 410 610 471 610 q 317 583 350 610 q 274 503 283 556 l 64 513 q 174 698 85 635 q 410 761 264 761 q 660 682 576 761 q 744 450 744 603 l 744 196 q 755 153 744 164 q 786 143 765 143 l 807 143 l 807 0 q 776 -6 797 -3 q 733 -8 754 -8 q 651 7 689 -8 q 589 59 613 22 q 565 164 565 96 l 583 150 q 534 63 569 100 q 442 4 499 25 q 313 -17 386 -17 m 363 126 q 453 147 414 126 q 514 206 492 167 q 536 297 536 244 l 536 333 l 367 297 q 291 265 317 288 q 265 206 265 242 q 290 147 265 168 q 363 126 315 126 m 179 821 l 313 1033 l 513 1033 l 646 821 l 500 821 l 392 974 l 433 974 l 325 821 l 179 821 z "},"ä":{"ha":825,"x_min":51,"x_max":807,"o":"m 313 -17 q 124 37 197 -17 q 51 186 51 90 q 113 338 51 285 q 296 417 175 392 l 536 464 q 503 573 536 536 q 410 610 471 610 q 317 583 350 610 q 274 503 283 556 l 64 513 q 174 698 85 635 q 410 761 264 761 q 660 682 576 761 q 744 450 744 603 l 744 196 q 755 153 744 164 q 786 143 765 143 l 807 143 l 807 0 q 776 -6 797 -3 q 733 -8 754 -8 q 651 7 689 -8 q 589 59 613 22 q 565 164 565 96 l 583 150 q 534 63 569 100 q 442 4 499 25 q 313 -17 386 -17 m 363 126 q 453 147 414 126 q 514 206 492 167 q 536 297 536 244 l 536 333 l 367 297 q 291 265 317 288 q 265 206 265 242 q 290 147 265 168 q 363 126 315 126 m 164 832 l 164 1000 l 363 1000 l 363 832 l 164 832 m 463 832 l 463 1000 l 661 1000 l 661 832 l 463 832 z "},"à":{"ha":825,"x_min":51,"x_max":807,"o":"m 313 -17 q 124 37 197 -17 q 51 186 51 90 q 113 338 51 285 q 296 417 175 392 l 536 464 q 503 573 536 536 q 410 610 471 610 q 317 583 350 610 q 274 503 283 556 l 64 513 q 174 698 85 635 q 410 761 264 761 q 660 682 576 761 q 744 450 744 603 l 744 196 q 755 153 744 164 q 786 143 765 143 l 807 143 l 807 0 q 776 -6 797 -3 q 733 -8 754 -8 q 651 7 689 -8 q 589 59 613 22 q 565 164 565 96 l 583 150 q 534 63 569 100 q 442 4 499 25 q 313 -17 386 -17 m 363 126 q 453 147 414 126 q 514 206 492 167 q 536 297 536 244 l 536 333 l 367 297 q 291 265 317 288 q 265 206 265 242 q 290 147 265 168 q 363 126 315 126 m 346 831 l 221 1035 l 422 1035 l 504 831 l 346 831 z "},"ā":{"ha":825,"x_min":51,"x_max":807,"o":"m 313 -17 q 124 37 197 -17 q 51 186 51 90 q 113 338 51 285 q 296 417 175 392 l 536 464 q 503 573 536 536 q 410 610 471 610 q 317 583 350 610 q 274 503 283 556 l 64 513 q 174 698 85 635 q 410 761 264 761 q 660 682 576 761 q 744 450 744 603 l 744 196 q 755 153 744 164 q 786 143 765 143 l 807 143 l 807 0 q 776 -6 797 -3 q 733 -8 754 -8 q 651 7 689 -8 q 589 59 613 22 q 565 164 565 96 l 583 150 q 534 63 569 100 q 442 4 499 25 q 313 -17 386 -17 m 363 126 q 453 147 414 126 q 514 206 492 167 q 536 297 536 244 l 536 333 l 367 297 q 291 265 317 288 q 265 206 265 242 q 290 147 265 168 q 363 126 315 126 m 204 843 l 204 996 l 619 996 l 619 843 l 204 843 z "},"ą":{"ha":825,"x_min":51,"x_max":858,"o":"m 313 -17 q 124 37 197 -17 q 51 186 51 90 q 113 338 51 285 q 296 417 175 392 l 536 464 q 503 573 536 536 q 410 610 471 610 q 317 583 350 610 q 274 503 283 556 l 64 513 q 174 698 85 635 q 410 761 264 761 q 660 682 576 761 q 744 450 744 603 l 744 196 q 755 153 744 164 q 786 143 765 143 l 807 143 l 807 0 q 776 -6 797 -3 q 733 -8 754 -8 q 651 7 689 -8 q 589 59 613 22 q 565 164 565 96 l 583 150 q 534 63 569 100 q 442 4 499 25 q 313 -17 386 -17 m 363 126 q 453 147 414 126 q 514 206 492 167 q 536 297 536 244 l 536 333 l 367 297 q 291 265 317 288 q 265 206 265 242 q 290 147 265 168 q 363 126 315 126 m 710 -301 q 594 -271 635 -301 q 553 -183 553 -240 q 574 -101 553 -140 q 622 -28 596 -61 l 668 33 l 807 0 l 765 -56 q 733 -104 744 -83 q 721 -143 721 -125 q 731 -169 721 -160 q 757 -178 742 -178 q 792 -172 775 -178 q 819 -160 808 -167 l 858 -265 q 797 -291 839 -281 q 710 -301 754 -301 z "},"å":{"ha":825,"x_min":51,"x_max":807,"o":"m 313 -17 q 124 37 197 -17 q 51 186 51 90 q 113 338 51 285 q 296 417 175 392 l 536 464 q 503 573 536 536 q 410 610 471 610 q 317 583 350 610 q 274 503 283 556 l 64 513 q 174 698 85 635 q 410 761 264 761 q 660 682 576 761 q 744 450 744 603 l 744 196 q 755 153 744 164 q 786 143 765 143 l 807 143 l 807 0 q 776 -6 797 -3 q 733 -8 754 -8 q 651 7 689 -8 q 589 59 613 22 q 565 164 565 96 l 583 150 q 534 63 569 100 q 442 4 499 25 q 313 -17 386 -17 m 363 126 q 453 147 414 126 q 514 206 492 167 q 536 297 536 244 l 536 333 l 367 297 q 291 265 317 288 q 265 206 265 242 q 290 147 265 168 q 363 126 315 126 m 413 799 q 310 839 351 799 q 269 939 269 879 q 310 1040 269 1000 q 413 1081 351 1081 q 513 1040 472 1081 q 554 940 554 1000 q 513 839 554 879 q 413 799 472 799 m 413 888 q 449 902 435 888 q 464 939 464 917 q 449 976 464 961 q 413 992 435 992 q 375 976 390 992 q 360 939 360 961 q 375 902 360 917 q 413 888 390 888 z "},"ã":{"ha":825,"x_min":51,"x_max":807,"o":"m 313 -17 q 124 37 197 -17 q 51 186 51 90 q 113 338 51 285 q 296 417 175 392 l 536 464 q 503 573 536 536 q 410 610 471 610 q 317 583 350 610 q 274 503 283 556 l 64 513 q 174 698 85 635 q 410 761 264 761 q 660 682 576 761 q 744 450 744 603 l 744 196 q 755 153 744 164 q 786 143 765 143 l 807 143 l 807 0 q 776 -6 797 -3 q 733 -8 754 -8 q 651 7 689 -8 q 589 59 613 22 q 565 164 565 96 l 583 150 q 534 63 569 100 q 442 4 499 25 q 313 -17 386 -17 m 363 126 q 453 147 414 126 q 514 206 492 167 q 536 297 536 244 l 536 333 l 367 297 q 291 265 317 288 q 265 206 265 242 q 290 147 265 168 q 363 126 315 126 m 490 833 q 435 843 458 833 q 385 875 411 853 q 358 894 369 888 q 331 900 346 900 q 295 885 310 900 q 278 826 281 869 l 174 826 q 215 970 175 917 q 326 1024 256 1024 q 386 1014 360 1024 q 440 982 413 1004 q 469 963 457 969 q 493 957 481 957 q 529 973 515 957 q 546 1033 543 989 l 649 1033 q 606 888 647 942 q 490 833 565 833 z "},"æ":{"ha":1332,"x_min":51,"x_max":1281,"o":"m 314 -17 q 126 35 200 -17 q 51 186 51 88 q 82 304 51 258 q 168 376 113 350 q 296 417 224 403 l 536 458 q 503 573 535 536 q 407 610 471 610 q 315 581 349 610 q 274 503 282 553 l 64 513 q 174 697 86 633 q 406 761 261 761 q 660 681 571 761 q 744 438 749 601 l 646 217 q 584 88 629 140 q 470 10 539 36 q 314 -17 401 -17 m 378 125 q 460 145 425 126 q 516 201 496 164 q 536 294 536 239 l 536 328 l 367 297 q 290 265 314 289 q 265 206 265 242 q 292 144 265 165 q 378 125 318 122 m 918 -17 q 719 31 803 -17 q 588 167 635 79 q 542 372 542 254 q 588 577 542 490 q 719 713 635 664 q 915 761 803 761 q 1108 713 1026 761 q 1235 574 1190 664 q 1281 358 1281 483 l 1281 317 l 757 317 q 805 185 761 228 q 921 142 849 142 q 1010 164 974 142 q 1060 232 1046 186 l 1269 219 q 1146 46 1240 108 q 918 -17 1051 -17 m 757 444 l 1068 444 q 1022 567 1064 526 q 915 607 981 607 q 808 565 850 607 q 757 444 765 522 z "},"b":{"ha":881,"x_min":92,"x_max":829,"o":"m 519 -17 q 384 17 442 -17 q 294 110 326 50 l 290 0 l 92 0 l 92 986 l 300 986 l 300 639 q 386 726 329 690 q 519 761 443 761 q 683 713 614 761 q 791 578 753 665 q 829 372 829 490 q 791 167 829 254 q 683 31 753 79 q 519 -17 614 -17 m 461 143 q 573 203 531 143 q 615 372 615 264 q 574 541 615 481 q 463 601 532 601 q 374 574 411 601 q 319 496 338 547 q 300 372 300 444 q 319 250 300 301 q 374 171 338 199 q 461 143 411 143 z "},"c":{"ha":831,"x_min":51,"x_max":793,"o":"m 429 -17 q 231 31 315 -17 q 99 167 146 79 q 51 372 51 254 q 99 577 51 490 q 231 713 146 664 q 429 761 315 761 q 606 726 528 761 q 733 626 685 692 q 793 469 782 561 l 578 460 q 528 565 568 529 q 429 600 489 600 q 308 540 351 600 q 265 372 265 481 q 308 203 265 264 q 429 143 351 143 q 529 180 489 143 q 578 292 569 217 l 793 283 q 735 124 783 192 q 609 20 688 57 q 429 -17 531 -17 z "},"ć":{"ha":831,"x_min":51,"x_max":793,"o":"m 429 -17 q 231 31 315 -17 q 99 167 146 79 q 51 372 51 254 q 99 577 51 490 q 231 713 146 664 q 429 761 315 761 q 606 726 528 761 q 733 626 685 692 q 793 469 782 561 l 578 460 q 528 565 568 529 q 429 600 489 600 q 308 540 351 600 q 265 372 265 481 q 308 203 265 264 q 429 143 351 143 q 529 180 489 143 q 578 292 569 217 l 793 283 q 735 124 783 192 q 609 20 688 57 q 429 -17 531 -17 m 335 821 l 417 1026 l 618 1026 l 493 821 l 335 821 z "},"č":{"ha":831,"x_min":51,"x_max":793,"o":"m 429 -17 q 231 31 315 -17 q 99 167 146 79 q 51 372 51 254 q 99 577 51 490 q 231 713 146 664 q 429 761 315 761 q 606 726 528 761 q 733 626 685 692 q 793 469 782 561 l 578 460 q 528 565 568 529 q 429 600 489 600 q 308 540 351 600 q 265 372 265 481 q 308 203 265 264 q 429 143 351 143 q 529 180 489 143 q 578 292 569 217 l 793 283 q 735 124 783 192 q 609 20 688 57 q 429 -17 531 -17 m 196 1033 l 342 1033 l 450 882 l 408 882 l 517 1033 l 663 1033 l 529 821 l 329 821 l 196 1033 z "},"ç":{"ha":831,"x_min":51,"x_max":793,"o":"m 429 -17 q 231 31 315 -17 q 99 167 146 79 q 51 372 51 254 q 99 577 51 490 q 231 713 146 664 q 429 761 315 761 q 606 726 528 761 q 733 626 685 692 q 793 469 782 561 l 578 460 q 528 565 568 529 q 429 600 489 600 q 308 540 351 600 q 265 372 265 481 q 308 203 265 264 q 429 143 351 143 q 529 180 489 143 q 578 292 569 217 l 793 283 q 735 124 783 192 q 609 20 688 57 q 429 -17 531 -17 m 421 -322 q 306 -290 351 -322 q 243 -207 261 -258 l 335 -168 q 365 -208 346 -194 q 417 -221 385 -221 q 465 -208 447 -221 q 483 -171 483 -194 q 466 -131 483 -146 q 393 -117 449 -117 l 336 -62 l 382 14 l 501 14 l 464 -43 q 565 -87 533 -50 q 597 -175 597 -124 q 573 -258 597 -225 q 510 -306 549 -290 q 421 -322 471 -322 z "},"ĉ":{"ha":831,"x_min":51,"x_max":793,"o":"m 429 -17 q 231 31 315 -17 q 99 167 146 79 q 51 372 51 254 q 99 577 51 490 q 231 713 146 664 q 429 761 315 761 q 606 726 528 761 q 733 626 685 692 q 793 469 782 561 l 578 460 q 528 565 568 529 q 429 600 489 600 q 308 540 351 600 q 265 372 265 481 q 308 203 265 264 q 429 143 351 143 q 529 180 489 143 q 578 292 569 217 l 793 283 q 735 124 783 192 q 609 20 688 57 q 429 -17 531 -17 m 196 821 l 329 1033 l 529 1033 l 663 821 l 517 821 l 408 974 l 450 974 l 342 821 l 196 821 z "},"ċ":{"ha":831,"x_min":51,"x_max":793,"o":"m 429 -17 q 231 31 315 -17 q 99 167 146 79 q 51 372 51 254 q 99 577 51 490 q 231 713 146 664 q 429 761 315 761 q 606 726 528 761 q 733 626 685 692 q 793 469 782 561 l 578 460 q 528 565 568 529 q 429 600 489 600 q 308 540 351 600 q 265 372 265 481 q 308 203 265 264 q 429 143 351 143 q 529 180 489 143 q 578 292 569 217 l 793 283 q 735 124 783 192 q 609 20 688 57 q 429 -17 531 -17 m 322 836 l 322 1003 l 538 1003 l 538 836 l 322 836 z "},"d":{"ha":881,"x_min":51,"x_max":789,"o":"m 357 -17 q 194 31 263 -17 q 88 166 125 79 q 51 372 51 253 q 89 578 51 492 q 195 713 126 665 q 357 761 264 761 q 494 728 436 761 q 581 639 551 696 l 581 986 l 789 986 l 789 0 l 590 0 l 586 110 q 495 17 556 50 q 357 -17 435 -17 m 425 143 q 510 169 475 143 q 563 247 544 196 q 581 372 581 297 q 563 499 581 449 q 510 576 544 550 q 425 601 475 601 q 308 540 351 601 q 265 372 265 478 q 309 206 265 268 q 425 143 353 143 z "},"ď":{"ha":1029,"x_min":51,"x_max":1074,"o":"m 357 -17 q 194 31 263 -17 q 88 166 125 79 q 51 372 51 253 q 89 578 51 492 q 195 713 126 665 q 357 761 264 761 q 494 728 436 761 q 581 639 551 696 l 581 986 l 789 986 l 789 0 l 590 0 l 586 110 q 495 17 556 50 q 357 -17 435 -17 m 425 143 q 510 169 475 143 q 563 247 544 196 q 581 372 581 297 q 563 499 581 449 q 510 576 544 550 q 425 601 475 601 q 308 540 351 601 q 265 372 265 478 q 309 206 265 268 q 425 143 353 143 m 853 589 l 893 986 l 1072 986 l 997 589 l 853 589 z "},"đ":{"ha":881,"x_min":51,"x_max":882,"o":"m 357 -17 q 194 31 263 -17 q 88 166 125 79 q 51 372 51 253 q 89 578 51 492 q 195 713 126 665 q 357 761 264 761 q 494 728 436 761 q 581 639 551 696 l 581 986 l 789 986 l 789 0 l 590 0 l 586 110 q 495 17 556 50 q 357 -17 435 -17 m 425 143 q 510 169 475 143 q 563 247 544 196 q 581 372 581 297 q 563 499 581 449 q 510 576 544 550 q 425 601 475 601 q 308 540 351 601 q 265 372 265 478 q 309 206 265 268 q 425 143 353 143 m 399 800 l 399 921 l 882 921 l 882 800 l 399 800 z "},"ð":{"ha":858,"x_min":51,"x_max":807,"o":"m 321 696 l 282 792 l 751 989 l 790 894 l 321 696 m 621 414 q 585 644 621 547 q 467 797 550 742 q 243 861 383 853 l 299 1003 q 533 935 436 990 q 690 794 629 881 q 779 597 751 707 q 807 365 807 488 l 621 414 m 429 -17 q 222 25 307 -17 q 94 143 138 67 q 51 326 51 219 q 94 510 51 433 q 222 628 138 586 q 429 669 307 669 q 574 640 506 669 q 694 563 642 610 q 777 464 747 517 q 807 365 807 411 q 710 80 807 176 q 429 -17 613 -17 m 429 140 q 550 191 507 140 q 593 332 593 242 q 550 463 593 413 q 429 513 507 513 q 308 462 351 513 q 265 326 265 411 q 308 190 265 240 q 429 140 351 140 z "},"e":{"ha":840,"x_min":51,"x_max":790,"o":"m 426 -17 q 228 31 313 -17 q 98 167 144 79 q 51 372 51 254 q 98 577 51 490 q 228 713 144 664 q 425 761 311 761 q 618 713 536 761 q 745 574 700 664 q 790 358 790 483 l 790 317 l 267 317 q 315 185 271 228 q 431 142 358 142 q 519 164 483 142 q 569 232 554 186 l 779 219 q 656 46 750 108 q 426 -17 561 -17 m 267 444 l 576 444 q 531 567 572 526 q 425 607 490 607 q 317 565 360 607 q 267 444 275 522 z "},"é":{"ha":840,"x_min":51,"x_max":790,"o":"m 426 -17 q 228 31 313 -17 q 98 167 144 79 q 51 372 51 254 q 98 577 51 490 q 228 713 144 664 q 425 761 311 761 q 618 713 536 761 q 745 574 700 664 q 790 358 790 483 l 790 317 l 267 317 q 315 185 271 228 q 431 142 358 142 q 519 164 483 142 q 569 232 554 186 l 779 219 q 656 46 750 108 q 426 -17 561 -17 m 267 444 l 576 444 q 531 567 572 526 q 425 607 490 607 q 317 565 360 607 q 267 444 275 522 m 335 818 l 417 1024 l 618 1024 l 493 818 l 335 818 z "},"ě":{"ha":840,"x_min":51,"x_max":790,"o":"m 426 -17 q 228 31 313 -17 q 98 167 144 79 q 51 372 51 254 q 98 577 51 490 q 228 713 144 664 q 425 761 311 761 q 618 713 536 761 q 745 574 700 664 q 790 358 790 483 l 790 317 l 267 317 q 315 185 271 228 q 431 142 358 142 q 519 164 483 142 q 569 232 554 186 l 779 219 q 656 46 750 108 q 426 -17 561 -17 m 267 444 l 576 444 q 531 567 572 526 q 425 607 490 607 q 317 565 360 607 q 267 444 275 522 m 196 1031 l 342 1031 l 450 879 l 408 879 l 517 1031 l 663 1031 l 529 818 l 329 818 l 196 1031 z "},"ê":{"ha":840,"x_min":51,"x_max":790,"o":"m 426 -17 q 228 31 313 -17 q 98 167 144 79 q 51 372 51 254 q 98 577 51 490 q 228 713 144 664 q 425 761 311 761 q 618 713 536 761 q 745 574 700 664 q 790 358 790 483 l 790 317 l 267 317 q 315 185 271 228 q 431 142 358 142 q 519 164 483 142 q 569 232 554 186 l 779 219 q 656 46 750 108 q 426 -17 561 -17 m 267 444 l 576 444 q 531 567 572 526 q 425 607 490 607 q 317 565 360 607 q 267 444 275 522 m 196 818 l 329 1031 l 529 1031 l 663 818 l 517 818 l 408 971 l 450 971 l 342 818 l 196 818 z "},"ë":{"ha":840,"x_min":51,"x_max":790,"o":"m 426 -17 q 228 31 313 -17 q 98 167 144 79 q 51 372 51 254 q 98 577 51 490 q 228 713 144 664 q 425 761 311 761 q 618 713 536 761 q 745 574 700 664 q 790 358 790 483 l 790 317 l 267 317 q 315 185 271 228 q 431 142 358 142 q 519 164 483 142 q 569 232 554 186 l 779 219 q 656 46 750 108 q 426 -17 561 -17 m 267 444 l 576 444 q 531 567 572 526 q 425 607 490 607 q 317 565 360 607 q 267 444 275 522 m 181 829 l 181 997 l 379 997 l 379 829 l 181 829 m 479 829 l 479 997 l 678 997 l 678 829 l 479 829 z "},"ė":{"ha":840,"x_min":51,"x_max":790,"o":"m 426 -17 q 228 31 313 -17 q 98 167 144 79 q 51 372 51 254 q 98 577 51 490 q 228 713 144 664 q 425 761 311 761 q 618 713 536 761 q 745 574 700 664 q 790 358 790 483 l 790 317 l 267 317 q 315 185 271 228 q 431 142 358 142 q 519 164 483 142 q 569 232 554 186 l 779 219 q 656 46 750 108 q 426 -17 561 -17 m 267 444 l 576 444 q 531 567 572 526 q 425 607 490 607 q 317 565 360 607 q 267 444 275 522 m 322 833 l 322 1000 l 538 1000 l 538 833 l 322 833 z "},"è":{"ha":840,"x_min":51,"x_max":790,"o":"m 426 -17 q 228 31 313 -17 q 98 167 144 79 q 51 372 51 254 q 98 577 51 490 q 228 713 144 664 q 425 761 311 761 q 618 713 536 761 q 745 574 700 664 q 790 358 790 483 l 790 317 l 267 317 q 315 185 271 228 q 431 142 358 142 q 519 164 483 142 q 569 232 554 186 l 779 219 q 656 46 750 108 q 426 -17 561 -17 m 267 444 l 576 444 q 531 567 572 526 q 425 607 490 607 q 317 565 360 607 q 267 444 275 522 m 364 828 l 239 1032 l 440 1032 l 522 828 l 364 828 z "},"ē":{"ha":840,"x_min":51,"x_max":790,"o":"m 426 -17 q 228 31 313 -17 q 98 167 144 79 q 51 372 51 254 q 98 577 51 490 q 228 713 144 664 q 425 761 311 761 q 618 713 536 761 q 745 574 700 664 q 790 358 790 483 l 790 317 l 267 317 q 315 185 271 228 q 431 142 358 142 q 519 164 483 142 q 569 232 554 186 l 779 219 q 656 46 750 108 q 426 -17 561 -17 m 267 444 l 576 444 q 531 567 572 526 q 425 607 490 607 q 317 565 360 607 q 267 444 275 522 m 222 840 l 222 993 l 638 993 l 638 840 l 222 840 z "},"ę":{"ha":840,"x_min":51,"x_max":790,"o":"m 542 -301 q 427 -268 468 -301 q 386 -175 386 -235 q 403 -96 386 -131 q 447 -29 419 -61 l 572 115 l 718 99 l 596 -47 q 564 -98 575 -75 q 553 -139 553 -121 q 564 -169 553 -160 q 589 -178 575 -178 q 622 -172 606 -178 q 649 -160 638 -167 l 686 -265 q 627 -291 668 -281 q 542 -301 586 -301 m 426 -17 q 228 31 313 -17 q 98 167 144 79 q 51 372 51 254 q 98 577 51 490 q 228 713 144 664 q 425 761 311 761 q 618 713 536 761 q 745 574 700 664 q 790 358 790 483 l 790 317 l 267 317 q 315 185 271 228 q 431 142 358 142 q 519 164 483 142 q 569 232 554 186 l 779 219 q 656 46 750 108 q 426 -17 561 -17 m 267 444 l 576 444 q 531 567 572 526 q 425 607 490 607 q 317 565 360 607 q 267 444 275 522 z "},"ẽ":{"ha":840,"x_min":51,"x_max":790,"o":"m 426 -17 q 228 31 313 -17 q 98 167 144 79 q 51 372 51 254 q 98 577 51 490 q 228 713 144 664 q 425 761 311 761 q 618 713 536 761 q 745 574 700 664 q 790 358 790 483 l 790 317 l 267 317 q 315 185 271 228 q 431 142 358 142 q 519 164 483 142 q 569 232 554 186 l 779 219 q 656 46 750 108 q 426 -17 561 -17 m 267 444 l 576 444 q 531 567 572 526 q 425 607 490 607 q 317 565 360 607 q 267 444 275 522 m 508 831 q 453 840 476 831 q 403 872 429 850 q 376 891 388 885 q 349 897 364 897 q 313 882 328 897 q 296 824 299 867 l 192 824 q 233 967 193 914 q 344 1021 274 1021 q 404 1011 378 1021 q 458 979 431 1001 q 487 960 475 967 q 511 954 499 954 q 547 970 533 954 q 564 1031 561 986 l 667 1031 q 624 885 665 939 q 508 831 583 831 z "},"ə":{"ha":840,"x_min":51,"x_max":790,"o":"m 414 761 q 613 713 528 761 q 744 577 697 664 q 790 372 790 490 q 744 168 790 256 q 613 32 697 81 q 417 -17 529 -17 q 224 32 306 -17 q 97 171 142 81 q 51 386 51 261 l 51 428 l 574 428 q 527 560 571 517 q 411 603 483 603 q 322 581 358 603 q 271 513 286 558 l 61 525 q 185 699 92 636 q 414 761 279 761 m 574 300 l 264 300 q 310 178 269 219 q 417 138 351 138 q 524 181 482 138 q 574 300 567 224 z "},"f":{"ha":621,"x_min":64,"x_max":576,"o":"m 172 0 l 172 754 q 232 926 172 865 q 418 986 292 986 l 576 986 l 576 831 l 463 831 q 400 809 419 831 q 381 744 381 788 l 381 0 l 172 0 m 64 561 l 64 717 l 565 717 l 565 561 l 64 561 z "},"g":{"ha":881,"x_min":51,"x_max":789,"o":"m 425 -225 q 247 -199 318 -225 q 133 -125 175 -172 q 74 -17 90 -78 l 288 -1 q 330 -58 299 -37 q 425 -79 361 -79 q 540 -44 500 -79 q 579 69 579 -8 l 579 149 q 494 66 553 97 q 364 35 436 35 q 201 80 272 35 q 91 206 131 125 q 51 397 51 288 q 91 586 51 504 q 201 715 131 668 q 361 761 271 761 q 499 725 443 761 q 585 629 556 689 l 585 744 l 789 744 l 789 74 q 743 -92 789 -26 q 615 -192 697 -158 q 425 -225 533 -225 m 424 189 q 538 244 496 189 q 581 399 581 300 q 562 511 581 464 q 508 583 543 558 q 424 608 472 608 q 307 551 349 608 q 265 399 265 494 q 308 245 265 301 q 424 189 351 189 z "},"ğ":{"ha":881,"x_min":51,"x_max":789,"o":"m 425 -225 q 247 -199 318 -225 q 133 -125 175 -172 q 74 -17 90 -78 l 288 -1 q 330 -58 299 -37 q 425 -79 361 -79 q 540 -44 500 -79 q 579 69 579 -8 l 579 149 q 494 66 553 97 q 364 35 436 35 q 201 80 272 35 q 91 206 131 125 q 51 397 51 288 q 91 586 51 504 q 201 715 131 668 q 361 761 271 761 q 499 725 443 761 q 585 629 556 689 l 585 744 l 789 744 l 789 74 q 743 -92 789 -26 q 615 -192 697 -158 q 425 -225 533 -225 m 424 189 q 538 244 496 189 q 581 399 581 300 q 562 511 581 464 q 508 583 543 558 q 424 608 472 608 q 307 551 349 608 q 265 399 265 494 q 308 245 265 301 q 424 189 351 189 m 431 822 q 275 876 333 822 q 213 1026 217 929 l 333 1026 q 363 958 338 979 q 431 936 389 936 q 497 958 472 936 q 526 1026 522 979 l 647 1026 q 585 876 643 929 q 431 822 526 822 z "},"ǧ":{"ha":881,"x_min":51,"x_max":789,"o":"m 425 -225 q 247 -199 318 -225 q 133 -125 175 -172 q 74 -17 90 -78 l 288 -1 q 330 -58 299 -37 q 425 -79 361 -79 q 540 -44 500 -79 q 579 69 579 -8 l 579 149 q 494 66 553 97 q 364 35 436 35 q 201 80 272 35 q 91 206 131 125 q 51 397 51 288 q 91 586 51 504 q 201 715 131 668 q 361 761 271 761 q 499 725 443 761 q 585 629 556 689 l 585 744 l 789 744 l 789 74 q 743 -92 789 -26 q 615 -192 697 -158 q 425 -225 533 -225 m 424 189 q 538 244 496 189 q 581 399 581 300 q 562 511 581 464 q 508 583 543 558 q 424 608 472 608 q 307 551 349 608 q 265 399 265 494 q 308 245 265 301 q 424 189 351 189 m 196 1033 l 342 1033 l 450 882 l 408 882 l 517 1033 l 663 1033 l 529 821 l 329 821 l 196 1033 z "},"ĝ":{"ha":881,"x_min":51,"x_max":789,"o":"m 425 -225 q 247 -199 318 -225 q 133 -125 175 -172 q 74 -17 90 -78 l 288 -1 q 330 -58 299 -37 q 425 -79 361 -79 q 540 -44 500 -79 q 579 69 579 -8 l 579 149 q 494 66 553 97 q 364 35 436 35 q 201 80 272 35 q 91 206 131 125 q 51 397 51 288 q 91 586 51 504 q 201 715 131 668 q 361 761 271 761 q 499 725 443 761 q 585 629 556 689 l 585 744 l 789 744 l 789 74 q 743 -92 789 -26 q 615 -192 697 -158 q 425 -225 533 -225 m 424 189 q 538 244 496 189 q 581 399 581 300 q 562 511 581 464 q 508 583 543 558 q 424 608 472 608 q 307 551 349 608 q 265 399 265 494 q 308 245 265 301 q 424 189 351 189 m 196 821 l 329 1033 l 529 1033 l 663 821 l 517 821 l 408 974 l 450 974 l 342 821 l 196 821 z "},"ģ":{"ha":881,"x_min":51,"x_max":789,"o":"m 425 -225 q 247 -199 318 -225 q 133 -125 175 -172 q 74 -17 90 -78 l 288 -1 q 330 -58 299 -37 q 425 -79 361 -79 q 540 -44 500 -79 q 579 69 579 -8 l 579 149 q 494 66 553 97 q 364 35 436 35 q 201 80 272 35 q 91 206 131 125 q 51 397 51 288 q 91 586 51 504 q 201 715 131 668 q 361 761 271 761 q 499 725 443 761 q 585 629 556 689 l 585 744 l 789 744 l 789 74 q 743 -92 789 -26 q 615 -192 697 -158 q 425 -225 533 -225 m 424 189 q 538 244 496 189 q 581 399 581 300 q 562 511 581 464 q 508 583 543 558 q 424 608 472 608 q 307 551 349 608 q 265 399 265 494 q 308 245 265 301 q 424 189 351 189 m 340 822 l 340 967 l 422 1106 l 544 1106 l 472 983 l 521 983 l 521 822 l 340 822 z "},"ġ":{"ha":881,"x_min":51,"x_max":789,"o":"m 425 -225 q 247 -199 318 -225 q 133 -125 175 -172 q 74 -17 90 -78 l 288 -1 q 330 -58 299 -37 q 425 -79 361 -79 q 540 -44 500 -79 q 579 69 579 -8 l 579 149 q 494 66 553 97 q 364 35 436 35 q 201 80 272 35 q 91 206 131 125 q 51 397 51 288 q 91 586 51 504 q 201 715 131 668 q 361 761 271 761 q 499 725 443 761 q 585 629 556 689 l 585 744 l 789 744 l 789 74 q 743 -92 789 -26 q 615 -192 697 -158 q 425 -225 533 -225 m 424 189 q 538 244 496 189 q 581 399 581 300 q 562 511 581 464 q 508 583 543 558 q 424 608 472 608 q 307 551 349 608 q 265 399 265 494 q 308 245 265 301 q 424 189 351 189 m 322 836 l 322 1003 l 538 1003 l 538 836 l 322 836 z "},"ḡ":{"ha":881,"x_min":51,"x_max":789,"o":"m 425 -225 q 247 -199 318 -225 q 133 -125 175 -172 q 74 -17 90 -78 l 288 -1 q 330 -58 299 -37 q 425 -79 361 -79 q 540 -44 500 -79 q 579 69 579 -8 l 579 149 q 494 66 553 97 q 364 35 436 35 q 201 80 272 35 q 91 206 131 125 q 51 397 51 288 q 91 586 51 504 q 201 715 131 668 q 361 761 271 761 q 499 725 443 761 q 585 629 556 689 l 585 744 l 789 744 l 789 74 q 743 -92 789 -26 q 615 -192 697 -158 q 425 -225 533 -225 m 424 189 q 538 244 496 189 q 581 399 581 300 q 562 511 581 464 q 508 583 543 558 q 424 608 472 608 q 307 551 349 608 q 265 399 265 494 q 308 245 265 301 q 424 189 351 189 m 222 843 l 222 996 l 638 996 l 638 843 l 222 843 z "},"ǥ":{"ha":914,"x_min":51,"x_max":879,"o":"m 388 331 l 388 453 l 879 453 l 879 331 l 388 331 m 425 -225 q 247 -199 318 -225 q 133 -125 175 -172 q 74 -17 90 -78 l 288 -1 q 330 -58 299 -37 q 425 -79 361 -79 q 540 -44 500 -79 q 579 69 579 -8 l 579 149 q 494 66 553 97 q 364 35 436 35 q 201 80 272 35 q 91 206 131 125 q 51 397 51 288 q 91 586 51 504 q 201 715 131 668 q 361 761 271 761 q 499 725 443 761 q 585 629 556 689 l 585 744 l 789 744 l 789 74 q 743 -92 789 -26 q 615 -192 697 -158 q 425 -225 533 -225 m 424 189 q 538 244 496 189 q 581 399 581 300 q 562 511 581 464 q 508 583 543 558 q 424 608 472 608 q 307 551 349 608 q 265 399 265 494 q 308 245 265 301 q 424 189 351 189 z "},"h":{"ha":849,"x_min":92,"x_max":757,"o":"m 92 0 l 92 986 l 300 986 l 300 571 l 272 571 q 316 678 283 636 q 398 740 349 719 q 506 761 447 761 q 644 725 589 761 q 728 625 700 689 q 757 479 757 561 l 757 0 l 549 0 l 549 429 q 523 554 549 513 q 436 596 497 596 q 336 553 372 596 q 300 424 300 510 l 300 0 l 92 0 z "},"ħ":{"ha":849,"x_min":-3,"x_max":757,"o":"m 92 0 l 92 986 l 300 986 l 300 571 l 272 571 q 316 678 283 636 q 398 740 349 719 q 506 761 447 761 q 644 725 589 761 q 728 625 700 689 q 757 479 757 561 l 757 0 l 549 0 l 549 429 q 523 554 549 513 q 436 596 497 596 q 336 553 372 596 q 300 424 300 510 l 300 0 l 92 0 m -3 800 l -3 921 l 481 921 l 481 800 l -3 800 z "},"ĥ":{"ha":849,"x_min":-36,"x_max":757,"o":"m 92 0 l 92 986 l 300 986 l 300 571 l 272 571 q 316 678 283 636 q 398 740 349 719 q 506 761 447 761 q 644 725 589 761 q 728 625 700 689 q 757 479 757 561 l 757 0 l 549 0 l 549 429 q 523 554 549 513 q 436 596 497 596 q 336 553 372 596 q 300 424 300 510 l 300 0 l 92 0 m -36 1035 l 97 1247 l 297 1247 l 431 1035 l 285 1035 l 176 1188 l 218 1188 l 110 1035 l -36 1035 z "},"i":{"ha":390,"x_min":88,"x_max":303,"o":"m 92 0 l 92 744 l 300 744 l 300 0 l 92 0 m 88 836 l 88 1003 l 303 1003 l 303 836 l 88 836 z "},"ı":{"ha":390,"x_min":92,"x_max":300,"o":"m 92 0 l 92 744 l 300 744 l 300 0 l 92 0 z "},"í":{"ha":390,"x_min":92,"x_max":385,"o":"m 92 0 l 92 744 l 300 744 l 300 0 l 92 0 m 101 821 l 183 1026 l 385 1026 l 260 821 l 101 821 z "},"î":{"ha":390,"x_min":-39,"x_max":429,"o":"m 92 0 l 92 744 l 300 744 l 300 0 l 92 0 m -37 821 l 96 1033 l 296 1033 l 429 821 l 283 821 l 175 974 l 217 974 l 108 821 l -37 821 z "},"ï":{"ha":390,"x_min":-53,"x_max":444,"o":"m 92 0 l 92 744 l 300 744 l 300 0 l 92 0 m -53 832 l -53 1000 l 146 1000 l 146 832 l -53 832 m 246 832 l 246 1000 l 444 1000 l 444 832 l 246 832 z "},"ì":{"ha":390,"x_min":4,"x_max":300,"o":"m 92 0 l 92 744 l 300 744 l 300 0 l 92 0 m 129 831 l 4 1035 l 206 1035 l 288 831 l 129 831 z "},"ī":{"ha":390,"x_min":-12,"x_max":403,"o":"m 92 0 l 92 744 l 300 744 l 300 0 l 92 0 m -12 843 l -12 996 l 403 996 l 403 843 l -12 843 z "},"į":{"ha":390,"x_min":46,"x_max":350,"o":"m 92 0 l 92 744 l 300 744 l 300 0 l 92 0 m 88 836 l 88 1003 l 303 1003 l 303 836 l 88 836 m 203 -301 q 87 -271 128 -301 q 46 -183 46 -240 q 67 -101 46 -140 q 115 -28 89 -61 l 161 33 l 300 0 l 258 -56 q 226 -104 238 -83 q 214 -143 214 -125 q 224 -169 214 -160 q 250 -178 235 -178 q 285 -172 268 -178 q 313 -160 301 -167 l 351 -265 q 290 -291 332 -281 q 203 -301 247 -301 z "},"ĩ":{"ha":390,"x_min":-43,"x_max":432,"o":"m 92 0 l 92 744 l 300 744 l 300 0 l 92 0 m 274 833 q 218 843 242 833 q 168 875 194 853 q 141 894 153 888 q 114 900 129 900 q 78 885 93 900 q 61 826 64 869 l -43 826 q -1 970 -42 917 q 110 1024 39 1024 q 169 1014 143 1024 q 224 982 196 1004 q 252 963 240 969 q 276 957 264 957 q 313 973 299 957 q 329 1033 326 989 l 432 1033 q 390 888 431 942 q 274 833 349 833 z "},"ĳ":{"ha":813,"x_min":88,"x_max":725,"o":"m 92 0 l 92 744 l 300 744 l 300 0 l 92 0 m 88 836 l 88 1003 l 303 1003 l 303 836 l 88 836 m 347 -208 l 347 -53 l 429 -53 q 491 -36 471 -53 q 511 31 511 -19 l 511 744 l 721 744 l 721 25 q 665 -154 721 -100 q 472 -208 608 -208 l 347 -208 m 510 836 l 510 1003 l 725 1003 l 725 836 l 510 836 z "},"j":{"ha":460,"x_min":-4,"x_max":372,"o":"m -4 -208 l -4 -53 l 78 -53 q 140 -36 119 -53 q 160 31 160 -19 l 160 744 l 369 744 l 369 25 q 313 -154 369 -100 q 121 -208 257 -208 l -4 -208 m 157 836 l 157 1003 l 372 1003 l 372 836 l 157 836 z "},"ȷ":{"ha":460,"x_min":-4,"x_max":369,"o":"m -4 -208 l -4 -53 l 78 -53 q 140 -36 119 -53 q 160 31 160 -19 l 160 744 l 369 744 l 369 25 q 313 -154 369 -100 q 121 -208 257 -208 l -4 -208 z "},"ĵ":{"ha":460,"x_min":-4,"x_max":499,"o":"m -4 -208 l -4 -53 l 78 -53 q 140 -36 119 -53 q 160 31 160 -19 l 160 744 l 369 744 l 369 25 q 313 -154 369 -100 q 121 -208 257 -208 l -4 -208 m 32 821 l 165 1033 l 365 1033 l 499 821 l 353 821 l 244 974 l 286 974 l 178 821 l 32 821 z "},"k":{"ha":899,"x_min":92,"x_max":835,"o":"m 92 0 l 92 986 l 300 986 l 300 439 l 576 744 l 826 744 l 538 438 l 835 0 l 607 0 l 403 319 l 300 210 l 300 0 l 92 0 z "},"ǩ":{"ha":899,"x_min":-39,"x_max":835,"o":"m 92 0 l 92 986 l 300 986 l 300 439 l 576 744 l 826 744 l 538 438 l 835 0 l 607 0 l 403 319 l 300 210 l 300 0 l 92 0 m -37 1244 l 108 1244 l 217 1093 l 175 1093 l 283 1244 l 429 1244 l 296 1032 l 96 1032 l -37 1244 z "},"ķ":{"ha":899,"x_min":92,"x_max":835,"o":"m 92 0 l 92 986 l 300 986 l 300 439 l 576 744 l 826 744 l 538 438 l 835 0 l 607 0 l 403 319 l 300 210 l 300 0 l 92 0 m 326 -351 l 399 -229 l 350 -229 l 350 -68 l 531 -68 l 531 -214 l 449 -351 l 326 -351 z "},"l":{"ha":435,"x_min":92,"x_max":410,"o":"m 286 0 q 143 46 194 0 q 92 194 92 92 l 92 986 l 300 986 l 300 217 q 315 169 300 183 q 360 156 331 156 l 410 156 l 410 0 l 286 0 z "},"ĺ":{"ha":435,"x_min":92,"x_max":410,"o":"m 286 0 q 143 46 194 0 q 92 194 92 92 l 92 986 l 300 986 l 300 217 q 315 169 300 183 q 360 156 331 156 l 410 156 l 410 0 l 286 0 m 101 1032 l 183 1238 l 385 1238 l 260 1032 l 101 1032 z "},"ľ":{"ha":542,"x_min":92,"x_max":586,"o":"m 286 0 q 143 46 194 0 q 92 194 92 92 l 92 986 l 300 986 l 300 217 q 315 169 300 183 q 360 156 331 156 l 410 156 l 410 0 l 286 0 m 367 589 l 407 986 l 586 986 l 511 589 l 367 589 z "},"ļ":{"ha":435,"x_min":92,"x_max":410,"o":"m 286 0 q 143 46 194 0 q 92 194 92 92 l 92 986 l 300 986 l 300 217 q 315 169 300 183 q 360 156 331 156 l 410 156 l 410 0 l 286 0 m 142 -351 l 214 -229 l 165 -229 l 165 -68 l 346 -68 l 346 -214 l 264 -351 l 142 -351 z "},"ł":{"ha":435,"x_min":3,"x_max":426,"o":"m 286 0 q 143 46 194 0 q 92 194 92 92 l 92 986 l 300 986 l 300 217 q 315 169 300 183 q 360 156 331 156 l 410 156 l 410 0 l 286 0 m 3 390 l 3 526 l 425 693 l 425 557 l 3 390 z "},"m":{"ha":1250,"x_min":92,"x_max":1158,"o":"m 92 0 l 92 744 l 279 744 l 286 565 l 267 574 q 313 675 282 633 q 389 739 344 717 q 486 761 433 761 q 637 707 579 761 q 711 561 694 653 l 685 560 q 728 670 697 625 q 806 738 760 715 q 908 761 851 761 q 1042 729 986 761 q 1128 634 1097 697 q 1158 479 1158 571 l 1158 0 l 950 0 l 950 421 q 924 552 950 508 q 838 596 897 596 q 774 575 800 596 q 733 515 747 554 q 718 418 718 475 l 718 0 l 531 0 l 531 418 q 506 550 531 504 q 419 596 481 596 q 355 575 382 596 q 314 514 328 554 q 300 418 300 474 l 300 0 l 92 0 z "},"n":{"ha":849,"x_min":92,"x_max":757,"o":"m 92 0 l 92 744 l 279 744 l 288 526 l 261 533 q 306 667 272 617 q 392 739 340 717 q 504 761 443 761 q 641 726 585 761 q 727 628 697 692 q 757 479 757 565 l 757 0 l 549 0 l 549 410 q 539 511 549 469 q 504 574 529 553 q 435 596 479 596 q 335 548 369 596 q 300 410 300 500 l 300 0 l 92 0 z "},"ń":{"ha":849,"x_min":92,"x_max":757,"o":"m 92 0 l 92 744 l 279 744 l 288 526 l 261 533 q 306 667 272 617 q 392 739 340 717 q 504 761 443 761 q 641 726 585 761 q 727 628 697 692 q 757 479 757 565 l 757 0 l 549 0 l 549 410 q 539 511 549 469 q 504 574 529 553 q 435 596 479 596 q 335 548 369 596 q 300 410 300 500 l 300 0 l 92 0 m 329 821 l 411 1026 l 613 1026 l 488 821 l 329 821 z "},"ň":{"ha":849,"x_min":92,"x_max":757,"o":"m 92 0 l 92 744 l 279 744 l 288 526 l 261 533 q 306 667 272 617 q 392 739 340 717 q 504 761 443 761 q 641 726 585 761 q 727 628 697 692 q 757 479 757 565 l 757 0 l 549 0 l 549 410 q 539 511 549 469 q 504 574 529 553 q 435 596 479 596 q 335 548 369 596 q 300 410 300 500 l 300 0 l 92 0 m 190 1033 l 336 1033 l 444 882 l 403 882 l 511 1033 l 657 1033 l 524 821 l 324 821 l 190 1033 z "},"ņ":{"ha":849,"x_min":92,"x_max":757,"o":"m 92 0 l 92 744 l 279 744 l 288 526 l 261 533 q 306 667 272 617 q 392 739 340 717 q 504 761 443 761 q 641 726 585 761 q 727 628 697 692 q 757 479 757 565 l 757 0 l 549 0 l 549 410 q 539 511 549 469 q 504 574 529 553 q 435 596 479 596 q 335 548 369 596 q 300 410 300 500 l 300 0 l 92 0 m 310 -351 l 382 -229 l 333 -229 l 333 -68 l 514 -68 l 514 -214 l 432 -351 l 310 -351 z "},"ñ":{"ha":849,"x_min":92,"x_max":757,"o":"m 92 0 l 92 744 l 279 744 l 288 526 l 261 533 q 306 667 272 617 q 392 739 340 717 q 504 761 443 761 q 641 726 585 761 q 727 628 697 692 q 757 479 757 565 l 757 0 l 549 0 l 549 410 q 539 511 549 469 q 504 574 529 553 q 435 596 479 596 q 335 548 369 596 q 300 410 300 500 l 300 0 l 92 0 m 503 833 q 447 843 471 833 q 397 875 424 853 q 370 894 382 888 q 343 900 358 900 q 308 885 322 900 q 290 826 293 869 l 186 826 q 228 970 188 917 q 339 1024 268 1024 q 399 1014 372 1024 q 453 982 425 1004 q 481 963 469 969 q 506 957 493 957 q 542 973 528 957 q 558 1033 556 989 l 661 1033 q 619 888 660 942 q 503 833 578 833 z "},"ŋ":{"ha":849,"x_min":92,"x_max":757,"o":"m 383 -208 l 383 -67 l 467 -67 q 526 -45 504 -67 q 549 13 549 -24 l 549 165 l 757 165 l 757 -4 q 728 -109 757 -62 q 648 -182 700 -156 q 524 -208 596 -208 l 383 -208 m 92 0 l 92 744 l 279 744 l 288 526 l 261 533 q 306 667 272 617 q 392 739 340 717 q 504 761 443 761 q 641 726 585 761 q 727 628 697 692 q 757 479 757 565 l 757 0 l 549 0 l 549 410 q 539 511 549 469 q 504 574 529 553 q 435 596 479 596 q 335 548 369 596 q 300 410 300 500 l 300 0 l 92 0 z "},"o":{"ha":858,"x_min":51,"x_max":807,"o":"m 429 -17 q 231 31 315 -17 q 99 167 146 79 q 51 372 51 254 q 99 577 51 490 q 231 713 146 664 q 429 761 315 761 q 628 713 543 761 q 760 577 713 664 q 807 372 807 490 q 760 167 807 254 q 628 31 713 79 q 429 -17 543 -17 m 429 143 q 550 203 507 143 q 593 372 593 264 q 550 541 593 481 q 429 601 507 601 q 308 541 351 601 q 265 372 265 481 q 308 203 265 264 q 429 143 351 143 z "},"ó":{"ha":858,"x_min":51,"x_max":807,"o":"m 429 -17 q 231 31 315 -17 q 99 167 146 79 q 51 372 51 254 q 99 577 51 490 q 231 713 146 664 q 429 761 315 761 q 628 713 543 761 q 760 577 713 664 q 807 372 807 490 q 760 167 807 254 q 628 31 713 79 q 429 -17 543 -17 m 429 143 q 550 203 507 143 q 593 372 593 264 q 550 541 593 481 q 429 601 507 601 q 308 541 351 601 q 265 372 265 481 q 308 203 265 264 q 429 143 351 143 m 335 821 l 417 1026 l 618 1026 l 493 821 l 335 821 z "},"ô":{"ha":858,"x_min":51,"x_max":807,"o":"m 429 -17 q 231 31 315 -17 q 99 167 146 79 q 51 372 51 254 q 99 577 51 490 q 231 713 146 664 q 429 761 315 761 q 628 713 543 761 q 760 577 713 664 q 807 372 807 490 q 760 167 807 254 q 628 31 713 79 q 429 -17 543 -17 m 429 143 q 550 203 507 143 q 593 372 593 264 q 550 541 593 481 q 429 601 507 601 q 308 541 351 601 q 265 372 265 481 q 308 203 265 264 q 429 143 351 143 m 196 821 l 329 1033 l 529 1033 l 663 821 l 517 821 l 408 974 l 450 974 l 342 821 l 196 821 z "},"ö":{"ha":858,"x_min":51,"x_max":807,"o":"m 429 -17 q 231 31 315 -17 q 99 167 146 79 q 51 372 51 254 q 99 577 51 490 q 231 713 146 664 q 429 761 315 761 q 628 713 543 761 q 760 577 713 664 q 807 372 807 490 q 760 167 807 254 q 628 31 713 79 q 429 -17 543 -17 m 429 143 q 550 203 507 143 q 593 372 593 264 q 550 541 593 481 q 429 601 507 601 q 308 541 351 601 q 265 372 265 481 q 308 203 265 264 q 429 143 351 143 m 181 832 l 181 1000 l 379 1000 l 379 832 l 181 832 m 479 832 l 479 1000 l 678 1000 l 678 832 l 479 832 z "},"ò":{"ha":858,"x_min":51,"x_max":807,"o":"m 429 -17 q 231 31 315 -17 q 99 167 146 79 q 51 372 51 254 q 99 577 51 490 q 231 713 146 664 q 429 761 315 761 q 628 713 543 761 q 760 577 713 664 q 807 372 807 490 q 760 167 807 254 q 628 31 713 79 q 429 -17 543 -17 m 429 143 q 550 203 507 143 q 593 372 593 264 q 550 541 593 481 q 429 601 507 601 q 308 541 351 601 q 265 372 265 481 q 308 203 265 264 q 429 143 351 143 m 364 831 l 239 1035 l 440 1035 l 522 831 l 364 831 z "},"ő":{"ha":858,"x_min":51,"x_max":807,"o":"m 429 -17 q 231 31 315 -17 q 99 167 146 79 q 51 372 51 254 q 99 577 51 490 q 231 713 146 664 q 429 761 315 761 q 628 713 543 761 q 760 577 713 664 q 807 372 807 490 q 760 167 807 254 q 628 31 713 79 q 429 -17 543 -17 m 429 143 q 550 203 507 143 q 593 372 593 264 q 550 541 593 481 q 429 601 507 601 q 308 541 351 601 q 265 372 265 481 q 308 203 265 264 q 429 143 351 143 m 226 821 l 308 1026 l 510 1026 l 385 821 l 226 821 m 474 821 l 556 1026 l 757 1026 l 632 821 l 474 821 z "},"ō":{"ha":858,"x_min":51,"x_max":807,"o":"m 429 -17 q 231 31 315 -17 q 99 167 146 79 q 51 372 51 254 q 99 577 51 490 q 231 713 146 664 q 429 761 315 761 q 628 713 543 761 q 760 577 713 664 q 807 372 807 490 q 760 167 807 254 q 628 31 713 79 q 429 -17 543 -17 m 429 143 q 550 203 507 143 q 593 372 593 264 q 550 541 593 481 q 429 601 507 601 q 308 541 351 601 q 265 372 265 481 q 308 203 265 264 q 429 143 351 143 m 222 843 l 222 996 l 638 996 l 638 843 l 222 843 z "},"ø":{"ha":858,"x_min":51,"x_max":807,"o":"m 429 -17 q 231 31 315 -17 q 99 167 146 79 q 51 372 51 254 q 99 577 51 490 q 231 713 146 664 q 429 761 315 761 q 628 713 543 761 q 760 577 713 664 q 807 372 807 490 q 760 167 807 254 q 628 31 713 79 q 429 -17 543 -17 m 429 143 q 550 203 507 143 q 593 372 593 264 q 550 541 593 481 q 429 601 507 601 q 308 541 351 601 q 265 372 265 481 q 308 203 265 264 q 429 143 351 143 m 86 -19 l 640 764 l 772 764 l 218 -19 l 86 -19 z "},"õ":{"ha":858,"x_min":51,"x_max":807,"o":"m 429 -17 q 231 31 315 -17 q 99 167 146 79 q 51 372 51 254 q 99 577 51 490 q 231 713 146 664 q 429 761 315 761 q 628 713 543 761 q 760 577 713 664 q 807 372 807 490 q 760 167 807 254 q 628 31 713 79 q 429 -17 543 -17 m 429 143 q 550 203 507 143 q 593 372 593 264 q 550 541 593 481 q 429 601 507 601 q 308 541 351 601 q 265 372 265 481 q 308 203 265 264 q 429 143 351 143 m 508 833 q 453 843 476 833 q 403 875 429 853 q 376 894 388 888 q 349 900 364 900 q 313 885 328 900 q 296 826 299 869 l 192 826 q 233 970 193 917 q 344 1024 274 1024 q 404 1014 378 1024 q 458 982 431 1004 q 487 963 475 969 q 511 957 499 957 q 547 973 533 957 q 564 1033 561 989 l 667 1033 q 624 888 665 942 q 508 833 583 833 z "},"œ":{"ha":1386,"x_min":51,"x_max":1335,"o":"m 429 -17 q 231 31 315 -17 q 99 167 146 79 q 51 372 51 254 q 99 577 51 490 q 231 713 146 664 q 429 761 315 761 q 628 713 543 761 q 760 577 713 664 q 807 372 807 490 q 760 167 807 254 q 628 31 713 79 q 429 -17 543 -17 m 429 143 q 550 203 507 143 q 593 372 593 264 q 550 541 593 481 q 429 601 507 601 q 308 541 351 601 q 265 372 265 481 q 308 203 265 264 q 429 143 351 143 m 971 -17 q 773 31 857 -17 q 642 167 689 79 q 596 372 596 254 q 642 577 596 490 q 772 713 689 664 q 969 761 856 761 q 1163 713 1081 761 q 1290 574 1244 664 q 1335 358 1335 483 l 1335 317 l 811 317 q 859 185 815 228 q 975 142 903 142 q 1063 164 1028 142 q 1114 232 1099 186 l 1324 219 q 1200 46 1294 108 q 971 -17 1106 -17 m 811 444 l 1121 444 q 1076 567 1117 526 q 969 607 1035 607 q 862 565 904 607 q 811 444 819 522 z "},"p":{"ha":881,"x_min":92,"x_max":829,"o":"m 92 -208 l 92 744 l 292 744 l 296 588 l 279 594 q 369 718 307 675 q 515 761 432 761 q 689 710 619 761 q 794 570 758 658 q 829 372 829 482 q 794 175 829 264 q 688 35 758 86 q 514 -17 618 -17 q 413 3 460 -17 q 331 60 365 24 q 282 146 297 96 l 300 157 l 300 -208 l 92 -208 m 457 143 q 573 204 531 143 q 615 372 615 265 q 573 540 615 479 q 457 601 531 601 q 373 576 408 601 q 319 499 338 550 q 300 372 300 447 q 319 246 300 297 q 373 169 338 194 q 457 143 408 143 z "},"þ":{"ha":867,"x_min":92,"x_max":815,"o":"m 92 -208 l 92 986 l 303 986 l 303 681 q 375 740 329 718 q 488 761 421 761 q 667 710 594 761 q 778 570 740 658 q 815 372 815 482 q 778 175 815 264 q 667 35 740 86 q 488 -17 594 -17 q 381 4 428 -17 q 303 64 333 25 l 303 -208 l 92 -208 m 444 158 q 534 188 500 158 q 584 266 568 217 q 600 372 600 315 q 584 481 600 432 q 534 560 568 531 q 444 590 500 590 q 357 560 392 590 q 306 480 322 529 q 289 372 289 431 q 306 267 289 315 q 357 188 322 218 q 444 158 392 158 z "},"q":{"ha":881,"x_min":51,"x_max":789,"o":"m 789 -208 l 581 -208 l 581 157 l 599 146 q 549 60 583 96 q 468 3 515 24 q 367 -17 421 -17 q 192 35 263 -17 q 87 175 122 86 q 51 372 51 264 q 87 570 51 482 q 192 710 122 658 q 365 761 261 761 q 513 718 450 761 q 601 594 575 675 l 585 588 l 589 744 l 789 744 l 789 -208 m 424 143 q 508 169 474 143 q 562 246 543 194 q 581 372 581 297 q 562 499 581 447 q 508 576 543 550 q 424 601 472 601 q 308 540 350 601 q 265 372 265 479 q 308 204 265 265 q 424 143 350 143 z "},"r":{"ha":590,"x_min":92,"x_max":539,"o":"m 92 0 l 92 744 l 289 744 l 296 528 l 281 532 q 344 694 299 644 q 471 744 390 744 l 539 744 l 539 572 l 471 572 q 375 557 413 572 q 319 508 338 542 q 300 418 300 475 l 300 0 l 92 0 z "},"ŕ":{"ha":590,"x_min":92,"x_max":539,"o":"m 92 0 l 92 744 l 289 744 l 296 528 l 281 532 q 344 694 299 644 q 471 744 390 744 l 539 744 l 539 572 l 471 572 q 375 557 413 572 q 319 508 338 542 q 300 418 300 475 l 300 0 l 92 0 m 226 821 l 308 1026 l 510 1026 l 385 821 l 226 821 z "},"ř":{"ha":590,"x_min":88,"x_max":556,"o":"m 92 0 l 92 744 l 289 744 l 296 528 l 281 532 q 344 694 299 644 q 471 744 390 744 l 539 744 l 539 572 l 471 572 q 375 557 413 572 q 319 508 338 542 q 300 418 300 475 l 300 0 l 92 0 m 88 1033 l 233 1033 l 342 882 l 300 882 l 408 1033 l 554 1033 l 421 821 l 221 821 l 88 1033 z "},"ŗ":{"ha":590,"x_min":81,"x_max":539,"o":"m 92 0 l 92 744 l 289 744 l 296 528 l 281 532 q 344 694 299 644 q 471 744 390 744 l 539 744 l 539 572 l 471 572 q 375 557 413 572 q 319 508 338 542 q 300 418 300 475 l 300 0 l 92 0 m 82 -351 l 154 -229 l 106 -229 l 106 -68 l 286 -68 l 286 -214 l 204 -351 l 82 -351 z "},"s":{"ha":793,"x_min":51,"x_max":743,"o":"m 410 -17 q 217 16 294 -17 q 98 105 139 49 q 51 235 57 161 l 263 242 q 307 160 272 189 q 410 131 342 131 q 497 149 465 131 q 528 204 528 167 q 517 244 528 228 q 473 272 506 260 q 376 293 440 283 q 192 342 258 314 q 97 414 125 369 q 69 522 69 458 q 152 695 69 629 q 400 761 235 761 q 577 728 506 761 q 688 637 649 694 q 738 506 728 579 l 528 497 q 506 559 524 533 q 463 599 489 585 q 399 614 436 614 q 313 591 343 614 q 283 531 283 568 q 297 485 283 503 q 340 457 310 468 q 422 439 371 446 q 612 392 542 422 q 713 318 682 363 q 743 208 743 274 q 701 86 743 136 q 585 10 660 36 q 410 -17 511 -17 z "},"ś":{"ha":793,"x_min":51,"x_max":743,"o":"m 410 -17 q 217 16 294 -17 q 98 105 139 49 q 51 235 57 161 l 263 242 q 307 160 272 189 q 410 131 342 131 q 497 149 465 131 q 528 204 528 167 q 517 244 528 228 q 473 272 506 260 q 376 293 440 283 q 192 342 258 314 q 97 414 125 369 q 69 522 69 458 q 152 695 69 629 q 400 761 235 761 q 577 728 506 761 q 688 637 649 694 q 738 506 728 579 l 528 497 q 506 559 524 533 q 463 599 489 585 q 399 614 436 614 q 313 591 343 614 q 283 531 283 568 q 297 485 283 503 q 340 457 310 468 q 422 439 371 446 q 612 392 542 422 q 713 318 682 363 q 743 208 743 274 q 701 86 743 136 q 585 10 660 36 q 410 -17 511 -17 m 304 821 l 386 1026 l 588 1026 l 463 821 l 304 821 z "},"š":{"ha":793,"x_min":51,"x_max":743,"o":"m 410 -17 q 217 16 294 -17 q 98 105 139 49 q 51 235 57 161 l 263 242 q 307 160 272 189 q 410 131 342 131 q 497 149 465 131 q 528 204 528 167 q 517 244 528 228 q 473 272 506 260 q 376 293 440 283 q 192 342 258 314 q 97 414 125 369 q 69 522 69 458 q 152 695 69 629 q 400 761 235 761 q 577 728 506 761 q 688 637 649 694 q 738 506 728 579 l 528 497 q 506 559 524 533 q 463 599 489 585 q 399 614 436 614 q 313 591 343 614 q 283 531 283 568 q 297 485 283 503 q 340 457 310 468 q 422 439 371 446 q 612 392 542 422 q 713 318 682 363 q 743 208 743 274 q 701 86 743 136 q 585 10 660 36 q 410 -17 511 -17 m 165 1033 l 311 1033 l 419 882 l 378 882 l 486 1033 l 632 1033 l 499 821 l 299 821 l 165 1033 z "},"ş":{"ha":793,"x_min":51,"x_max":743,"o":"m 410 -17 q 217 16 294 -17 q 98 105 139 49 q 51 235 57 161 l 263 242 q 307 160 272 189 q 410 131 342 131 q 497 149 465 131 q 528 204 528 167 q 517 244 528 228 q 473 272 506 260 q 376 293 440 283 q 192 342 258 314 q 97 414 125 369 q 69 522 69 458 q 152 695 69 629 q 400 761 235 761 q 577 728 506 761 q 688 637 649 694 q 738 506 728 579 l 528 497 q 506 559 524 533 q 463 599 489 585 q 399 614 436 614 q 313 591 343 614 q 283 531 283 568 q 297 485 283 503 q 340 457 310 468 q 422 439 371 446 q 612 392 542 422 q 713 318 682 363 q 743 208 743 274 q 701 86 743 136 q 585 10 660 36 q 410 -17 511 -17 m 397 -322 q 283 -290 328 -322 q 219 -207 238 -258 l 311 -168 q 342 -208 322 -194 q 393 -221 361 -221 q 442 -208 424 -221 q 460 -171 460 -194 q 442 -131 460 -146 q 369 -117 425 -117 l 313 -62 l 358 14 l 478 14 l 440 -43 q 542 -87 510 -50 q 574 -175 574 -124 q 549 -258 574 -225 q 486 -306 525 -290 q 397 -322 447 -322 z "},"ŝ":{"ha":793,"x_min":51,"x_max":743,"o":"m 410 -17 q 217 16 294 -17 q 98 105 139 49 q 51 235 57 161 l 263 242 q 307 160 272 189 q 410 131 342 131 q 497 149 465 131 q 528 204 528 167 q 517 244 528 228 q 473 272 506 260 q 376 293 440 283 q 192 342 258 314 q 97 414 125 369 q 69 522 69 458 q 152 695 69 629 q 400 761 235 761 q 577 728 506 761 q 688 637 649 694 q 738 506 728 579 l 528 497 q 506 559 524 533 q 463 599 489 585 q 399 614 436 614 q 313 591 343 614 q 283 531 283 568 q 297 485 283 503 q 340 457 310 468 q 422 439 371 446 q 612 392 542 422 q 713 318 682 363 q 743 208 743 274 q 701 86 743 136 q 585 10 660 36 q 410 -17 511 -17 m 165 821 l 299 1033 l 499 1033 l 632 821 l 486 821 l 378 974 l 419 974 l 311 821 l 165 821 z "},"ș":{"ha":793,"x_min":51,"x_max":743,"o":"m 410 -17 q 217 16 294 -17 q 98 105 139 49 q 51 235 57 161 l 263 242 q 307 160 272 189 q 410 131 342 131 q 497 149 465 131 q 528 204 528 167 q 517 244 528 228 q 473 272 506 260 q 376 293 440 283 q 192 342 258 314 q 97 414 125 369 q 69 522 69 458 q 152 695 69 629 q 400 761 235 761 q 577 728 506 761 q 688 637 649 694 q 738 506 728 579 l 528 497 q 506 559 524 533 q 463 599 489 585 q 399 614 436 614 q 313 591 343 614 q 283 531 283 568 q 297 485 283 503 q 340 457 310 468 q 422 439 371 446 q 612 392 542 422 q 713 318 682 363 q 743 208 743 274 q 701 86 743 136 q 585 10 660 36 q 410 -17 511 -17 m 292 -351 l 364 -229 l 315 -229 l 315 -68 l 496 -68 l 496 -214 l 414 -351 l 292 -351 z "},"ß":{"ha":911,"x_min":92,"x_max":867,"o":"m 92 0 l 92 643 q 135 837 92 757 q 263 958 179 917 q 464 1000 347 1000 q 717 928 628 1000 q 806 733 806 857 q 738 576 806 636 q 554 508 669 517 l 553 532 q 718 495 647 528 q 828 406 789 463 q 867 274 867 349 q 766 72 867 144 q 479 0 665 0 l 388 0 l 388 175 l 476 175 q 608 206 563 175 q 653 300 653 236 q 633 371 653 342 q 571 415 613 400 q 467 429 529 429 l 400 429 l 400 599 l 457 599 q 558 629 519 599 q 596 714 596 660 q 563 794 596 764 q 464 825 529 825 q 344 776 388 825 q 300 643 300 728 l 300 0 l 92 0 z "},"t":{"ha":618,"x_min":57,"x_max":581,"o":"m 400 0 q 231 53 285 0 q 176 224 176 107 l 176 919 l 385 919 l 385 249 q 408 175 385 194 q 476 156 431 156 l 581 156 l 581 0 l 400 0 m 57 589 l 57 744 l 581 744 l 581 589 l 57 589 z "},"ŧ":{"ha":618,"x_min":57,"x_max":581,"o":"m 400 0 q 231 53 285 0 q 176 224 176 107 l 176 919 l 385 919 l 385 249 q 408 175 385 194 q 476 156 431 156 l 581 156 l 581 0 l 400 0 m 57 589 l 57 744 l 581 744 l 581 589 l 57 589 m 63 332 l 63 453 l 560 453 l 560 332 l 63 332 z "},"ť":{"ha":625,"x_min":57,"x_max":656,"o":"m 449 775 l 489 1103 l 656 1103 l 581 775 l 449 775 m 400 0 q 231 53 285 0 q 176 224 176 107 l 176 919 l 385 919 l 385 249 q 408 175 385 194 q 476 156 431 156 l 581 156 l 581 0 l 400 0 m 57 589 l 57 744 l 581 744 l 581 589 l 57 589 z "},"ţ":{"ha":618,"x_min":57,"x_max":581,"o":"m 400 0 q 231 53 285 0 q 176 224 176 107 l 176 919 l 385 919 l 385 249 q 408 175 385 194 q 476 156 431 156 l 581 156 l 581 0 l 400 0 m 57 589 l 57 744 l 581 744 l 581 589 l 57 589 m 356 -322 q 241 -290 286 -322 q 178 -207 196 -258 l 269 -168 q 300 -208 281 -194 q 351 -221 319 -221 q 400 -208 382 -221 q 418 -171 418 -194 q 401 -131 418 -146 q 328 -117 383 -117 l 271 -62 l 317 14 l 436 14 l 399 -43 q 500 -87 468 -50 q 532 -175 532 -124 q 508 -258 532 -225 q 444 -306 483 -290 q 356 -322 406 -322 z "},"ț":{"ha":618,"x_min":57,"x_max":581,"o":"m 400 0 q 231 53 285 0 q 176 224 176 107 l 176 919 l 385 919 l 385 249 q 408 175 385 194 q 476 156 431 156 l 581 156 l 581 0 l 400 0 m 57 589 l 57 744 l 581 744 l 581 589 l 57 589 m 250 -351 l 322 -229 l 274 -229 l 274 -68 l 454 -68 l 454 -214 l 372 -351 l 250 -351 z "},"u":{"ha":843,"x_min":92,"x_max":753,"o":"m 336 -17 q 156 58 221 -17 q 92 265 92 132 l 92 744 l 300 744 l 300 314 q 326 188 300 228 q 410 149 353 149 q 509 192 474 149 q 544 324 544 236 l 544 744 l 753 744 l 753 0 l 563 0 l 557 214 l 583 208 q 504 40 567 97 q 336 -17 442 -17 z "},"ú":{"ha":843,"x_min":92,"x_max":753,"o":"m 336 -17 q 156 58 221 -17 q 92 265 92 132 l 92 744 l 300 744 l 300 314 q 326 188 300 228 q 410 149 353 149 q 509 192 474 149 q 544 324 544 236 l 544 744 l 753 744 l 753 0 l 563 0 l 557 214 l 583 208 q 504 40 567 97 q 336 -17 442 -17 m 324 821 l 406 1026 l 607 1026 l 482 821 l 324 821 z "},"ŭ":{"ha":843,"x_min":92,"x_max":753,"o":"m 336 -17 q 156 58 221 -17 q 92 265 92 132 l 92 744 l 300 744 l 300 314 q 326 188 300 228 q 410 149 353 149 q 509 192 474 149 q 544 324 544 236 l 544 744 l 753 744 l 753 0 l 563 0 l 557 214 l 583 208 q 504 40 567 97 q 336 -17 442 -17 m 419 822 q 264 876 322 822 q 201 1026 206 929 l 322 1026 q 352 958 326 979 q 419 936 378 936 q 486 958 461 936 q 515 1026 511 979 l 636 1026 q 574 876 632 929 q 419 822 515 822 z "},"û":{"ha":843,"x_min":92,"x_max":753,"o":"m 336 -17 q 156 58 221 -17 q 92 265 92 132 l 92 744 l 300 744 l 300 314 q 326 188 300 228 q 410 149 353 149 q 509 192 474 149 q 544 324 544 236 l 544 744 l 753 744 l 753 0 l 563 0 l 557 214 l 583 208 q 504 40 567 97 q 336 -17 442 -17 m 185 821 l 318 1033 l 518 1033 l 651 821 l 506 821 l 397 974 l 439 974 l 331 821 l 185 821 z "},"ü":{"ha":843,"x_min":92,"x_max":753,"o":"m 336 -17 q 156 58 221 -17 q 92 265 92 132 l 92 744 l 300 744 l 300 314 q 326 188 300 228 q 410 149 353 149 q 509 192 474 149 q 544 324 544 236 l 544 744 l 753 744 l 753 0 l 563 0 l 557 214 l 583 208 q 504 40 567 97 q 336 -17 442 -17 m 171 832 l 171 1000 l 369 1000 l 369 832 l 171 832 m 469 832 l 469 1000 l 668 1000 l 668 832 l 469 832 z "},"ù":{"ha":843,"x_min":92,"x_max":753,"o":"m 336 -17 q 156 58 221 -17 q 92 265 92 132 l 92 744 l 300 744 l 300 314 q 326 188 300 228 q 410 149 353 149 q 509 192 474 149 q 544 324 544 236 l 544 744 l 753 744 l 753 0 l 563 0 l 557 214 l 583 208 q 504 40 567 97 q 336 -17 442 -17 m 353 831 l 228 1035 l 429 1035 l 511 831 l 353 831 z "},"ű":{"ha":843,"x_min":92,"x_max":753,"o":"m 336 -17 q 156 58 221 -17 q 92 265 92 132 l 92 744 l 300 744 l 300 314 q 326 188 300 228 q 410 149 353 149 q 509 192 474 149 q 544 324 544 236 l 544 744 l 753 744 l 753 0 l 563 0 l 557 214 l 583 208 q 504 40 567 97 q 336 -17 442 -17 m 217 821 l 299 1026 l 500 1026 l 375 821 l 217 821 m 463 821 l 544 1026 l 746 1026 l 621 821 l 463 821 z "},"ū":{"ha":843,"x_min":92,"x_max":753,"o":"m 336 -17 q 156 58 221 -17 q 92 265 92 132 l 92 744 l 300 744 l 300 314 q 326 188 300 228 q 410 149 353 149 q 509 192 474 149 q 544 324 544 236 l 544 744 l 753 744 l 753 0 l 563 0 l 557 214 l 583 208 q 504 40 567 97 q 336 -17 442 -17 m 211 843 l 211 996 l 626 996 l 626 843 l 211 843 z "},"ų":{"ha":843,"x_min":92,"x_max":804,"o":"m 336 -17 q 156 58 221 -17 q 92 265 92 132 l 92 744 l 300 744 l 300 314 q 326 188 300 228 q 410 149 353 149 q 509 192 474 149 q 544 324 544 236 l 544 744 l 753 744 l 753 0 l 563 0 l 557 214 l 583 208 q 504 40 567 97 q 336 -17 442 -17 m 656 -301 q 540 -271 581 -301 q 499 -183 499 -240 q 520 -101 499 -140 q 568 -28 542 -61 l 614 33 l 753 0 l 711 -56 q 678 -104 690 -83 q 667 -143 667 -125 q 677 -169 667 -160 q 703 -178 688 -178 q 738 -172 721 -178 q 765 -160 754 -167 l 804 -265 q 742 -291 785 -281 q 656 -301 700 -301 z "},"ů":{"ha":843,"x_min":92,"x_max":753,"o":"m 336 -17 q 156 58 221 -17 q 92 265 92 132 l 92 744 l 300 744 l 300 314 q 326 188 300 228 q 410 149 353 149 q 509 192 474 149 q 544 324 544 236 l 544 744 l 753 744 l 753 0 l 563 0 l 557 214 l 583 208 q 504 40 567 97 q 336 -17 442 -17 m 419 799 q 317 839 358 799 q 276 939 276 879 q 317 1040 276 1000 q 419 1081 358 1081 q 520 1040 479 1081 q 561 940 561 1000 q 520 839 561 879 q 419 799 479 799 m 419 888 q 456 902 442 888 q 471 939 471 917 q 456 976 471 961 q 419 992 442 992 q 382 976 397 992 q 367 939 367 961 q 382 902 367 917 q 419 888 397 888 z "},"ũ":{"ha":843,"x_min":92,"x_max":753,"o":"m 336 -17 q 156 58 221 -17 q 92 265 92 132 l 92 744 l 300 744 l 300 314 q 326 188 300 228 q 410 149 353 149 q 509 192 474 149 q 544 324 544 236 l 544 744 l 753 744 l 753 0 l 563 0 l 557 214 l 583 208 q 504 40 567 97 q 336 -17 442 -17 m 489 833 q 433 843 457 833 q 383 875 410 853 q 356 894 368 888 q 329 900 344 900 q 294 885 308 900 q 276 826 279 869 l 172 826 q 214 970 174 917 q 325 1024 254 1024 q 385 1014 358 1024 q 439 982 411 1004 q 467 963 456 969 q 492 957 479 957 q 528 973 514 957 q 544 1033 542 989 l 647 1033 q 605 888 646 942 q 489 833 564 833 z "},"v":{"ha":846,"x_min":29,"x_max":817,"o":"m 301 0 l 29 744 l 247 744 l 424 210 l 599 744 l 817 744 l 543 0 l 301 0 z "},"w":{"ha":1179,"x_min":29,"x_max":1150,"o":"m 250 0 l 29 744 l 239 744 l 367 240 l 504 744 l 674 744 l 811 240 l 940 744 l 1150 744 l 929 0 l 726 0 l 589 465 l 451 0 l 250 0 z "},"ẃ":{"ha":1179,"x_min":29,"x_max":1150,"o":"m 250 0 l 29 744 l 239 744 l 367 240 l 504 744 l 674 744 l 811 240 l 940 744 l 1150 744 l 929 0 l 726 0 l 589 465 l 451 0 l 250 0 m 496 821 l 578 1026 l 779 1026 l 654 821 l 496 821 z "},"ŵ":{"ha":1179,"x_min":29,"x_max":1150,"o":"m 250 0 l 29 744 l 239 744 l 367 240 l 504 744 l 674 744 l 811 240 l 940 744 l 1150 744 l 929 0 l 726 0 l 589 465 l 451 0 l 250 0 m 357 821 l 490 1033 l 690 1033 l 824 821 l 678 821 l 569 974 l 611 974 l 503 821 l 357 821 z "},"ẅ":{"ha":1179,"x_min":29,"x_max":1150,"o":"m 250 0 l 29 744 l 239 744 l 367 240 l 504 744 l 674 744 l 811 240 l 940 744 l 1150 744 l 929 0 l 726 0 l 589 465 l 451 0 l 250 0 m 342 832 l 342 1000 l 540 1000 l 540 832 l 342 832 m 640 832 l 640 1000 l 839 1000 l 839 832 l 640 832 z "},"ẁ":{"ha":1179,"x_min":29,"x_max":1150,"o":"m 250 0 l 29 744 l 239 744 l 367 240 l 504 744 l 674 744 l 811 240 l 940 744 l 1150 744 l 929 0 l 726 0 l 589 465 l 451 0 l 250 0 m 524 831 l 399 1035 l 600 1035 l 682 831 l 524 831 z "},"x":{"ha":903,"x_min":64,"x_max":839,"o":"m 64 0 l 329 378 l 71 744 l 292 744 l 451 506 l 606 744 l 832 744 l 575 376 l 839 0 l 618 0 l 454 253 l 289 0 l 64 0 z "},"y":{"ha":814,"x_min":29,"x_max":785,"o":"m 153 -208 l 153 -53 l 251 -53 q 305 -42 288 -53 q 332 -6 322 -32 l 347 38 l 290 38 l 29 744 l 242 744 l 413 232 l 572 744 l 785 744 l 499 -71 q 426 -176 474 -144 q 294 -208 379 -208 l 153 -208 z "},"ý":{"ha":814,"x_min":29,"x_max":785,"o":"m 153 -208 l 153 -53 l 251 -53 q 305 -42 288 -53 q 332 -6 322 -32 l 347 38 l 290 38 l 29 744 l 242 744 l 413 232 l 572 744 l 785 744 l 499 -71 q 426 -176 474 -144 q 294 -208 379 -208 l 153 -208 m 314 821 l 396 1026 l 597 1026 l 472 821 l 314 821 z "},"ŷ":{"ha":814,"x_min":29,"x_max":785,"o":"m 153 -208 l 153 -53 l 251 -53 q 305 -42 288 -53 q 332 -6 322 -32 l 347 38 l 290 38 l 29 744 l 242 744 l 413 232 l 572 744 l 785 744 l 499 -71 q 426 -176 474 -144 q 294 -208 379 -208 l 153 -208 m 175 821 l 308 1033 l 508 1033 l 642 821 l 496 821 l 388 974 l 429 974 l 321 821 l 175 821 z "},"ÿ":{"ha":814,"x_min":29,"x_max":785,"o":"m 153 -208 l 153 -53 l 251 -53 q 305 -42 288 -53 q 332 -6 322 -32 l 347 38 l 290 38 l 29 744 l 242 744 l 413 232 l 572 744 l 785 744 l 499 -71 q 426 -176 474 -144 q 294 -208 379 -208 l 153 -208 m 160 832 l 160 1000 l 358 1000 l 358 832 l 160 832 m 458 832 l 458 1000 l 657 1000 l 657 832 l 458 832 z "},"ỳ":{"ha":814,"x_min":29,"x_max":785,"o":"m 153 -208 l 153 -53 l 251 -53 q 305 -42 288 -53 q 332 -6 322 -32 l 347 38 l 290 38 l 29 744 l 242 744 l 413 232 l 572 744 l 785 744 l 499 -71 q 426 -176 474 -144 q 294 -208 379 -208 l 153 -208 m 343 831 l 218 1035 l 419 1035 l 501 831 l 343 831 z "},"ỹ":{"ha":814,"x_min":29,"x_max":785,"o":"m 153 -208 l 153 -53 l 251 -53 q 305 -42 288 -53 q 332 -6 322 -32 l 347 38 l 290 38 l 29 744 l 242 744 l 413 232 l 572 744 l 785 744 l 499 -71 q 426 -176 474 -144 q 294 -208 379 -208 l 153 -208 m 488 833 q 432 843 456 833 q 382 875 408 853 q 355 894 367 888 q 328 900 343 900 q 292 885 307 900 q 275 826 278 869 l 171 826 q 213 970 172 917 q 324 1024 253 1024 q 383 1014 357 1024 q 438 982 410 1004 q 466 963 454 969 q 490 957 478 957 q 526 973 513 957 q 543 1033 540 989 l 646 1033 q 603 888 644 942 q 488 833 563 833 z "},"z":{"ha":826,"x_min":78,"x_max":749,"o":"m 78 0 l 78 164 l 488 589 l 94 589 l 94 744 l 738 744 l 738 581 l 321 156 l 749 156 l 749 0 l 78 0 z "},"ź":{"ha":826,"x_min":78,"x_max":749,"o":"m 78 0 l 78 164 l 488 589 l 94 589 l 94 744 l 738 744 l 738 581 l 321 156 l 749 156 l 749 0 l 78 0 m 324 821 l 406 1026 l 607 1026 l 482 821 l 324 821 z "},"ž":{"ha":826,"x_min":78,"x_max":749,"o":"m 78 0 l 78 164 l 488 589 l 94 589 l 94 744 l 738 744 l 738 581 l 321 156 l 749 156 l 749 0 l 78 0 m 185 1033 l 331 1033 l 439 882 l 397 882 l 506 1033 l 651 1033 l 518 821 l 318 821 l 185 1033 z "},"ż":{"ha":826,"x_min":78,"x_max":749,"o":"m 78 0 l 78 164 l 488 589 l 94 589 l 94 744 l 738 744 l 738 581 l 321 156 l 749 156 l 749 0 l 78 0 m 310 836 l 310 1003 l 525 1003 l 525 836 l 310 836 z "},"ꞌ":{"ha":369,"x_min":92,"x_max":278,"o":"m 110 486 l 92 847 l 92 986 l 278 986 l 278 847 l 260 486 l 110 486 z "},"ﬁ":{"ha":993,"x_min":64,"x_max":906,"o":"m 172 0 l 172 754 q 232 926 172 865 q 418 986 292 986 l 576 986 l 576 831 l 463 831 q 400 809 419 831 q 381 744 381 788 l 381 0 l 172 0 m 64 561 l 64 717 l 565 717 l 565 561 l 64 561 m 694 0 l 694 744 l 903 744 l 903 0 l 694 0 m 690 836 l 690 1003 l 906 1003 l 906 836 l 690 836 z "},"ﬂ":{"ha":1033,"x_min":64,"x_max":1008,"o":"m 172 0 l 172 754 q 232 926 172 865 q 418 986 292 986 l 576 986 l 576 831 l 463 831 q 400 809 419 831 q 381 744 381 788 l 381 0 l 172 0 m 64 561 l 64 717 l 565 717 l 565 561 l 64 561 m 885 0 q 742 46 793 0 q 690 194 690 92 l 690 986 l 899 986 l 899 217 q 914 169 899 183 q 958 156 929 156 l 1008 156 l 1008 0 l 885 0 z "},"ª":{"ha":600,"x_min":56,"x_max":558,"o":"m 229 522 q 103 556 150 522 q 56 649 56 589 q 97 745 56 713 q 219 794 139 778 l 364 824 q 346 885 364 865 q 296 906 328 906 q 245 891 264 906 q 221 844 226 876 l 64 850 q 136 969 78 931 q 296 1008 194 1008 q 465 958 410 1008 q 521 813 521 908 l 521 663 q 528 635 521 642 q 547 628 535 628 l 558 628 l 558 528 q 535 524 551 526 q 497 522 518 522 q 447 531 472 522 q 404 565 421 540 q 388 636 388 590 l 399 626 q 344 551 386 581 q 229 522 301 522 m 267 618 q 336 643 308 618 q 364 714 364 668 l 364 736 l 274 715 q 232 695 247 708 q 217 663 217 682 q 228 630 217 642 q 267 618 240 618 z "},"º":{"ha":619,"x_min":56,"x_max":564,"o":"m 310 522 q 124 589 193 522 q 56 765 56 656 q 124 942 56 875 q 310 1008 192 1008 q 496 942 428 1008 q 564 765 564 875 q 495 589 564 656 q 310 522 426 522 m 310 633 q 379 667 356 633 q 403 765 403 700 q 379 863 403 829 q 310 897 356 897 q 240 863 264 897 q 217 765 217 828 q 240 667 217 701 q 310 633 264 633 z "},"А":{"ha":1014,"x_min":26,"x_max":988,"o":"m 26 0 l 382 986 l 632 986 l 988 0 l 768 0 l 696 210 l 317 210 l 244 0 l 26 0 m 376 383 l 638 383 l 507 764 l 376 383 z "},"Б":{"ha":947,"x_min":103,"x_max":876,"o":"m 103 0 l 103 986 l 314 986 l 314 626 l 497 626 q 776 543 675 626 q 876 313 876 460 q 776 84 876 168 q 497 0 675 0 l 103 0 m 314 178 l 485 178 q 615 212 571 178 q 660 313 660 246 q 615 415 660 381 q 485 450 571 450 l 314 450 l 314 178 m 133 808 l 133 986 l 832 986 l 832 808 l 133 808 z "},"В":{"ha":976,"x_min":103,"x_max":906,"o":"m 103 0 l 103 986 l 486 986 q 767 922 669 986 q 864 718 864 857 q 839 612 864 657 q 766 540 814 567 q 650 508 718 514 l 650 511 q 840 440 774 503 q 906 272 906 376 q 809 67 906 135 q 533 0 713 0 l 103 0 m 314 172 l 524 172 q 647 203 600 172 q 693 297 693 235 q 647 392 693 360 q 524 425 600 425 l 314 425 l 314 172 m 314 578 l 481 578 q 605 608 558 578 q 651 696 651 639 q 606 785 651 757 q 481 814 561 814 l 314 814 l 314 578 z "},"Г":{"ha":847,"x_min":103,"x_max":832,"o":"m 103 0 l 103 986 l 832 986 l 832 808 l 314 808 l 314 0 l 103 0 z "},"Ѓ":{"ha":847,"x_min":103,"x_max":832,"o":"m 103 0 l 103 986 l 832 986 l 832 808 l 314 808 l 314 0 l 103 0 m 372 1063 l 454 1268 l 656 1268 l 531 1063 l 372 1063 z "},"Ґ":{"ha":790,"x_min":103,"x_max":775,"o":"m 103 0 l 103 986 l 775 986 l 775 808 l 314 808 l 314 0 l 103 0 m 564 808 l 564 1201 l 775 1201 l 775 808 l 564 808 z "},"Ғ":{"ha":921,"x_min":75,"x_max":906,"o":"m 75 367 l 75 544 l 689 544 l 689 367 l 75 367 m 176 0 l 176 986 l 906 986 l 906 808 l 388 808 l 388 0 l 176 0 z "},"Д":{"ha":1189,"x_min":69,"x_max":1119,"o":"m 69 -208 l 69 178 l 113 178 q 201 224 168 178 q 244 361 233 271 l 317 986 l 997 986 l 997 178 l 1119 178 l 1119 -208 l 908 -208 l 908 0 l 282 0 l 282 -208 l 69 -208 m 403 178 l 786 178 l 786 808 l 511 808 l 458 347 q 438 250 451 292 q 403 178 425 208 z "},"Е":{"ha":864,"x_min":103,"x_max":800,"o":"m 103 0 l 103 986 l 789 986 l 789 808 l 314 808 l 314 582 l 772 582 l 772 407 l 314 407 l 314 178 l 800 178 l 800 0 l 103 0 z "},"Ѐ":{"ha":864,"x_min":103,"x_max":800,"o":"m 103 0 l 103 986 l 789 986 l 789 808 l 314 808 l 314 582 l 772 582 l 772 407 l 314 407 l 314 178 l 800 178 l 800 0 l 103 0 m 390 1072 l 265 1276 l 467 1276 l 549 1072 l 390 1072 z "},"Ё":{"ha":864,"x_min":103,"x_max":800,"o":"m 103 0 l 103 986 l 789 986 l 789 808 l 314 808 l 314 582 l 772 582 l 772 407 l 314 407 l 314 178 l 800 178 l 800 0 l 103 0 m 199 1074 l 199 1242 l 397 1242 l 397 1074 l 199 1074 m 497 1074 l 497 1242 l 696 1242 l 696 1074 l 497 1074 z "},"Ж":{"ha":1428,"x_min":17,"x_max":1411,"o":"m 17 0 l 385 493 l 31 986 l 294 986 l 649 493 l 281 0 l 17 0 m 608 0 l 608 986 l 819 986 l 819 0 l 608 0 m 1147 0 l 779 493 l 1133 986 l 1397 986 l 1042 493 l 1411 0 l 1147 0 z "},"З":{"ha":956,"x_min":64,"x_max":893,"o":"m 478 -22 q 267 17 358 -22 q 122 126 175 56 q 64 289 68 196 l 279 297 q 339 194 285 233 q 479 156 393 156 q 623 196 571 156 q 675 304 675 236 q 649 386 675 354 q 581 434 622 418 q 492 449 539 450 l 392 447 l 392 594 l 492 593 q 565 606 531 593 q 620 648 599 619 q 642 722 642 676 q 597 802 642 774 q 474 831 551 831 q 352 803 399 831 q 300 731 306 776 l 86 740 q 148 881 96 821 q 285 975 200 942 q 478 1008 369 1008 q 678 976 593 1008 q 812 887 764 944 q 860 751 860 829 q 824 635 860 683 q 722 558 789 586 q 558 522 654 529 l 561 543 q 741 502 667 536 q 854 409 815 468 q 893 271 893 350 q 841 117 893 183 q 696 15 789 51 q 478 -22 603 -22 z "},"И":{"ha":1039,"x_min":100,"x_max":936,"o":"m 936 0 l 725 0 l 725 657 l 336 0 l 100 0 l 100 986 l 311 986 l 311 306 l 704 986 l 936 986 l 936 0 z "},"Й":{"ha":1039,"x_min":100,"x_max":936,"o":"m 936 0 l 725 0 l 725 657 l 336 0 l 100 0 l 100 986 l 311 986 l 311 306 l 704 986 l 936 986 l 936 0 m 515 1072 q 360 1126 419 1072 q 297 1276 301 1179 l 418 1276 q 449 1208 424 1229 q 515 1186 474 1186 q 582 1208 557 1186 q 613 1276 607 1229 l 733 1276 q 671 1126 729 1179 q 515 1072 613 1072 z "},"Ѝ":{"ha":1039,"x_min":100,"x_max":936,"o":"m 936 0 l 725 0 l 725 657 l 336 0 l 100 0 l 100 986 l 311 986 l 311 306 l 704 986 l 936 986 l 936 0 m 443 1072 l 318 1276 l 521 1276 l 603 1072 l 443 1072 z "},"К":{"ha":954,"x_min":103,"x_max":938,"o":"m 693 0 l 304 493 l 544 493 l 938 0 l 693 0 m 103 0 l 103 986 l 314 986 l 314 0 l 103 0 m 304 493 l 682 986 l 924 986 l 544 493 l 304 493 z "},"Ќ":{"ha":954,"x_min":103,"x_max":938,"o":"m 693 0 l 304 493 l 544 493 l 938 0 l 693 0 m 103 0 l 103 986 l 314 986 l 314 0 l 103 0 m 304 493 l 682 986 l 924 986 l 544 493 l 304 493 m 399 1063 l 481 1268 l 682 1268 l 557 1063 l 399 1063 z "},"Л":{"ha":1085,"x_min":68,"x_max":982,"o":"m 68 0 l 68 178 l 147 178 q 209 205 188 178 q 236 278 231 232 l 300 986 l 982 986 l 982 0 l 772 0 l 772 808 l 492 808 l 440 240 q 372 65 429 131 q 210 0 314 0 l 68 0 z "},"М":{"ha":1271,"x_min":103,"x_max":1168,"o":"m 103 0 l 103 986 l 385 986 l 636 268 l 886 986 l 1168 986 l 1168 0 l 957 0 l 957 639 l 725 3 l 544 3 l 314 639 l 314 0 l 103 0 z "},"Н":{"ha":1001,"x_min":103,"x_max":899,"o":"m 103 0 l 103 986 l 314 986 l 314 518 l 221 585 l 782 585 l 688 518 l 688 986 l 899 986 l 899 0 l 688 0 l 688 474 l 782 407 l 221 407 l 314 474 l 314 0 l 103 0 z "},"О":{"ha":1078,"x_min":58,"x_max":1019,"o":"m 539 -22 q 281 40 389 -22 q 116 218 174 103 q 58 492 58 333 q 116 766 58 650 q 281 945 174 882 q 539 1008 389 1008 q 797 945 689 1008 q 962 766 904 882 q 1019 492 1019 650 q 962 218 1019 333 q 797 40 904 103 q 539 -22 689 -22 m 538 156 q 680 195 621 156 q 770 310 739 235 q 801 492 801 385 q 770 674 801 599 q 680 790 739 750 q 538 831 621 831 q 397 790 456 831 q 308 674 339 750 q 276 492 276 599 q 308 310 276 385 q 398 195 339 235 q 538 156 457 156 z "},"П":{"ha":996,"x_min":103,"x_max":893,"o":"m 103 0 l 103 986 l 893 986 l 893 0 l 682 0 l 682 808 l 314 808 l 314 0 l 103 0 z "},"Р":{"ha":933,"x_min":103,"x_max":876,"o":"m 103 0 l 103 986 l 497 986 q 776 900 675 986 q 876 664 876 814 q 831 492 876 565 q 701 380 786 419 q 497 340 615 340 l 314 340 l 314 0 l 103 0 m 314 518 l 485 518 q 614 555 568 518 q 660 664 660 592 q 615 772 660 735 q 485 808 569 808 l 314 808 l 314 518 z "},"С":{"ha":1013,"x_min":60,"x_max":971,"o":"m 522 -22 q 283 39 388 -22 q 119 215 178 100 q 60 492 60 331 q 117 765 60 649 q 279 944 174 881 q 526 1008 385 1008 q 827 913 719 1008 q 965 642 935 818 l 746 633 q 674 778 729 726 q 526 831 618 831 q 392 789 447 831 q 307 671 336 747 q 278 492 278 594 q 308 312 278 388 q 393 196 338 236 q 525 156 449 156 q 680 212 625 156 q 749 368 735 268 l 969 360 q 893 154 950 239 q 744 24 836 69 q 522 -22 651 -22 z "},"Т":{"ha":863,"x_min":0,"x_max":803,"o":"m 294 0 l 294 808 l 0 808 l 0 986 l 803 986 l 803 808 l 507 808 l 507 0 l 294 0 z "},"У":{"ha":850,"x_min":26,"x_max":824,"o":"m 147 0 l 147 172 l 258 172 q 313 183 293 172 q 342 221 333 194 l 367 288 l 292 288 l 26 986 l 244 986 l 428 468 l 607 986 l 824 986 l 519 138 q 444 33 494 67 q 314 0 394 0 l 147 0 z "},"Ў":{"ha":850,"x_min":26,"x_max":824,"o":"m 147 0 l 147 172 l 258 172 q 313 183 293 172 q 342 221 333 194 l 367 288 l 292 288 l 26 986 l 244 986 l 428 468 l 607 986 l 824 986 l 519 138 q 444 33 494 67 q 314 0 394 0 l 147 0 m 425 1064 q 269 1117 328 1064 q 207 1268 211 1171 l 328 1268 q 358 1199 332 1221 q 425 1178 383 1178 q 492 1199 467 1178 q 521 1268 517 1221 l 642 1268 q 579 1117 638 1171 q 425 1064 521 1064 z "},"Ф":{"ha":1207,"x_min":58,"x_max":1149,"o":"m 601 101 q 317 151 439 101 q 126 288 194 200 q 58 493 58 376 q 126 699 58 611 q 317 835 194 786 q 601 885 439 885 q 888 835 765 885 q 1080 699 1011 786 q 1149 493 1149 611 q 1080 288 1149 376 q 888 151 1011 200 q 601 101 765 101 m 601 279 q 776 306 703 279 q 890 380 850 332 q 931 493 931 428 q 890 606 931 558 q 776 681 850 654 q 601 707 703 707 q 428 681 501 707 q 316 606 356 654 q 276 493 276 558 q 316 380 276 428 q 428 306 356 332 q 601 279 501 279 m 504 0 l 504 986 l 703 986 l 703 0 l 504 0 z "},"Х":{"ha":956,"x_min":17,"x_max":939,"o":"m 17 0 l 351 494 l 19 986 l 264 986 l 479 654 l 689 986 l 935 986 l 603 497 l 939 0 l 693 0 l 476 338 l 263 0 l 17 0 z "},"Ц":{"ha":1125,"x_min":103,"x_max":1050,"o":"m 839 -208 l 839 178 l 1050 178 l 1050 -208 l 839 -208 m 631 0 l 631 178 l 868 178 l 868 0 l 631 0 m 103 986 l 314 986 l 314 178 l 682 178 l 682 986 l 893 986 l 893 0 l 103 0 l 103 986 z "},"Ч":{"ha":933,"x_min":50,"x_max":831,"o":"m 619 0 l 619 519 l 658 572 q 617 447 656 503 q 513 361 578 392 q 365 331 449 331 q 133 412 217 331 q 50 632 50 493 l 50 986 l 261 986 l 261 683 q 301 551 261 597 q 421 504 342 504 q 526 526 482 504 q 595 588 571 547 q 619 683 619 628 l 619 986 l 831 986 l 831 0 l 619 0 z "},"Ш":{"ha":1344,"x_min":103,"x_max":1242,"o":"m 103 0 l 103 986 l 314 986 l 314 0 l 103 0 m 103 0 l 103 178 l 1242 178 l 1242 0 l 103 0 m 567 0 l 567 986 l 779 986 l 779 0 l 567 0 m 1031 0 l 1031 986 l 1242 986 l 1242 0 l 1031 0 z "},"Щ":{"ha":1471,"x_min":103,"x_max":1396,"o":"m 1185 -208 l 1185 178 l 1396 178 l 1396 -208 l 1185 -208 m 1069 0 l 1069 178 l 1306 178 l 1306 0 l 1069 0 m 103 0 l 103 986 l 314 986 l 314 0 l 103 0 m 103 0 l 103 178 l 1242 178 l 1242 0 l 103 0 m 567 0 l 567 986 l 779 986 l 779 0 l 567 0 m 1031 0 l 1031 986 l 1242 986 l 1242 0 l 1031 0 z "},"Џ":{"ha":996,"x_min":103,"x_max":893,"o":"m 393 -208 l 393 44 l 604 44 l 604 -208 l 393 -208 m 103 986 l 314 986 l 314 178 l 682 178 l 682 986 l 893 986 l 893 0 l 103 0 l 103 986 z "},"Ь":{"ha":947,"x_min":103,"x_max":876,"o":"m 103 986 l 314 986 l 314 646 l 497 646 q 701 606 615 646 q 831 494 786 567 q 876 322 876 422 q 776 86 876 172 q 497 0 675 0 l 103 0 l 103 986 m 314 468 l 314 178 l 485 178 q 615 215 569 178 q 660 322 660 251 q 614 431 660 394 q 485 468 568 468 l 314 468 z "},"Ы":{"ha":1288,"x_min":103,"x_max":1185,"o":"m 975 0 l 975 986 l 1185 986 l 1185 0 l 975 0 m 103 986 l 314 986 l 314 646 l 497 646 q 701 606 615 646 q 831 494 786 567 q 876 322 876 422 q 776 86 876 172 q 497 0 675 0 l 103 0 l 103 986 m 314 468 l 314 178 l 485 178 q 615 215 569 178 q 660 322 660 251 q 614 431 660 394 q 485 468 568 468 l 314 468 z "},"Ъ":{"ha":1049,"x_min":75,"x_max":993,"o":"m 75 808 l 75 986 l 365 986 l 365 808 l 75 808 m 219 986 l 431 986 l 431 646 l 614 646 q 817 606 732 646 q 947 494 901 567 q 993 322 993 422 q 892 86 993 172 q 614 0 792 0 l 219 0 l 219 986 m 431 468 l 431 178 l 601 178 q 731 215 685 178 q 776 322 776 251 q 731 431 776 394 q 601 468 685 468 l 431 468 z "},"Љ":{"ha":1574,"x_min":68,"x_max":1503,"o":"m 68 0 l 68 178 l 147 178 q 209 205 188 178 q 236 278 231 232 l 300 986 l 982 986 l 982 0 l 772 0 l 772 808 l 492 808 l 440 240 q 372 65 429 131 q 210 0 314 0 l 68 0 m 729 986 l 940 986 l 940 646 l 1125 646 q 1328 606 1243 646 q 1458 494 1413 567 q 1503 322 1503 422 q 1403 86 1503 172 q 1125 0 1303 0 l 729 0 l 729 986 m 940 468 l 940 178 l 1113 178 q 1241 215 1196 178 q 1286 322 1286 251 q 1240 431 1286 394 q 1113 468 1194 468 l 940 468 z "},"Њ":{"ha":1526,"x_min":103,"x_max":1456,"o":"m 103 0 l 103 986 l 314 986 l 314 0 l 103 0 m 258 468 l 258 646 l 743 646 l 743 468 l 258 468 m 682 986 l 893 986 l 893 646 l 1078 646 q 1281 606 1196 646 q 1410 494 1365 567 q 1456 322 1456 422 q 1356 86 1456 172 q 1078 0 1256 0 l 682 0 l 682 986 m 893 468 l 893 178 l 1065 178 q 1194 215 1149 178 q 1239 322 1239 251 q 1193 431 1239 394 q 1065 468 1147 468 l 893 468 z "},"Ѕ":{"ha":946,"x_min":72,"x_max":874,"o":"m 493 -22 q 274 21 365 -22 q 131 142 182 64 q 72 325 79 219 l 285 335 q 319 235 293 276 q 388 174 344 194 q 496 153 432 153 q 585 165 549 153 q 642 203 622 178 q 661 267 661 229 q 644 327 661 301 q 581 374 628 353 q 442 417 533 396 q 238 482 315 446 q 126 573 161 518 q 92 711 92 628 q 135 867 92 800 q 263 971 179 933 q 461 1008 346 1008 q 668 965 583 1008 q 801 847 753 922 q 858 675 849 772 l 647 664 q 619 753 643 715 q 556 813 596 792 q 458 833 515 833 q 345 801 386 833 q 304 718 304 769 q 323 658 304 682 q 385 615 342 633 q 510 581 429 597 q 727 510 647 553 q 840 410 807 468 q 874 276 874 351 q 827 117 874 185 q 695 14 781 50 q 493 -22 610 -22 z "},"Є":{"ha":1060,"x_min":53,"x_max":1000,"o":"m 533 -22 q 276 40 383 -22 q 110 218 168 103 q 53 492 53 333 q 110 767 53 651 q 276 946 168 883 q 533 1008 383 1008 q 757 963 660 1008 q 916 834 854 918 q 1000 631 978 750 l 776 631 q 726 739 760 694 q 644 807 693 783 q 533 831 596 831 q 391 790 450 831 q 301 674 332 750 q 269 492 269 599 q 301 311 269 388 q 391 195 332 235 q 533 156 450 156 q 689 207 626 156 q 776 353 751 258 l 1000 353 q 915 152 976 236 q 756 23 853 68 q 533 -22 660 -22 m 593 411 l 172 411 l 172 574 l 593 574 l 593 411 z "},"Э":{"ha":1064,"x_min":58,"x_max":1006,"o":"m 525 -22 q 302 23 399 -22 q 144 152 206 68 q 58 353 82 236 l 282 353 q 369 207 307 258 q 525 156 432 156 q 667 195 608 156 q 758 311 726 235 q 789 492 789 388 q 758 674 789 599 q 667 790 726 750 q 525 831 608 831 q 415 807 464 831 q 333 739 365 783 q 282 631 300 694 l 58 631 q 143 834 82 750 q 301 963 204 918 q 525 1008 399 1008 q 783 946 676 1008 q 948 767 890 883 q 1006 492 1006 651 q 948 218 1006 333 q 783 40 890 103 q 525 -22 676 -22 m 465 411 l 465 574 l 886 574 l 886 411 l 465 411 z "},"І":{"ha":422,"x_min":108,"x_max":319,"o":"m 108 0 l 108 986 l 319 986 l 319 0 l 108 0 z "},"Ї":{"ha":417,"x_min":-50,"x_max":447,"o":"m 100 0 l 100 986 l 311 986 l 311 0 l 100 0 m -50 1082 l -50 1250 l 149 1250 l 149 1082 l -50 1082 m 249 1082 l 249 1250 l 447 1250 l 447 1082 l 249 1082 z "},"Ј":{"ha":871,"x_min":68,"x_max":789,"o":"m 429 -22 q 234 26 314 -22 q 112 159 154 75 q 68 351 69 243 l 281 361 q 321 206 282 256 q 429 156 360 156 q 539 204 500 156 q 578 354 578 253 l 578 986 l 789 986 l 789 354 q 744 154 789 239 q 618 24 699 69 q 429 -22 538 -22 z "},"Ћ":{"ha":1090,"x_min":15,"x_max":1040,"o":"m 15 808 l 15 986 l 751 986 l 751 808 l 15 808 m 471 986 l 471 467 l 432 414 q 473 540 435 485 q 577 625 511 594 q 724 656 643 656 q 957 574 874 656 q 1040 354 1040 493 l 1040 0 l 829 0 l 829 303 q 789 436 829 390 q 669 482 749 482 q 565 460 610 482 q 495 399 519 439 q 471 303 471 358 l 471 0 l 260 0 l 260 986 l 471 986 z "},"Ю":{"ha":1464,"x_min":103,"x_max":1406,"o":"m 103 0 l 103 986 l 314 986 l 314 0 l 103 0 m 279 404 l 279 582 l 542 582 l 542 404 l 279 404 m 925 -22 q 667 40 775 -22 q 502 218 560 103 q 444 492 444 333 q 502 766 444 650 q 667 945 560 882 q 925 1008 775 1008 q 1183 945 1075 1008 q 1348 766 1290 882 q 1406 492 1406 650 q 1348 218 1406 333 q 1183 40 1290 103 q 925 -22 1075 -22 m 925 156 q 1066 195 1007 156 q 1156 310 1125 235 q 1188 492 1188 385 q 1156 674 1188 599 q 1066 790 1125 750 q 925 831 1007 831 q 784 790 843 831 q 694 674 725 750 q 663 492 663 599 q 694 310 663 385 q 784 195 725 235 q 925 156 843 156 z "},"Я":{"ha":985,"x_min":71,"x_max":882,"o":"m 882 0 l 671 0 l 671 363 l 503 363 q 496 363 499 363 q 490 363 493 363 l 299 0 l 71 0 l 290 400 q 154 506 200 432 q 108 674 108 579 q 207 904 108 822 q 486 986 306 986 l 882 986 l 882 0 m 671 538 l 671 808 l 499 808 q 372 774 419 808 q 324 672 324 740 q 372 572 324 606 q 499 538 419 538 l 671 538 z "},"Ђ":{"ha":1096,"x_min":15,"x_max":1040,"o":"m 260 0 l 260 986 l 471 986 l 471 467 l 432 414 q 472 538 435 483 q 574 624 508 593 q 719 656 639 656 q 888 616 817 656 q 1000 505 960 576 q 1040 338 1040 433 q 990 158 1040 233 q 849 41 940 82 q 633 0 758 0 l 633 178 q 776 219 725 178 q 826 332 826 261 q 783 441 826 400 q 667 482 740 482 q 563 459 607 482 q 494 394 518 436 q 471 294 471 351 l 471 0 l 260 0 m 15 808 l 15 986 l 751 986 l 751 808 l 15 808 z "},"Ѣ":{"ha":1039,"x_min":61,"x_max":968,"o":"m 61 736 l 61 860 l 540 860 l 540 736 l 61 736 m 194 986 l 406 986 l 406 646 l 590 646 q 793 606 708 646 q 923 494 878 567 q 968 322 968 422 q 868 86 968 172 q 590 0 768 0 l 194 0 l 194 986 m 406 468 l 406 178 l 578 178 q 706 215 661 178 q 751 322 751 251 q 706 431 751 394 q 578 468 660 468 l 406 468 z "},"Ѫ":{"ha":1036,"x_min":17,"x_max":1019,"o":"m 17 0 l 138 358 q 222 492 165 449 q 357 535 278 535 l 678 535 q 814 492 758 535 q 897 358 869 449 l 1019 0 l 807 0 l 717 285 q 681 349 703 335 q 621 363 660 363 l 415 363 q 354 349 376 363 q 318 285 332 335 l 229 0 l 17 0 m 418 0 l 418 535 l 619 535 l 619 0 l 418 0 m 419 394 l 115 808 l 328 808 l 631 394 l 419 394 m 407 394 l 710 808 l 921 808 l 618 394 l 407 394 m 115 808 l 115 986 l 921 986 l 921 808 l 115 808 z "},"Ѳ":{"ha":1078,"x_min":58,"x_max":1019,"o":"m 201 376 l 188 574 q 260 606 229 594 q 311 618 292 617 q 409 619 353 626 q 515 592 465 611 q 595 565 561 575 q 655 549 629 554 q 702 542 681 543 q 742 546 724 542 q 801 565 772 550 q 857 603 831 579 l 869 413 q 818 384 843 394 q 772 369 793 374 q 710 368 746 365 q 628 382 675 371 q 518 414 582 393 q 420 441 468 433 q 342 444 372 449 q 269 421 306 439 q 201 376 232 403 m 539 -22 q 281 40 389 -22 q 116 218 174 103 q 58 492 58 333 q 116 766 58 650 q 281 945 174 882 q 539 1008 389 1008 q 797 945 689 1008 q 962 766 904 882 q 1019 492 1019 650 q 962 218 1019 333 q 797 40 904 103 q 539 -22 689 -22 m 539 156 q 680 195 621 156 q 770 310 739 235 q 801 492 801 385 q 770 674 801 599 q 680 790 739 750 q 539 831 621 831 q 397 790 456 831 q 308 674 339 750 q 276 492 276 599 q 308 310 276 385 q 397 195 339 235 q 539 156 456 156 z "},"Ѵ":{"ha":1074,"x_min":26,"x_max":1047,"o":"m 383 0 l 26 986 l 244 986 l 507 239 l 694 775 q 803 931 729 875 q 979 986 878 986 l 1047 986 l 1047 808 l 1028 808 q 938 783 971 808 q 881 694 904 757 l 631 0 l 383 0 z "},"Җ":{"ha":1501,"x_min":17,"x_max":1492,"o":"m 1281 -208 l 1281 131 l 1492 131 l 1492 -208 l 1281 -208 m 17 0 l 385 493 l 31 986 l 294 986 l 649 493 l 281 0 l 17 0 m 608 0 l 608 986 l 819 986 l 819 0 l 608 0 m 1147 0 l 779 493 l 1133 986 l 1397 986 l 1042 493 l 1411 0 l 1147 0 z "},"Қ":{"ha":1028,"x_min":103,"x_max":1011,"o":"m 800 -208 l 800 131 l 1011 131 l 1011 -208 l 800 -208 m 693 0 l 304 493 l 544 493 l 938 0 l 693 0 m 103 0 l 103 986 l 314 986 l 314 0 l 103 0 m 304 493 l 682 986 l 924 986 l 544 493 l 304 493 z "},"Ң":{"ha":1096,"x_min":103,"x_max":1021,"o":"m 810 -208 l 810 131 l 1021 131 l 1021 -208 l 810 -208 m 103 0 l 103 986 l 314 986 l 314 518 l 221 585 l 782 585 l 688 518 l 688 986 l 899 986 l 899 0 l 688 0 l 688 474 l 782 407 l 221 407 l 314 474 l 314 0 l 103 0 z "},"Ү":{"ha":876,"x_min":-10,"x_max":886,"o":"m 333 0 l 333 383 l -10 986 l 224 986 l 439 589 l 653 986 l 886 986 l 544 383 l 544 0 l 333 0 z "},"Ұ":{"ha":972,"x_min":-4,"x_max":893,"o":"m 169 258 l 169 435 l 808 435 l 808 258 l 169 258 m 339 0 l 339 383 l -4 986 l 229 986 l 444 589 l 660 986 l 893 986 l 550 383 l 550 0 l 339 0 z "},"Ҳ":{"ha":1049,"x_min":17,"x_max":1032,"o":"m 821 -208 l 821 131 l 1032 131 l 1032 -208 l 821 -208 m 17 0 l 351 494 l 19 986 l 264 986 l 479 654 l 689 986 l 935 986 l 603 497 l 939 0 l 693 0 l 476 338 l 263 0 l 17 0 z "},"Ҷ":{"ha":1029,"x_min":50,"x_max":954,"o":"m 743 -208 l 743 131 l 954 131 l 954 -208 l 743 -208 m 619 0 l 619 519 l 658 572 q 617 447 656 503 q 513 361 578 392 q 365 331 449 331 q 133 412 217 331 q 50 632 50 493 l 50 986 l 261 986 l 261 683 q 301 551 261 597 q 421 504 342 504 q 526 526 482 504 q 595 588 571 547 q 619 683 619 628 l 619 986 l 831 986 l 831 0 l 619 0 z "},"Һ":{"ha":933,"x_min":103,"x_max":883,"o":"m 314 986 l 314 467 l 275 414 q 316 540 278 485 q 420 625 354 594 q 567 656 486 656 q 800 574 717 656 q 883 354 883 493 l 883 0 l 672 0 l 672 303 q 632 436 672 390 q 513 482 592 482 q 408 460 453 482 q 338 399 363 439 q 314 303 314 358 l 314 0 l 103 0 l 103 986 l 314 986 z "},"Ӏ":{"ha":417,"x_min":103,"x_max":314,"o":"m 103 0 l 103 986 l 314 986 l 314 0 l 103 0 z "},"Ә":{"ha":1051,"x_min":58,"x_max":993,"o":"m 789 396 l 285 396 q 329 260 297 313 q 408 181 361 207 q 519 156 456 156 q 656 191 599 156 q 744 296 713 226 q 776 467 776 365 l 776 501 q 743 679 776 606 q 651 792 710 753 q 515 831 593 831 q 432 814 472 831 q 360 765 392 797 q 308 683 329 732 l 86 696 q 177 862 117 792 q 324 970 238 932 q 517 1008 410 1008 q 765 948 657 1008 q 933 772 872 888 q 993 493 993 657 q 956 269 993 365 q 853 109 918 174 q 701 11 788 44 q 517 -22 615 -22 q 344 10 426 -22 q 197 106 261 42 q 95 264 132 169 q 58 483 58 358 l 58 561 l 797 561 l 789 396 z "},"Ӣ":{"ha":1039,"x_min":100,"x_max":936,"o":"m 936 0 l 725 0 l 725 657 l 336 0 l 100 0 l 100 986 l 311 986 l 311 306 l 704 986 l 936 986 l 936 0 m 303 1085 l 303 1238 l 718 1238 l 718 1085 l 303 1085 z "},"Ө":{"ha":1078,"x_min":58,"x_max":1019,"o":"m 144 404 l 144 582 l 931 582 l 931 404 l 144 404 m 539 -22 q 281 40 389 -22 q 116 218 174 103 q 58 492 58 333 q 116 766 58 650 q 281 945 174 882 q 539 1008 389 1008 q 797 945 689 1008 q 962 766 904 882 q 1019 492 1019 650 q 962 218 1019 333 q 797 40 904 103 q 539 -22 689 -22 m 538 156 q 680 195 621 156 q 770 310 739 235 q 801 492 801 385 q 770 674 801 599 q 680 790 739 750 q 538 831 621 831 q 397 790 456 831 q 308 674 339 750 q 276 492 276 599 q 308 310 276 385 q 398 195 339 235 q 538 156 457 156 z "},"Ӯ":{"ha":850,"x_min":26,"x_max":824,"o":"m 147 0 l 147 172 l 258 172 q 313 183 293 172 q 342 221 333 194 l 367 288 l 292 288 l 26 986 l 244 986 l 428 468 l 607 986 l 824 986 l 519 138 q 444 33 494 67 q 314 0 394 0 l 147 0 m 219 1085 l 219 1238 l 635 1238 l 635 1085 l 219 1085 z "},"а":{"ha":825,"x_min":51,"x_max":807,"o":"m 313 -17 q 124 37 197 -17 q 51 186 51 90 q 113 338 51 285 q 296 417 175 392 l 536 464 q 503 573 536 536 q 410 610 471 610 q 317 583 350 610 q 274 503 283 556 l 64 513 q 174 698 85 635 q 410 761 264 761 q 660 682 576 761 q 744 450 744 603 l 744 196 q 755 153 744 164 q 786 143 765 143 l 807 143 l 807 0 q 776 -6 797 -3 q 733 -8 754 -8 q 651 7 689 -8 q 589 59 613 22 q 565 164 565 96 l 583 150 q 534 63 569 100 q 442 4 499 25 q 313 -17 386 -17 m 363 126 q 453 147 414 126 q 514 206 492 167 q 536 297 536 244 l 536 333 l 367 297 q 291 265 317 288 q 265 206 265 242 q 290 147 265 168 q 363 126 315 126 z "},"б":{"ha":888,"x_min":58,"x_max":829,"o":"m 447 -22 q 290 8 365 -22 q 156 106 214 38 q 83 245 108 160 q 58 440 58 331 q 85 666 58 574 q 167 819 111 758 q 313 919 224 881 q 383 960 358 940 q 417 1005 407 979 q 426 1067 426 1031 l 603 1068 q 566 910 603 974 q 440 803 529 846 q 350 755 389 779 q 285 697 311 731 q 248 611 260 663 q 240 481 236 560 l 199 483 q 253 590 215 546 q 345 656 290 633 q 465 679 400 679 q 658 635 576 679 q 784 514 739 592 q 829 331 829 436 q 781 144 829 224 q 648 21 733 64 q 447 -22 563 -22 m 449 138 q 536 162 499 138 q 594 230 574 186 q 615 331 615 274 q 595 428 615 386 q 539 494 575 471 q 454 518 503 518 q 365 495 404 518 q 303 431 325 472 q 279 331 281 389 q 299 230 278 274 q 358 162 319 186 q 449 138 397 138 z "},"в":{"ha":860,"x_min":92,"x_max":782,"o":"m 92 0 l 92 744 l 431 744 q 669 692 588 744 q 751 538 751 640 q 705 430 751 471 q 574 385 658 389 l 574 385 q 728 335 675 381 q 782 211 782 290 q 703 55 782 110 q 471 0 624 0 l 92 0 m 301 150 l 458 150 q 540 171 511 150 q 569 229 569 192 q 540 292 569 269 q 458 315 511 315 l 301 315 l 301 150 m 301 440 l 426 440 q 509 461 479 440 q 539 518 539 482 q 509 574 539 554 q 426 594 479 594 l 301 594 l 301 440 z "},"г":{"ha":692,"x_min":92,"x_max":654,"o":"m 92 0 l 92 744 l 654 744 l 654 589 l 186 589 l 300 688 l 300 0 l 92 0 z "},"ѓ":{"ha":692,"x_min":92,"x_max":654,"o":"m 92 0 l 92 744 l 654 744 l 654 589 l 186 589 l 300 688 l 300 0 l 92 0 m 279 821 l 361 1026 l 563 1026 l 438 821 l 279 821 z "},"ґ":{"ha":649,"x_min":92,"x_max":619,"o":"m 92 0 l 92 744 l 619 744 l 619 589 l 300 589 l 300 0 l 92 0 m 410 603 l 410 961 l 619 961 l 619 603 l 410 603 z "},"ғ":{"ha":757,"x_min":64,"x_max":706,"o":"m 64 275 l 64 431 l 547 431 l 547 275 l 64 275 m 142 0 l 142 744 l 706 744 l 706 589 l 238 589 l 350 688 l 350 0 l 142 0 z "},"д":{"ha":1029,"x_min":50,"x_max":979,"o":"m 50 50 l 50 154 l 103 154 q 172 187 147 154 q 206 288 196 219 l 272 744 l 860 744 l 860 0 l 651 0 l 651 589 l 439 589 l 399 281 q 324 107 383 164 q 164 50 264 50 l 50 50 m 50 -208 l 50 94 l 258 94 l 258 -208 l 50 -208 m 61 0 l 61 154 l 899 154 l 899 0 l 61 0 m 771 -208 l 771 154 l 979 154 l 979 -208 l 771 -208 z "},"е":{"ha":840,"x_min":51,"x_max":790,"o":"m 426 -17 q 228 31 313 -17 q 98 167 144 79 q 51 372 51 254 q 98 577 51 490 q 228 713 144 664 q 425 761 311 761 q 618 713 536 761 q 745 574 700 664 q 790 358 790 483 l 790 317 l 267 317 q 315 185 271 228 q 431 142 358 142 q 519 164 483 142 q 569 232 554 186 l 779 219 q 656 46 750 108 q 426 -17 561 -17 m 267 444 l 576 444 q 531 567 572 526 q 425 607 490 607 q 317 565 360 607 q 267 444 275 522 z "},"ѐ":{"ha":840,"x_min":51,"x_max":790,"o":"m 426 -17 q 228 31 313 -17 q 98 167 144 79 q 51 372 51 254 q 98 577 51 490 q 228 713 144 664 q 425 761 311 761 q 618 713 536 761 q 745 574 700 664 q 790 358 790 483 l 790 317 l 267 317 q 315 185 271 228 q 431 142 358 142 q 519 164 483 142 q 569 232 554 186 l 779 219 q 656 46 750 108 q 426 -17 561 -17 m 267 444 l 576 444 q 531 567 572 526 q 425 607 490 607 q 317 565 360 607 q 267 444 275 522 m 364 828 l 239 1032 l 440 1032 l 522 828 l 364 828 z "},"ё":{"ha":840,"x_min":51,"x_max":790,"o":"m 426 -17 q 228 31 313 -17 q 98 167 144 79 q 51 372 51 254 q 98 577 51 490 q 228 713 144 664 q 425 761 311 761 q 618 713 536 761 q 745 574 700 664 q 790 358 790 483 l 790 317 l 267 317 q 315 185 271 228 q 431 142 358 142 q 519 164 483 142 q 569 232 554 186 l 779 219 q 656 46 750 108 q 426 -17 561 -17 m 267 444 l 576 444 q 531 567 572 526 q 425 607 490 607 q 317 565 360 607 q 267 444 275 522 m 181 829 l 181 997 l 379 997 l 379 829 l 181 829 m 479 829 l 479 997 l 678 997 l 678 829 l 479 829 z "},"ж":{"ha":1376,"x_min":64,"x_max":1313,"o":"m 64 0 l 365 372 l 610 372 l 321 0 l 64 0 m 585 0 l 585 744 l 793 744 l 793 0 l 585 0 m 1057 0 l 767 372 l 1010 372 l 1313 0 l 1057 0 m 767 372 l 1043 744 l 1299 744 l 1010 372 l 767 372 m 365 372 l 78 744 l 335 744 l 610 372 l 365 372 z "},"з":{"ha":782,"x_min":28,"x_max":708,"o":"m 374 -17 q 194 13 271 -17 q 74 99 117 43 q 28 232 32 154 l 240 238 q 278 165 244 193 q 371 138 313 138 q 462 162 428 138 q 496 226 496 186 q 461 303 496 275 q 368 332 426 332 l 306 331 l 306 456 l 368 454 q 444 480 417 454 q 471 551 471 506 q 443 614 471 592 q 368 636 415 636 q 297 614 324 636 q 265 549 269 592 l 54 556 q 150 707 64 653 q 372 761 236 761 q 601 705 517 761 q 686 551 686 649 q 628 446 686 489 q 467 390 571 403 l 468 408 q 645 340 582 394 q 708 203 708 285 q 618 42 708 101 q 374 -17 528 -17 z "},"и":{"ha":828,"x_min":92,"x_max":736,"o":"m 92 0 l 92 744 l 300 744 l 300 304 l 542 744 l 736 744 l 736 0 l 528 0 l 528 428 l 292 0 l 92 0 z "},"й":{"ha":828,"x_min":92,"x_max":736,"o":"m 92 0 l 92 744 l 300 744 l 300 304 l 542 744 l 736 744 l 736 0 l 528 0 l 528 428 l 292 0 l 92 0 m 411 822 q 256 876 314 822 q 193 1026 197 929 l 314 1026 q 344 958 318 979 q 411 936 369 936 q 478 958 453 936 q 507 1026 503 979 l 628 1026 q 565 876 624 929 q 411 822 507 822 z "},"ѝ":{"ha":828,"x_min":92,"x_max":736,"o":"m 92 0 l 92 744 l 300 744 l 300 304 l 542 744 l 736 744 l 736 0 l 528 0 l 528 428 l 292 0 l 92 0 m 346 831 l 221 1035 l 422 1035 l 504 831 l 346 831 z "},"к":{"ha":904,"x_min":92,"x_max":842,"o":"m 593 0 l 290 372 l 529 372 l 842 0 l 593 0 m 92 0 l 92 744 l 301 744 l 301 0 l 92 0 m 290 372 l 579 744 l 825 744 l 529 372 l 290 372 z "},"ќ":{"ha":904,"x_min":92,"x_max":842,"o":"m 593 0 l 290 372 l 529 372 l 842 0 l 593 0 m 92 0 l 92 744 l 301 744 l 301 0 l 92 0 m 290 372 l 579 744 l 825 744 l 529 372 l 290 372 m 344 821 l 426 1026 l 628 1026 l 503 821 l 344 821 z "},"л":{"ha":946,"x_min":64,"x_max":854,"o":"m 64 0 l 64 164 l 107 164 q 163 190 143 164 q 188 264 182 215 l 240 744 l 854 744 l 854 0 l 646 0 l 646 589 l 429 589 l 389 207 q 331 53 379 106 q 196 0 282 0 l 64 0 z "},"м":{"ha":1042,"x_min":92,"x_max":950,"o":"m 92 0 l 92 744 l 338 744 l 522 189 l 704 744 l 950 744 l 950 0 l 742 0 l 742 408 l 594 0 l 447 0 l 300 408 l 300 0 l 92 0 z "},"н":{"ha":835,"x_min":92,"x_max":744,"o":"m 92 0 l 92 746 l 300 746 l 300 0 l 92 0 m 536 0 l 536 744 l 744 744 l 744 0 l 536 0 m 140 293 l 140 449 l 676 449 l 676 293 l 140 293 z "},"о":{"ha":858,"x_min":51,"x_max":807,"o":"m 429 -17 q 231 31 315 -17 q 99 167 146 79 q 51 372 51 254 q 99 577 51 490 q 231 713 146 664 q 429 761 315 761 q 628 713 543 761 q 760 577 713 664 q 807 372 807 490 q 760 167 807 254 q 628 31 713 79 q 429 -17 543 -17 m 429 143 q 550 203 507 143 q 593 372 593 264 q 550 541 593 481 q 429 601 507 601 q 308 541 351 601 q 265 372 265 481 q 308 203 265 264 q 429 143 351 143 z "},"п":{"ha":854,"x_min":92,"x_max":763,"o":"m 92 0 l 92 744 l 763 744 l 763 0 l 554 0 l 554 589 l 300 589 l 300 0 l 92 0 z "},"р":{"ha":881,"x_min":92,"x_max":829,"o":"m 92 -208 l 92 744 l 292 744 l 296 588 l 279 594 q 369 718 307 675 q 515 761 432 761 q 689 710 619 761 q 794 570 758 658 q 829 372 829 482 q 794 175 829 264 q 688 35 758 86 q 514 -17 618 -17 q 413 3 460 -17 q 331 60 365 24 q 282 146 297 96 l 300 157 l 300 -208 l 92 -208 m 457 143 q 573 204 531 143 q 615 372 615 265 q 573 540 615 479 q 457 601 531 601 q 373 576 408 601 q 319 499 338 550 q 300 372 300 447 q 319 246 300 297 q 373 169 338 194 q 457 143 408 143 z "},"с":{"ha":831,"x_min":51,"x_max":793,"o":"m 429 -17 q 231 31 315 -17 q 99 167 146 79 q 51 372 51 254 q 99 577 51 490 q 231 713 146 664 q 429 761 315 761 q 606 726 528 761 q 733 626 685 692 q 793 469 782 561 l 578 460 q 528 565 568 529 q 429 600 489 600 q 308 540 351 600 q 265 372 265 481 q 308 203 265 264 q 429 143 351 143 q 529 180 489 143 q 578 292 569 217 l 793 283 q 735 124 783 192 q 609 20 688 57 q 429 -17 531 -17 z "},"т":{"ha":814,"x_min":54,"x_max":763,"o":"m 304 0 l 304 589 l 54 589 l 54 744 l 763 744 l 763 589 l 514 589 l 514 0 l 304 0 z "},"у":{"ha":814,"x_min":29,"x_max":785,"o":"m 153 -208 l 153 -53 l 251 -53 q 305 -42 288 -53 q 332 -6 322 -32 l 347 38 l 290 38 l 29 744 l 242 744 l 413 232 l 572 744 l 785 744 l 499 -71 q 426 -176 474 -144 q 294 -208 379 -208 l 153 -208 z "},"ў":{"ha":814,"x_min":29,"x_max":785,"o":"m 153 -208 l 153 -53 l 251 -53 q 305 -42 288 -53 q 332 -6 322 -32 l 347 38 l 290 38 l 29 744 l 242 744 l 413 232 l 572 744 l 785 744 l 499 -71 q 426 -176 474 -144 q 294 -208 379 -208 l 153 -208 m 404 822 q 249 876 307 822 q 186 1026 190 929 l 307 1026 q 337 958 311 979 q 404 936 363 936 q 471 958 446 936 q 500 1026 496 979 l 621 1026 q 558 876 617 929 q 404 822 500 822 z "},"ф":{"ha":1004,"x_min":51,"x_max":953,"o":"m 501 29 q 262 72 363 29 q 106 193 161 115 q 51 376 51 271 q 106 560 51 483 q 262 681 161 638 q 501 724 363 724 q 742 681 640 724 q 898 560 843 638 q 953 376 953 483 q 898 193 953 271 q 742 72 843 115 q 501 29 640 29 m 501 193 q 679 242 615 193 q 743 376 743 292 q 679 510 743 461 q 501 558 615 558 q 326 510 390 558 q 261 376 261 461 q 326 242 261 292 q 501 193 390 193 m 410 -211 l 410 986 l 596 986 l 596 -211 l 410 -211 z "},"х":{"ha":903,"x_min":64,"x_max":839,"o":"m 64 0 l 329 378 l 71 744 l 292 744 l 451 506 l 606 744 l 832 744 l 575 376 l 839 0 l 618 0 l 454 253 l 289 0 l 64 0 z "},"ц":{"ha":986,"x_min":92,"x_max":910,"o":"m 700 -211 l 700 154 l 910 154 l 910 -211 l 700 -211 m 563 0 l 563 154 l 726 154 l 726 0 l 563 0 m 92 744 l 300 744 l 300 156 l 554 156 l 554 744 l 763 744 l 763 0 l 92 0 l 92 744 z "},"ч":{"ha":900,"x_min":92,"x_max":810,"o":"m 600 0 l 600 413 l 638 465 q 601 340 635 394 q 510 253 567 285 q 379 222 453 222 q 169 305 247 222 q 92 528 92 388 l 92 744 l 300 744 l 300 578 q 336 437 300 488 q 435 386 372 386 q 524 408 488 386 q 581 474 561 431 q 600 578 600 518 l 600 744 l 810 744 l 810 0 l 600 0 z "},"ш":{"ha":1194,"x_min":92,"x_max":1103,"o":"m 92 0 l 92 744 l 300 744 l 300 0 l 92 0 m 92 0 l 92 154 l 1103 154 l 1103 0 l 92 0 m 499 0 l 499 744 l 697 744 l 697 0 l 499 0 m 894 0 l 894 744 l 1103 744 l 1103 0 l 894 0 z "},"щ":{"ha":1315,"x_min":92,"x_max":1253,"o":"m 1043 -211 l 1043 154 l 1253 154 l 1253 -211 l 1043 -211 m 906 0 l 906 154 l 1069 154 l 1069 0 l 906 0 m 92 0 l 92 744 l 300 744 l 300 0 l 92 0 m 92 0 l 92 154 l 1103 154 l 1103 0 l 92 0 m 499 0 l 499 744 l 697 744 l 697 0 l 499 0 m 894 0 l 894 744 l 1103 744 l 1103 0 l 894 0 z "},"џ":{"ha":854,"x_min":92,"x_max":763,"o":"m 324 -211 l 324 42 l 532 42 l 532 -211 l 324 -211 m 92 744 l 300 744 l 300 156 l 554 156 l 554 744 l 763 744 l 763 0 l 92 0 l 92 744 z "},"ь":{"ha":847,"x_min":92,"x_max":796,"o":"m 92 0 l 92 744 l 300 744 l 300 476 l 450 476 q 708 415 621 476 q 796 235 796 354 q 708 60 796 119 q 450 0 621 0 l 92 0 m 300 144 l 432 144 q 545 166 508 144 q 582 235 582 188 q 545 305 582 282 q 432 328 508 328 l 300 328 l 300 144 z "},"ы":{"ha":1210,"x_min":92,"x_max":1118,"o":"m 910 0 l 910 744 l 1118 744 l 1118 0 l 910 0 m 92 0 l 92 744 l 300 744 l 300 476 l 450 476 q 708 415 621 476 q 796 235 796 354 q 708 60 796 119 q 450 0 621 0 l 92 0 m 300 144 l 432 144 q 545 166 508 144 q 582 235 582 188 q 545 305 582 282 q 432 328 508 328 l 300 328 l 300 144 z "},"ъ":{"ha":935,"x_min":64,"x_max":883,"o":"m 64 589 l 64 744 l 314 744 l 314 589 l 64 589 m 179 0 l 179 744 l 388 744 l 388 476 l 539 476 q 796 415 708 476 q 883 235 883 354 q 796 60 883 119 q 539 0 708 0 l 179 0 m 388 144 l 519 144 q 633 166 596 144 q 669 235 669 188 q 633 305 669 282 q 519 328 596 328 l 388 328 l 388 144 z "},"љ":{"ha":1403,"x_min":64,"x_max":1351,"o":"m 647 0 l 647 744 l 856 744 l 856 476 l 1006 476 q 1264 415 1176 476 q 1351 235 1351 354 q 1264 60 1351 119 q 1006 0 1176 0 l 647 0 m 856 144 l 988 144 q 1101 166 1064 144 q 1138 235 1138 188 q 1101 305 1138 282 q 988 328 1064 328 l 856 328 l 856 144 m 64 0 l 64 164 l 107 164 q 163 190 143 164 q 188 264 182 215 l 240 744 l 854 744 l 854 0 l 646 0 l 646 589 l 429 589 l 389 207 q 331 53 379 106 q 196 0 282 0 l 64 0 z "},"њ":{"ha":1292,"x_min":92,"x_max":1240,"o":"m 92 0 l 92 746 l 300 746 l 300 0 l 92 0 m 119 322 l 119 478 l 697 478 l 697 322 l 119 322 m 535 0 l 535 744 l 743 744 l 743 476 l 894 476 q 1153 415 1065 476 q 1240 235 1240 354 q 1153 60 1240 119 q 894 0 1065 0 l 535 0 m 743 144 l 876 144 q 989 166 951 144 q 1026 235 1026 188 q 989 305 1026 282 q 876 328 951 328 l 743 328 l 743 144 z "},"ѕ":{"ha":793,"x_min":51,"x_max":743,"o":"m 410 -17 q 217 16 294 -17 q 98 105 139 49 q 51 235 57 161 l 263 242 q 307 160 272 189 q 410 131 342 131 q 497 149 465 131 q 528 204 528 167 q 517 244 528 228 q 473 272 506 260 q 376 293 440 283 q 192 342 258 314 q 97 414 125 369 q 69 522 69 458 q 152 695 69 629 q 400 761 235 761 q 577 728 506 761 q 688 637 649 694 q 738 506 728 579 l 528 497 q 506 559 524 533 q 463 599 489 585 q 399 614 436 614 q 313 591 343 614 q 283 531 283 568 q 297 485 283 503 q 340 457 310 468 q 422 439 371 446 q 612 392 542 422 q 713 318 682 363 q 743 208 743 274 q 701 86 743 136 q 585 10 660 36 q 410 -17 511 -17 z "},"є":{"ha":846,"x_min":51,"x_max":796,"o":"m 429 -17 q 231 31 315 -17 q 99 167 146 79 q 51 372 51 254 q 99 577 51 490 q 231 713 146 664 q 429 761 315 761 q 669 684 572 761 q 796 469 765 607 l 576 469 q 523 567 560 533 q 429 600 486 600 q 308 540 351 600 q 265 372 265 481 q 308 203 265 264 q 429 143 351 143 q 521 176 483 143 q 575 269 558 208 l 794 269 q 667 58 764 133 q 429 -17 571 -17 m 454 306 l 135 306 l 135 439 l 454 439 l 454 306 z "},"э":{"ha":846,"x_min":51,"x_max":796,"o":"m 417 -17 q 180 58 276 -17 q 53 269 83 133 l 271 269 q 325 176 288 208 q 417 143 363 143 q 538 203 496 143 q 581 372 581 264 q 538 540 581 481 q 417 600 496 600 q 324 567 361 600 q 269 469 286 533 l 51 469 q 178 684 82 607 q 417 761 275 761 q 617 713 532 761 q 749 577 701 664 q 796 372 796 490 q 749 167 796 254 q 617 31 701 79 q 417 -17 532 -17 m 392 306 l 392 439 l 711 439 l 711 306 l 392 306 z "},"і":{"ha":390,"x_min":88,"x_max":303,"o":"m 92 0 l 92 744 l 300 744 l 300 0 l 92 0 m 88 836 l 88 1003 l 303 1003 l 303 836 l 88 836 z "},"ї":{"ha":390,"x_min":-53,"x_max":444,"o":"m 92 0 l 92 744 l 300 744 l 300 0 l 92 0 m -53 832 l -53 1000 l 146 1000 l 146 832 l -53 832 m 246 832 l 246 1000 l 444 1000 l 444 832 l 246 832 z "},"ј":{"ha":460,"x_min":-4,"x_max":372,"o":"m -4 -208 l -4 -53 l 78 -53 q 140 -36 119 -53 q 160 31 160 -19 l 160 744 l 369 744 l 369 25 q 313 -154 369 -100 q 121 -208 257 -208 l -4 -208 m 157 836 l 157 1003 l 372 1003 l 372 836 l 157 836 z "},"ћ":{"ha":849,"x_min":-3,"x_max":757,"o":"m 92 0 l 92 986 l 300 986 l 300 571 l 272 571 q 316 678 283 636 q 398 740 349 719 q 506 761 447 761 q 644 725 589 761 q 728 625 700 689 q 757 479 757 561 l 757 0 l 549 0 l 549 429 q 523 554 549 513 q 436 596 497 596 q 336 553 372 596 q 300 424 300 510 l 300 0 l 92 0 m -3 800 l -3 921 l 481 921 l 481 800 l -3 800 z "},"ю":{"ha":1196,"x_min":92,"x_max":1144,"o":"m 92 0 l 92 744 l 300 744 l 300 0 l 92 0 m 208 294 l 208 450 l 485 450 l 485 294 l 208 294 m 767 -17 q 568 31 653 -17 q 436 167 483 79 q 389 372 389 254 q 436 577 389 490 q 568 713 483 664 q 767 761 653 761 q 966 713 881 761 q 1098 577 1051 664 q 1144 372 1144 490 q 1098 167 1144 254 q 966 31 1051 79 q 767 -17 881 -17 m 767 143 q 888 203 846 143 q 931 372 931 264 q 888 541 931 481 q 767 601 846 601 q 647 541 689 601 q 604 372 604 481 q 647 203 604 264 q 767 143 689 143 z "},"я":{"ha":868,"x_min":92,"x_max":776,"o":"m 92 0 l 267 300 q 158 387 197 333 q 119 508 119 440 q 203 684 119 624 q 450 744 288 744 l 776 744 l 776 0 l 569 0 l 569 269 l 456 269 l 306 0 l 92 0 m 450 414 l 569 414 l 569 599 l 450 599 q 361 575 393 599 q 329 506 329 551 q 361 438 329 463 q 450 414 393 414 z "},"ђ":{"ha":906,"x_min":64,"x_max":814,"o":"m 149 0 l 149 997 l 357 997 l 357 571 l 326 554 q 373 676 339 631 q 458 742 407 722 q 567 761 508 761 q 699 726 644 761 q 784 626 754 690 q 814 479 814 563 l 814 57 l 606 57 l 606 404 q 581 543 606 496 q 492 590 556 590 q 392 542 426 590 q 357 404 357 494 l 357 0 l 149 0 m 479 -208 l 479 -53 l 526 -53 q 569 -41 551 -53 q 596 -9 586 -29 q 606 39 606 11 l 606 321 l 814 321 l 814 39 q 754 -145 814 -82 q 568 -208 694 -208 l 479 -208 m 64 808 l 64 925 l 510 925 l 510 808 l 64 808 z "},"ѣ":{"ha":964,"x_min":64,"x_max":913,"o":"m 207 0 l 207 997 l 415 997 l 415 504 l 565 504 q 822 438 732 504 q 913 249 913 372 q 822 65 913 129 q 565 0 732 0 l 207 0 m 415 144 l 549 144 q 658 171 619 144 q 697 249 697 197 q 658 328 697 300 q 549 356 619 356 l 415 356 l 415 144 m 64 739 l 64 863 l 558 863 l 558 739 l 64 739 z "},"ѫ":{"ha":1049,"x_min":64,"x_max":985,"o":"m 64 0 l 169 275 q 244 364 190 332 q 365 396 297 396 l 683 396 q 806 364 753 396 q 879 275 858 332 l 985 0 l 779 0 l 706 231 q 676 279 696 265 q 617 293 656 293 l 432 293 q 373 279 393 293 q 343 231 353 265 l 269 0 l 64 0 m 428 0 l 428 396 l 622 396 l 622 0 l 428 0 m 415 313 l 132 594 l 328 594 l 613 313 l 415 313 m 438 313 l 722 594 l 918 594 l 635 313 l 438 313 m 132 594 l 132 744 l 918 744 l 918 594 l 132 594 z "},"ѳ":{"ha":858,"x_min":51,"x_max":807,"o":"m 188 253 l 169 425 q 226 461 204 450 q 263 474 247 472 q 335 477 294 482 q 418 451 375 472 q 483 425 457 435 q 528 411 510 415 q 561 408 546 407 q 592 411 576 408 q 637 431 615 415 q 678 474 658 447 l 694 307 q 654 275 672 286 q 619 261 636 264 q 574 258 599 257 q 516 268 550 258 q 426 300 482 278 q 351 324 385 319 q 290 325 318 329 q 239 301 267 321 q 188 253 211 282 m 429 -17 q 231 31 315 -17 q 99 167 146 79 q 51 372 51 254 q 99 577 51 490 q 231 713 146 664 q 429 761 315 761 q 628 713 543 761 q 760 577 713 664 q 807 372 807 490 q 760 167 807 254 q 628 31 713 79 q 429 -17 543 -17 m 429 143 q 550 203 507 143 q 593 372 593 264 q 550 541 593 481 q 429 601 507 601 q 308 541 351 601 q 265 372 265 481 q 308 203 265 264 q 429 143 351 143 z "},"ѵ":{"ha":890,"x_min":29,"x_max":861,"o":"m 301 0 l 29 744 l 243 744 l 422 208 l 531 536 q 635 692 564 640 q 801 744 707 744 l 861 744 l 861 589 l 847 589 q 773 565 804 589 q 724 492 742 542 l 543 0 l 301 0 z "},"җ":{"ha":1401,"x_min":64,"x_max":1338,"o":"m 1129 -211 l 1129 104 l 1338 104 l 1338 -211 l 1129 -211 m 64 0 l 365 372 l 610 372 l 321 0 l 64 0 m 585 0 l 585 744 l 793 744 l 793 0 l 585 0 m 1057 0 l 767 372 l 1010 372 l 1313 0 l 1057 0 m 767 372 l 1043 744 l 1299 744 l 1010 372 l 767 372 m 365 372 l 78 744 l 335 744 l 610 372 l 365 372 z "},"қ":{"ha":944,"x_min":92,"x_max":882,"o":"m 674 -211 l 674 104 l 882 104 l 882 -211 l 674 -211 m 593 0 l 290 372 l 529 372 l 842 0 l 593 0 m 92 0 l 92 744 l 301 744 l 301 0 l 92 0 m 290 372 l 579 744 l 825 744 l 529 372 l 290 372 z "},"ң":{"ha":961,"x_min":92,"x_max":871,"o":"m 663 -211 l 663 104 l 871 104 l 871 -211 l 663 -211 m 92 0 l 92 746 l 300 746 l 300 0 l 92 0 m 536 0 l 536 744 l 744 744 l 744 0 l 536 0 m 140 293 l 140 449 l 676 449 l 676 293 l 140 293 z "},"ү":{"ha":846,"x_min":29,"x_max":817,"o":"m 318 0 l 29 744 l 243 744 l 422 217 l 601 744 l 817 744 l 526 0 l 318 0 m 318 -208 l 318 113 l 526 113 l 526 -208 l 318 -208 z "},"ұ":{"ha":846,"x_min":29,"x_max":817,"o":"m 157 -78 l 157 78 l 689 78 l 689 -78 l 157 -78 m 318 0 l 29 744 l 243 744 l 422 217 l 601 744 l 817 744 l 526 0 l 318 0 m 318 -208 l 318 113 l 526 113 l 526 -208 l 318 -208 z "},"ҳ":{"ha":963,"x_min":64,"x_max":899,"o":"m 690 -211 l 690 104 l 899 104 l 899 -211 l 690 -211 m 64 0 l 329 378 l 71 744 l 292 744 l 451 506 l 606 744 l 832 744 l 575 376 l 839 0 l 618 0 l 454 253 l 289 0 l 64 0 z "},"ҷ":{"ha":1003,"x_min":92,"x_max":932,"o":"m 724 -208 l 724 104 l 932 104 l 932 -208 l 724 -208 m 600 0 l 600 413 l 638 465 q 601 340 635 394 q 510 253 567 285 q 379 222 453 222 q 169 305 247 222 q 92 528 92 388 l 92 744 l 300 744 l 300 578 q 336 437 300 488 q 435 386 372 386 q 524 408 488 386 q 581 474 561 431 q 600 578 600 518 l 600 744 l 810 744 l 810 0 l 600 0 z "},"һ":{"ha":849,"x_min":92,"x_max":757,"o":"m 92 0 l 92 986 l 300 986 l 300 571 l 272 571 q 316 678 283 636 q 398 740 349 719 q 506 761 447 761 q 644 725 589 761 q 728 625 700 689 q 757 479 757 561 l 757 0 l 549 0 l 549 429 q 523 554 549 513 q 436 596 497 596 q 336 553 372 596 q 300 424 300 510 l 300 0 l 92 0 z "},"ӏ":{"ha":414,"x_min":103,"x_max":311,"o":"m 103 0 l 103 986 l 311 986 l 311 0 l 103 0 z "},"ә":{"ha":840,"x_min":51,"x_max":790,"o":"m 414 761 q 613 713 528 761 q 744 577 697 664 q 790 372 790 490 q 744 168 790 256 q 613 32 697 81 q 417 -17 529 -17 q 224 32 306 -17 q 97 171 142 81 q 51 386 51 261 l 51 428 l 574 428 q 527 560 571 517 q 411 603 483 603 q 322 581 358 603 q 271 513 286 558 l 61 525 q 185 699 92 636 q 414 761 279 761 m 574 300 l 264 300 q 310 178 269 219 q 417 138 351 138 q 524 181 482 138 q 574 300 567 224 z "},"ӣ":{"ha":828,"x_min":92,"x_max":736,"o":"m 92 0 l 92 744 l 300 744 l 300 304 l 542 744 l 736 744 l 736 0 l 528 0 l 528 428 l 292 0 l 92 0 m 207 843 l 207 996 l 622 996 l 622 843 l 207 843 z "},"ө":{"ha":861,"x_min":49,"x_max":804,"o":"m 161 294 l 161 450 l 699 450 l 699 294 l 161 294 m 426 -17 q 228 31 313 -17 q 96 167 143 79 q 49 372 49 254 q 96 577 49 490 q 228 713 143 664 q 426 761 313 761 q 626 713 540 761 q 758 577 711 664 q 804 372 804 490 q 758 167 804 254 q 626 31 711 79 q 426 -17 540 -17 m 426 143 q 548 203 506 143 q 590 372 590 264 q 548 541 590 481 q 426 601 506 601 q 306 541 349 601 q 264 372 264 481 q 306 203 264 264 q 426 143 349 143 z "},"ӯ":{"ha":814,"x_min":29,"x_max":785,"o":"m 153 -208 l 153 -53 l 251 -53 q 305 -42 288 -53 q 332 -6 322 -32 l 347 38 l 290 38 l 29 744 l 242 744 l 413 232 l 572 744 l 785 744 l 499 -71 q 426 -176 474 -144 q 294 -208 379 -208 l 153 -208 m 199 843 l 199 996 l 614 996 l 614 843 l 199 843 z "},"Λ":{"ha":1001,"x_min":26,"x_max":975,"o":"m 26 0 l 382 986 l 619 986 l 975 0 l 763 0 l 500 764 l 239 0 l 26 0 z "},"Ω":{"ha":1067,"x_min":58,"x_max":1008,"o":"m 60 0 l 60 178 l 264 174 q 157 258 204 204 q 84 383 110 311 q 58 546 58 456 q 92 729 58 644 q 187 876 125 814 q 336 974 249 939 q 533 1008 424 1008 q 785 947 679 1008 q 950 782 892 886 q 1008 546 1008 678 q 982 383 1008 456 q 910 258 956 311 q 803 174 864 204 l 1007 178 l 1007 0 l 590 0 l 590 178 q 694 226 649 182 q 766 343 739 269 q 793 506 793 417 q 762 678 793 606 q 673 791 731 751 q 533 831 615 831 q 394 791 453 831 q 305 678 336 751 q 274 506 274 606 q 301 343 274 417 q 374 226 328 269 q 476 178 419 182 l 476 0 l 60 0 z "},"λ":{"ha":888,"x_min":26,"x_max":861,"o":"m 754 -1 q 676 10 710 -1 q 617 47 643 22 q 570 110 592 72 q 528 197 549 147 l 308 740 q 271 810 289 788 q 210 832 253 832 l 139 832 l 139 986 l 271 986 q 372 964 331 986 q 444 899 414 942 q 501 789 475 856 l 721 244 q 744 194 733 214 q 771 164 756 174 q 813 154 786 154 l 861 154 l 861 0 l 754 -1 m 26 0 l 338 713 l 519 650 l 240 0 l 26 0 z "},"π":{"ha":929,"x_min":57,"x_max":893,"o":"m 832 0 q 642 63 703 0 q 582 246 582 126 l 582 688 l 756 688 l 756 246 q 778 180 756 204 q 840 156 800 156 l 890 156 l 890 0 l 832 0 m 199 0 l 199 685 l 372 685 l 372 0 l 199 0 m 57 589 l 57 744 l 893 744 l 893 589 l 57 589 z "},"ℇ":{"ha":832,"x_min":50,"x_max":782,"o":"m 411 -22 q 222 16 304 -22 q 95 122 140 54 q 50 276 50 189 q 82 404 50 349 q 175 494 114 460 q 322 539 236 529 l 324 515 q 195 556 249 525 q 113 636 142 588 q 83 749 83 685 q 124 883 83 825 q 239 975 165 942 q 411 1008 313 1008 q 539 990 476 1008 q 656 940 601 972 q 754 861 711 907 l 646 728 q 541 820 603 785 q 422 856 479 856 q 336 840 372 856 q 280 797 300 825 q 260 732 260 769 q 284 653 260 685 q 345 606 308 621 q 422 592 382 592 l 485 593 l 485 444 l 422 446 q 319 428 363 447 q 251 375 275 410 q 226 290 226 340 q 251 207 226 243 q 319 151 275 171 q 422 131 363 131 q 511 148 465 131 q 601 197 557 165 q 681 272 644 229 l 782 136 q 688 53 746 89 q 558 -2 629 18 q 411 -22 486 -22 z "},"⓿":{"ha":1128,"x_min":51,"x_max":1076,"o":"m 567 211 q 743 285 679 211 q 807 492 807 360 q 743 697 807 624 q 567 771 679 771 q 389 697 453 771 q 325 492 325 624 q 390 285 325 360 q 567 211 454 211 m 567 318 q 517 333 538 318 l 661 575 q 671 492 671 542 q 645 361 671 404 q 567 318 619 318 m 472 408 q 465 447 467 425 q 463 492 463 468 q 488 622 463 581 q 567 664 514 664 q 617 650 596 664 l 472 408 m 564 -17 q 365 23 458 -17 q 201 133 272 63 q 91 297 131 204 q 51 497 51 390 q 91 695 51 603 q 201 858 131 788 q 365 969 272 929 q 564 1008 458 1008 q 763 969 671 1008 q 926 858 856 929 q 1037 695 997 788 q 1076 497 1076 603 q 1037 297 1076 390 q 926 133 997 204 q 763 23 856 63 q 564 -17 671 -17 z "},"❶":{"ha":1128,"x_min":51,"x_max":1076,"o":"m 529 222 l 665 222 l 665 760 l 553 760 q 520 668 553 703 q 424 633 488 633 l 385 633 l 385 531 l 529 532 l 529 222 m 564 -17 q 365 23 458 -17 q 201 133 272 63 q 91 297 131 204 q 51 497 51 390 q 91 695 51 603 q 201 858 131 788 q 365 969 272 929 q 564 1008 458 1008 q 763 969 671 1008 q 926 858 856 929 q 1037 695 997 788 q 1076 497 1076 603 q 1037 297 1076 390 q 926 133 997 204 q 763 23 856 63 q 564 -17 671 -17 z "},"❷":{"ha":1128,"x_min":51,"x_max":1076,"o":"m 374 222 l 772 222 l 772 338 l 515 338 q 529 369 515 353 q 581 404 543 386 l 643 435 q 738 504 706 465 q 771 607 771 543 q 724 725 771 679 q 575 771 676 771 q 431 724 485 771 q 368 593 378 678 l 493 586 q 519 647 500 629 q 576 665 539 665 q 628 649 610 665 q 646 604 646 632 q 640 570 646 583 q 621 547 633 557 q 585 526 608 538 l 519 493 q 428 429 460 464 q 385 346 396 394 q 374 222 374 297 m 564 -17 q 365 23 458 -17 q 201 133 272 63 q 91 297 131 204 q 51 497 51 390 q 91 695 51 603 q 201 858 131 788 q 365 969 272 929 q 564 1008 458 1008 q 763 969 671 1008 q 926 858 856 929 q 1037 695 997 788 q 1076 497 1076 603 q 1037 297 1076 390 q 926 133 997 204 q 763 23 856 63 q 564 -17 671 -17 z "},"❸":{"ha":1128,"x_min":51,"x_max":1076,"o":"m 571 211 q 737 258 682 211 q 792 375 792 304 q 763 459 792 426 q 668 504 733 492 q 744 547 719 517 q 769 626 769 578 q 722 731 769 690 q 564 771 674 771 q 413 730 463 771 q 354 613 363 689 l 489 606 q 512 649 492 633 q 564 665 532 665 q 619 649 603 665 q 636 601 636 632 q 617 560 636 575 q 565 544 597 544 l 522 544 l 522 450 l 565 450 q 633 432 611 450 q 656 383 656 414 q 633 334 656 351 q 571 317 610 317 q 508 333 528 317 q 485 375 488 349 l 349 369 q 374 283 353 318 q 442 229 394 247 q 571 211 489 211 m 564 -17 q 365 23 458 -17 q 201 133 272 63 q 91 297 131 204 q 51 497 51 390 q 91 695 51 603 q 201 858 131 788 q 365 969 272 929 q 564 1008 458 1008 q 763 969 671 1008 q 926 858 856 929 q 1037 695 997 788 q 1076 497 1076 603 q 1037 297 1076 390 q 926 133 997 204 q 763 23 856 63 q 564 -17 671 -17 z "},"❹":{"ha":1128,"x_min":51,"x_max":1076,"o":"m 569 222 l 706 222 l 706 328 l 774 328 l 774 435 l 706 435 l 706 760 l 557 760 l 315 426 l 315 328 l 569 328 l 569 222 m 444 435 l 569 596 l 569 435 l 444 435 m 564 -17 q 365 23 458 -17 q 201 133 272 63 q 91 297 131 204 q 51 497 51 390 q 91 695 51 603 q 201 858 131 788 q 365 969 272 929 q 564 1008 458 1008 q 763 969 671 1008 q 926 858 856 929 q 1037 695 997 788 q 1076 497 1076 603 q 1037 297 1076 390 q 926 133 997 204 q 763 23 856 63 q 564 -17 671 -17 z "},"❺":{"ha":1128,"x_min":51,"x_max":1076,"o":"m 568 211 q 730 263 674 211 q 786 403 786 315 q 742 531 786 483 q 606 579 697 579 q 547 571 571 579 q 506 547 522 563 l 519 653 l 753 653 l 753 760 l 404 760 l 364 443 l 492 443 q 522 475 503 463 q 574 488 540 488 q 630 465 610 488 q 650 403 650 442 q 631 340 650 364 q 567 317 611 317 q 515 330 535 317 q 489 369 494 343 l 354 363 q 412 251 361 292 q 568 211 463 211 m 564 -17 q 365 23 458 -17 q 201 133 272 63 q 91 297 131 204 q 51 497 51 390 q 91 695 51 603 q 201 858 131 788 q 365 969 272 929 q 564 1008 458 1008 q 763 969 671 1008 q 926 858 856 929 q 1037 695 997 788 q 1076 497 1076 603 q 1037 297 1076 390 q 926 133 997 204 q 763 23 856 63 q 564 -17 671 -17 z "},"❻":{"ha":1128,"x_min":51,"x_max":1076,"o":"m 571 211 q 731 262 671 211 q 792 401 792 313 q 739 541 792 494 q 594 588 686 588 q 523 574 551 588 q 479 540 494 560 q 513 636 485 604 q 589 668 542 668 q 643 656 622 668 q 668 619 664 643 l 792 635 q 728 735 778 700 q 593 771 679 771 q 454 733 510 771 q 372 627 399 694 q 346 469 346 560 q 406 274 346 338 q 571 211 465 211 m 574 317 q 508 340 533 317 q 485 406 483 364 q 497 451 486 432 q 528 481 508 471 q 574 492 549 492 q 641 469 617 492 q 665 404 665 447 q 640 340 665 364 q 574 317 615 317 m 564 -17 q 365 23 458 -17 q 201 133 272 63 q 91 297 131 204 q 51 497 51 390 q 91 695 51 603 q 201 858 131 788 q 365 969 272 929 q 564 1008 458 1008 q 763 969 671 1008 q 926 858 856 929 q 1037 695 997 788 q 1076 497 1076 603 q 1037 297 1076 390 q 926 133 997 204 q 763 23 856 63 q 564 -17 671 -17 z "},"❼":{"ha":1128,"x_min":51,"x_max":1076,"o":"m 472 222 l 608 222 q 625 387 608 313 q 676 528 642 461 q 765 658 711 594 l 765 761 l 382 761 l 382 646 l 625 646 q 544 517 578 586 q 491 373 510 447 q 472 222 472 299 m 564 -17 q 365 23 458 -17 q 201 133 272 63 q 91 297 131 204 q 51 497 51 390 q 91 695 51 603 q 201 858 131 788 q 365 969 272 929 q 564 1008 458 1008 q 763 969 671 1008 q 926 858 856 929 q 1037 695 997 788 q 1076 497 1076 603 q 1037 297 1076 390 q 926 133 997 204 q 763 23 856 63 q 564 -17 671 -17 z "},"❽":{"ha":1128,"x_min":51,"x_max":1076,"o":"m 571 211 q 744 253 692 211 q 797 365 797 296 q 765 456 797 419 q 672 513 733 493 q 747 555 721 528 q 774 633 774 582 q 726 735 774 699 q 571 771 679 771 q 415 735 463 771 q 368 633 368 699 q 394 555 368 582 q 469 513 421 528 q 376 458 408 494 q 344 365 344 421 q 397 253 344 296 q 571 211 450 211 m 571 317 q 503 333 526 317 q 481 386 481 350 q 503 440 481 418 q 571 463 526 463 q 638 440 615 463 q 661 386 661 418 q 638 333 661 350 q 571 317 615 317 m 571 551 q 519 565 539 551 q 500 610 500 579 q 518 651 500 638 q 571 665 536 665 q 624 651 606 665 q 642 610 642 638 q 623 565 642 579 q 571 551 604 551 m 564 -17 q 365 23 458 -17 q 201 133 272 63 q 91 297 131 204 q 51 497 51 390 q 91 695 51 603 q 201 858 131 788 q 365 969 272 929 q 564 1008 458 1008 q 763 969 671 1008 q 926 858 856 929 q 1037 695 997 788 q 1076 497 1076 603 q 1037 297 1076 390 q 926 133 997 204 q 763 23 856 63 q 564 -17 671 -17 z "},"❾":{"ha":1128,"x_min":51,"x_max":1076,"o":"m 574 771 q 412 720 472 771 q 351 581 351 669 q 405 442 351 489 q 549 394 458 394 q 622 409 593 394 q 664 442 650 424 q 631 346 658 378 q 554 314 603 314 q 501 327 521 314 q 475 363 481 340 l 353 347 q 415 247 365 282 q 550 211 465 211 q 690 249 635 211 q 771 355 744 288 q 797 513 797 422 q 738 708 797 644 q 574 771 678 771 m 569 665 q 635 642 610 665 q 658 576 660 618 q 647 531 658 550 q 616 501 636 511 q 569 490 596 490 q 502 513 526 490 q 478 578 478 535 q 503 642 478 618 q 569 665 528 665 m 564 -17 q 365 23 458 -17 q 201 133 272 63 q 91 297 131 204 q 51 497 51 390 q 91 695 51 603 q 201 858 131 788 q 365 969 272 929 q 564 1008 458 1008 q 763 969 671 1008 q 926 858 856 929 q 1037 695 997 788 q 1076 497 1076 603 q 1037 297 1076 390 q 926 133 997 204 q 763 23 856 63 q 564 -17 671 -17 z "},"⓪":{"ha":1168,"x_min":51,"x_max":1117,"o":"m 583 -36 q 377 5 474 -36 q 207 119 281 46 q 92 290 133 193 q 51 497 51 386 q 92 703 51 607 q 207 873 133 800 q 377 987 281 946 q 583 1028 474 1028 q 791 987 694 1028 q 961 873 888 946 q 1076 703 1035 800 q 1117 497 1117 607 q 1076 290 1117 386 q 961 119 1035 193 q 791 5 888 46 q 583 -36 694 -36 m 583 81 q 745 113 669 81 q 878 203 821 146 q 967 335 935 260 q 999 497 999 410 q 967 658 999 583 q 878 790 935 733 q 745 878 821 846 q 583 911 669 911 q 422 878 497 911 q 290 790 347 846 q 201 658 233 733 q 169 497 169 583 q 201 335 169 410 q 290 203 233 260 q 422 113 347 146 q 583 81 497 81 m 586 211 q 410 285 475 211 q 346 492 346 360 q 410 697 346 624 q 586 771 474 771 q 764 697 700 771 q 828 492 828 624 q 764 285 828 360 q 586 211 700 211 m 586 318 q 665 361 640 318 q 690 492 690 404 q 665 622 690 579 q 586 664 640 664 q 508 622 533 664 q 482 492 482 581 q 510 364 482 410 q 586 318 538 318 m 519 304 l 472 375 l 654 679 l 701 610 l 519 304 z "},"①":{"ha":1168,"x_min":51,"x_max":1117,"o":"m 583 -36 q 377 5 474 -36 q 207 119 281 46 q 92 290 133 193 q 51 497 51 386 q 92 703 51 607 q 207 873 133 800 q 377 987 281 946 q 583 1028 474 1028 q 791 987 694 1028 q 961 873 888 946 q 1076 703 1035 800 q 1117 497 1117 607 q 1076 290 1117 386 q 961 119 1035 193 q 791 5 888 46 q 583 -36 694 -36 m 583 81 q 745 113 669 81 q 878 203 821 146 q 967 335 935 260 q 999 497 999 410 q 967 658 999 583 q 878 790 935 733 q 745 878 821 846 q 583 911 669 911 q 422 878 497 911 q 290 790 347 846 q 201 658 233 733 q 169 497 169 583 q 201 335 169 410 q 290 203 233 260 q 422 113 347 146 q 583 81 497 81 m 544 222 l 544 532 l 401 531 l 401 633 l 440 633 q 537 668 504 633 q 569 760 569 703 l 682 760 l 682 222 l 544 222 z "},"②":{"ha":1168,"x_min":51,"x_max":1117,"o":"m 583 -36 q 377 5 474 -36 q 207 119 281 46 q 92 290 133 193 q 51 497 51 386 q 92 703 51 607 q 207 873 133 800 q 377 987 281 946 q 583 1028 474 1028 q 791 987 694 1028 q 961 873 888 946 q 1076 703 1035 800 q 1117 497 1117 607 q 1076 290 1117 386 q 961 119 1035 193 q 791 5 888 46 q 583 -36 694 -36 m 583 81 q 745 113 669 81 q 878 203 821 146 q 967 335 935 260 q 999 497 999 410 q 967 658 999 583 q 878 790 935 733 q 745 878 821 846 q 583 911 669 911 q 422 878 497 911 q 290 790 347 846 q 201 658 233 733 q 169 497 169 583 q 201 335 169 410 q 290 203 233 260 q 422 113 347 146 q 583 81 497 81 m 388 222 q 399 346 388 297 q 442 429 410 394 q 533 493 474 464 l 599 526 q 635 547 622 538 q 653 570 647 557 q 660 604 660 583 q 642 649 660 632 q 590 665 624 665 q 533 647 553 665 q 507 586 514 629 l 382 593 q 445 724 392 678 q 589 771 499 771 q 738 725 690 771 q 785 607 785 679 q 752 504 785 543 q 657 435 719 465 l 594 404 q 543 369 557 386 q 529 338 529 353 l 786 338 l 786 222 l 388 222 z "},"③":{"ha":1168,"x_min":51,"x_max":1117,"o":"m 583 -36 q 377 5 474 -36 q 207 119 281 46 q 92 290 133 193 q 51 497 51 386 q 92 703 51 607 q 207 873 133 800 q 377 987 281 946 q 583 1028 474 1028 q 791 987 694 1028 q 961 873 888 946 q 1076 703 1035 800 q 1117 497 1117 607 q 1076 290 1117 386 q 961 119 1035 193 q 791 5 888 46 q 583 -36 694 -36 m 583 81 q 745 113 669 81 q 878 203 821 146 q 967 335 935 260 q 999 497 999 410 q 967 658 999 583 q 878 790 935 733 q 745 878 821 846 q 583 911 669 911 q 422 878 497 911 q 290 790 347 846 q 201 658 233 733 q 169 497 169 583 q 201 335 169 410 q 290 203 233 260 q 422 113 347 146 q 583 81 497 81 m 588 211 q 458 229 504 211 q 390 283 411 247 q 365 369 369 318 l 501 375 q 524 333 504 349 q 588 317 544 317 q 649 334 626 317 q 672 383 672 351 q 650 432 672 414 q 582 450 628 450 l 539 450 l 539 544 l 582 544 q 633 560 614 544 q 651 601 651 575 q 635 649 651 632 q 581 665 619 665 q 528 649 547 665 q 506 606 508 633 l 371 613 q 429 730 379 689 q 581 771 479 771 q 738 731 690 771 q 786 626 786 690 q 760 547 786 578 q 685 504 735 517 q 779 459 750 492 q 808 375 808 426 q 753 258 808 304 q 588 211 699 211 z "},"④":{"ha":1168,"x_min":51,"x_max":1117,"o":"m 583 -36 q 377 5 474 -36 q 207 119 281 46 q 92 290 133 193 q 51 497 51 386 q 92 703 51 607 q 207 873 133 800 q 377 987 281 946 q 583 1028 474 1028 q 791 987 694 1028 q 961 873 888 946 q 1076 703 1035 800 q 1117 497 1117 607 q 1076 290 1117 386 q 961 119 1035 193 q 791 5 888 46 q 583 -36 694 -36 m 583 81 q 745 113 669 81 q 878 203 821 146 q 967 335 935 260 q 999 497 999 410 q 967 658 999 583 q 878 790 935 733 q 745 878 821 846 q 583 911 669 911 q 422 878 497 911 q 290 790 347 846 q 201 658 233 733 q 169 497 169 583 q 201 335 169 410 q 290 203 233 260 q 422 113 347 146 q 583 81 497 81 m 583 222 l 583 328 l 331 328 l 331 426 l 571 760 l 721 760 l 721 435 l 789 435 l 789 328 l 721 328 l 721 222 l 583 222 m 460 435 l 583 435 l 583 596 l 460 435 z "},"⑤":{"ha":1168,"x_min":51,"x_max":1117,"o":"m 583 -36 q 377 5 474 -36 q 207 119 281 46 q 92 290 133 193 q 51 497 51 386 q 92 703 51 607 q 207 873 133 800 q 377 987 281 946 q 583 1028 474 1028 q 791 987 694 1028 q 961 873 888 946 q 1076 703 1035 800 q 1117 497 1117 607 q 1076 290 1117 386 q 961 119 1035 193 q 791 5 888 46 q 583 -36 694 -36 m 583 81 q 745 113 669 81 q 878 203 821 146 q 967 335 935 260 q 999 497 999 410 q 967 658 999 583 q 878 790 935 733 q 745 878 821 846 q 583 911 669 911 q 422 878 497 911 q 290 790 347 846 q 201 658 233 733 q 169 497 169 583 q 201 335 169 410 q 290 203 233 260 q 422 113 347 146 q 583 81 497 81 m 585 211 q 428 251 479 211 q 371 363 378 292 l 507 369 q 531 330 511 343 q 585 317 551 317 q 647 340 628 317 q 667 403 667 364 q 647 465 667 442 q 590 488 626 488 q 540 475 558 488 q 508 443 521 463 l 381 443 l 422 760 l 769 760 l 769 653 l 536 653 l 524 547 q 563 571 539 563 q 624 579 588 579 q 758 531 714 579 q 803 403 803 483 q 747 263 803 315 q 585 211 690 211 z "},"⑥":{"ha":1168,"x_min":51,"x_max":1117,"o":"m 583 -36 q 377 5 474 -36 q 207 119 281 46 q 92 290 133 193 q 51 497 51 386 q 92 703 51 607 q 207 873 133 800 q 377 987 281 946 q 583 1028 474 1028 q 791 987 694 1028 q 961 873 888 946 q 1076 703 1035 800 q 1117 497 1117 607 q 1076 290 1117 386 q 961 119 1035 193 q 791 5 888 46 q 583 -36 694 -36 m 583 81 q 745 113 669 81 q 878 203 821 146 q 967 335 935 260 q 999 497 999 410 q 967 658 999 583 q 878 790 935 733 q 745 878 821 846 q 583 911 669 911 q 422 878 497 911 q 290 790 347 846 q 201 658 233 733 q 169 497 169 583 q 201 335 169 410 q 290 203 233 260 q 422 113 347 146 q 583 81 497 81 m 586 211 q 422 274 482 211 q 363 469 363 338 q 389 627 363 560 q 470 733 415 694 q 610 771 525 771 q 744 735 694 771 q 807 635 794 700 l 685 619 q 660 656 681 643 q 606 668 639 668 q 529 636 557 668 q 496 540 501 604 q 540 574 511 560 q 611 588 568 588 q 755 541 701 588 q 808 401 808 494 q 748 262 808 313 q 586 211 688 211 m 590 317 q 657 340 632 317 q 682 404 682 364 q 658 469 682 447 q 590 492 633 492 q 544 481 565 492 q 513 451 524 471 q 501 406 503 432 q 525 340 500 364 q 590 317 550 317 z "},"⑦":{"ha":1168,"x_min":51,"x_max":1117,"o":"m 583 -36 q 377 5 474 -36 q 207 119 281 46 q 92 290 133 193 q 51 497 51 386 q 92 703 51 607 q 207 873 133 800 q 377 987 281 946 q 583 1028 474 1028 q 791 987 694 1028 q 961 873 888 946 q 1076 703 1035 800 q 1117 497 1117 607 q 1076 290 1117 386 q 961 119 1035 193 q 791 5 888 46 q 583 -36 694 -36 m 583 81 q 745 113 669 81 q 878 203 821 146 q 967 335 935 260 q 999 497 999 410 q 967 658 999 583 q 878 790 935 733 q 745 878 821 846 q 583 911 669 911 q 422 878 497 911 q 290 790 347 846 q 201 658 233 733 q 169 497 169 583 q 201 335 169 410 q 290 203 233 260 q 422 113 347 146 q 583 81 497 81 m 489 222 q 508 373 489 299 q 560 517 526 447 q 642 646 594 586 l 399 646 l 399 761 l 782 761 l 782 658 q 693 528 728 594 q 642 387 658 461 q 625 222 625 313 l 489 222 z "},"⑧":{"ha":1168,"x_min":51,"x_max":1117,"o":"m 583 -36 q 377 5 474 -36 q 207 119 281 46 q 92 290 133 193 q 51 497 51 386 q 92 703 51 607 q 207 873 133 800 q 377 987 281 946 q 583 1028 474 1028 q 791 987 694 1028 q 961 873 888 946 q 1076 703 1035 800 q 1117 497 1117 607 q 1076 290 1117 386 q 961 119 1035 193 q 791 5 888 46 q 583 -36 694 -36 m 583 81 q 745 113 669 81 q 878 203 821 146 q 967 335 935 260 q 999 497 999 410 q 967 658 999 583 q 878 790 935 733 q 745 878 821 846 q 583 911 669 911 q 422 878 497 911 q 290 790 347 846 q 201 658 233 733 q 169 497 169 583 q 201 335 169 410 q 290 203 233 260 q 422 113 347 146 q 583 81 497 81 m 588 211 q 414 253 467 211 q 361 365 361 296 q 393 458 361 421 q 486 513 425 494 q 411 555 438 528 q 385 633 385 582 q 432 735 385 699 q 588 771 479 771 q 743 735 696 771 q 790 633 790 699 q 764 555 790 582 q 689 513 738 528 q 782 456 750 493 q 814 365 814 419 q 761 253 814 296 q 588 211 708 211 m 588 317 q 655 333 632 317 q 678 386 678 350 q 655 440 678 418 q 588 463 632 463 q 520 440 543 463 q 497 386 497 418 q 520 333 497 350 q 588 317 543 317 m 588 551 q 640 565 621 551 q 658 610 658 579 q 640 651 658 638 q 588 665 622 665 q 535 651 553 665 q 517 610 517 638 q 536 565 517 579 q 588 551 556 551 z "},"⑨":{"ha":1168,"x_min":51,"x_max":1117,"o":"m 583 -36 q 377 5 474 -36 q 207 119 281 46 q 92 290 133 193 q 51 497 51 386 q 92 703 51 607 q 207 873 133 800 q 377 987 281 946 q 583 1028 474 1028 q 791 987 694 1028 q 961 873 888 946 q 1076 703 1035 800 q 1117 497 1117 607 q 1076 290 1117 386 q 961 119 1035 193 q 791 5 888 46 q 583 -36 694 -36 m 583 81 q 745 113 669 81 q 878 203 821 146 q 967 335 935 260 q 999 497 999 410 q 967 658 999 583 q 878 790 935 733 q 745 878 821 846 q 583 911 669 911 q 422 878 497 911 q 290 790 347 846 q 201 658 233 733 q 169 497 169 583 q 201 335 169 410 q 290 203 233 260 q 422 113 347 146 q 583 81 497 81 m 593 771 q 758 708 699 771 q 818 513 818 644 q 792 355 818 422 q 710 249 765 288 q 571 211 656 211 q 435 247 485 211 q 372 347 386 282 l 496 363 q 521 327 500 340 q 575 314 542 314 q 651 346 622 314 q 685 442 679 378 q 642 409 671 424 q 569 394 614 394 q 425 442 478 394 q 372 581 372 489 q 433 720 372 669 q 593 771 493 771 m 590 665 q 524 642 549 665 q 499 578 499 618 q 523 513 499 535 q 590 490 547 490 q 636 501 617 490 q 667 531 656 511 q 679 576 679 550 q 656 642 681 618 q 590 665 631 665 z "},"⁄":{"ha":228,"x_min":-278,"x_max":506,"o":"m -278 0 l 378 986 l 506 986 l -150 0 l -278 0 z "},"½":{"ha":1175,"x_min":28,"x_max":1118,"o":"m 171 449 l 171 758 l 28 757 l 28 860 l 67 860 q 163 894 131 860 q 196 986 196 929 l 308 986 l 308 449 l 171 449 m 153 0 l 808 986 l 936 986 l 281 0 l 153 0 m 719 0 q 731 124 719 75 q 774 207 742 172 q 865 271 806 242 l 931 304 q 967 325 954 315 q 985 348 979 335 q 992 382 992 361 q 974 426 992 410 q 922 443 956 443 q 865 425 885 443 q 839 364 846 407 l 714 371 q 777 502 724 456 q 921 549 831 549 q 1069 503 1022 549 q 1117 385 1117 457 q 1084 282 1117 321 q 989 213 1051 243 l 926 182 q 875 147 889 164 q 861 115 861 131 l 1118 115 l 1118 0 l 719 0 z "},"⅓":{"ha":1171,"x_min":28,"x_max":1129,"o":"m 171 449 l 171 758 l 28 757 l 28 860 l 67 860 q 163 894 131 860 q 196 986 196 929 l 308 986 l 308 449 l 171 449 m 153 0 l 808 986 l 936 986 l 281 0 l 153 0 m 908 -11 q 778 7 825 -11 q 711 60 732 25 q 686 147 690 96 l 822 153 q 845 110 825 126 q 908 94 865 94 q 970 112 947 94 q 993 161 993 129 q 971 210 993 192 q 903 228 949 228 l 860 228 l 860 322 l 903 322 q 953 338 935 322 q 972 379 972 353 q 956 426 972 410 q 901 443 940 443 q 849 427 868 443 q 826 383 829 411 l 692 390 q 750 508 700 467 q 901 549 800 549 q 1059 508 1011 549 q 1107 404 1107 468 q 1081 325 1107 356 q 1006 282 1056 294 q 1100 237 1071 269 q 1129 153 1129 204 q 1074 35 1129 82 q 908 -11 1019 -11 z "},"⅔":{"ha":1257,"x_min":56,"x_max":1215,"o":"m 61 449 q 72 572 61 524 q 115 656 83 621 q 207 719 147 690 l 272 753 q 308 774 296 764 q 327 797 321 783 q 333 831 333 810 q 315 875 333 858 q 264 892 297 892 q 207 874 226 892 q 181 813 188 856 l 56 819 q 119 951 65 904 q 263 997 172 997 q 411 951 364 997 q 458 833 458 906 q 426 731 458 769 q 331 661 393 692 l 268 631 q 217 596 231 613 q 203 564 203 579 l 460 564 l 460 449 l 61 449 m 239 0 l 894 986 l 1022 986 l 367 0 l 239 0 m 994 -11 q 865 7 911 -11 q 797 60 818 25 q 772 147 776 96 l 908 153 q 931 110 911 126 q 994 94 951 94 q 1056 112 1033 94 q 1079 161 1079 129 q 1057 210 1079 192 q 989 228 1035 228 l 946 228 l 946 322 l 989 322 q 1040 338 1021 322 q 1058 379 1058 353 q 1042 426 1058 410 q 988 443 1026 443 q 935 427 954 443 q 913 383 915 411 l 778 390 q 836 508 786 467 q 988 549 886 549 q 1145 508 1097 549 q 1193 404 1193 468 q 1167 325 1193 356 q 1092 282 1142 294 q 1186 237 1157 269 q 1215 153 1215 204 q 1160 35 1215 82 q 994 -11 1106 -11 z "},"¼":{"ha":1097,"x_min":28,"x_max":1069,"o":"m 171 449 l 171 758 l 28 757 l 28 860 l 67 860 q 163 894 131 860 q 196 986 196 929 l 308 986 l 308 449 l 171 449 m 153 0 l 808 986 l 936 986 l 281 0 l 153 0 m 864 0 l 864 106 l 611 106 l 611 204 l 851 538 l 1001 538 l 1001 213 l 1069 213 l 1069 106 l 1001 106 l 1001 0 l 864 0 m 740 213 l 864 213 l 864 374 l 740 213 z "},"¾":{"ha":1179,"x_min":28,"x_max":1151,"o":"m 250 438 q 120 456 167 438 q 53 509 74 474 q 28 596 32 544 l 164 601 q 187 559 167 575 q 250 543 207 543 q 312 560 289 543 q 335 610 335 578 q 313 658 335 640 q 244 676 290 676 l 201 676 l 201 771 l 244 771 q 295 786 276 771 q 314 828 314 801 q 298 875 314 858 q 243 892 282 892 q 190 876 210 892 q 168 832 171 860 l 33 839 q 92 956 42 915 q 243 997 142 997 q 401 957 353 997 q 449 853 449 917 q 423 774 449 804 q 347 731 397 743 q 442 685 413 718 q 471 601 471 653 q 416 484 471 531 q 250 438 361 438 m 235 0 l 890 986 l 1018 986 l 363 0 l 235 0 m 946 0 l 946 106 l 693 106 l 693 204 l 933 538 l 1083 538 l 1083 213 l 1151 213 l 1151 106 l 1083 106 l 1083 0 l 946 0 m 822 213 l 946 213 l 946 374 l 822 213 z "},"⅕":{"ha":1188,"x_min":28,"x_max":1146,"o":"m 171 449 l 171 758 l 28 757 l 28 860 l 67 860 q 163 894 131 860 q 196 986 196 929 l 308 986 l 308 449 l 171 449 m 153 0 l 808 986 l 936 986 l 281 0 l 153 0 m 928 -11 q 772 29 822 -11 q 714 140 721 69 l 850 147 q 874 108 854 121 q 928 94 894 94 q 990 118 971 94 q 1010 181 1010 142 q 990 242 1010 219 q 933 265 969 265 q 883 253 901 265 q 851 221 864 240 l 724 221 l 765 538 l 1113 538 l 1113 431 l 879 431 l 867 325 q 906 349 882 340 q 967 357 931 357 q 1101 309 1057 357 q 1146 181 1146 261 q 1090 41 1146 93 q 928 -11 1033 -11 z "},"⅛":{"ha":1194,"x_min":28,"x_max":1153,"o":"m 171 449 l 171 758 l 28 757 l 28 860 l 67 860 q 163 894 131 860 q 196 986 196 929 l 308 986 l 308 449 l 171 449 m 153 0 l 808 986 l 936 986 l 281 0 l 153 0 m 926 -11 q 753 31 806 -11 q 700 143 700 74 q 732 235 700 199 q 825 290 764 272 q 750 333 776 306 q 724 411 724 360 q 771 513 724 476 q 926 549 818 549 q 1082 513 1035 549 q 1129 411 1129 476 q 1103 333 1129 360 q 1028 290 1076 306 q 1121 234 1089 271 q 1153 143 1153 197 q 1100 31 1153 74 q 926 -11 1047 -11 m 926 94 q 994 111 971 94 q 1017 164 1017 128 q 994 218 1017 196 q 926 240 971 240 q 859 218 882 240 q 836 164 836 196 q 859 111 836 128 q 926 94 882 94 m 926 329 q 978 343 960 329 q 997 388 997 357 q 979 429 997 415 q 926 443 961 443 q 874 429 892 443 q 856 388 856 415 q 875 343 856 357 q 926 329 894 329 z "},"⅜":{"ha":1276,"x_min":28,"x_max":1235,"o":"m 250 438 q 120 456 167 438 q 53 509 74 474 q 28 596 32 544 l 164 601 q 187 559 167 575 q 250 543 207 543 q 312 560 289 543 q 335 610 335 578 q 313 658 335 640 q 244 676 290 676 l 201 676 l 201 771 l 244 771 q 295 786 276 771 q 314 828 314 801 q 298 875 314 858 q 243 892 282 892 q 190 876 210 892 q 168 832 171 860 l 33 839 q 92 956 42 915 q 243 997 142 997 q 401 957 353 997 q 449 853 449 917 q 423 774 449 804 q 347 731 397 743 q 442 685 413 718 q 471 601 471 653 q 416 484 471 531 q 250 438 361 438 m 235 0 l 890 986 l 1018 986 l 363 0 l 235 0 m 1008 -11 q 835 31 888 -11 q 782 143 782 74 q 814 235 782 199 q 907 290 846 272 q 832 333 858 306 q 806 411 806 360 q 853 513 806 476 q 1008 549 900 549 q 1164 513 1117 549 q 1211 411 1211 476 q 1185 333 1211 360 q 1110 290 1158 306 q 1203 234 1171 271 q 1235 143 1235 197 q 1182 31 1235 74 q 1008 -11 1129 -11 m 1008 94 q 1076 111 1053 94 q 1099 164 1099 128 q 1076 218 1099 196 q 1008 240 1053 240 q 941 218 964 240 q 918 164 918 196 q 941 111 918 128 q 1008 94 964 94 m 1008 329 q 1060 343 1042 329 q 1079 388 1079 357 q 1061 429 1079 415 q 1008 443 1043 443 q 956 429 974 443 q 938 388 938 415 q 957 343 938 357 q 1008 329 976 329 z "},"⅝":{"ha":1293,"x_min":56,"x_max":1251,"o":"m 269 438 q 113 478 164 438 q 56 589 63 518 l 192 596 q 216 556 196 569 q 269 543 236 543 q 332 567 313 543 q 351 629 351 590 q 331 691 351 668 q 275 714 311 714 q 224 701 243 714 q 193 669 206 689 l 65 669 l 107 986 l 454 986 l 454 879 l 221 879 l 208 774 q 248 797 224 789 q 308 806 272 806 q 443 758 399 806 q 488 629 488 710 q 431 490 488 542 q 269 438 375 438 m 251 0 l 907 986 l 1035 986 l 379 0 l 251 0 m 1025 -11 q 851 31 904 -11 q 799 143 799 74 q 831 235 799 199 q 924 290 863 272 q 849 333 875 306 q 822 411 822 360 q 869 513 822 476 q 1025 549 917 549 q 1181 513 1133 549 q 1228 411 1228 476 q 1201 333 1228 360 q 1126 290 1175 306 q 1219 234 1188 271 q 1251 143 1251 197 q 1199 31 1251 74 q 1025 -11 1146 -11 m 1025 94 q 1092 111 1069 94 q 1115 164 1115 128 q 1092 218 1115 196 q 1025 240 1069 240 q 958 218 981 240 q 935 164 935 196 q 958 111 935 128 q 1025 94 981 94 m 1025 329 q 1077 343 1058 329 q 1096 388 1096 357 q 1078 429 1096 415 q 1025 443 1060 443 q 972 429 990 443 q 954 388 954 415 q 974 343 954 357 q 1025 329 993 329 z "},"⅞":{"ha":1161,"x_min":28,"x_max":1119,"o":"m 118 447 q 137 598 118 524 q 190 742 156 672 q 271 871 224 811 l 28 871 l 28 986 l 411 986 l 411 883 q 322 753 357 819 q 271 612 288 686 q 254 447 254 538 l 118 447 m 119 0 l 775 986 l 903 986 l 247 0 l 119 0 m 893 -11 q 719 31 772 -11 q 667 143 667 74 q 699 235 667 199 q 792 290 731 272 q 717 333 743 306 q 690 411 690 360 q 738 513 690 476 q 893 549 785 549 q 1049 513 1001 549 q 1096 411 1096 476 q 1069 333 1096 360 q 994 290 1043 306 q 1088 234 1056 271 q 1119 143 1119 197 q 1067 31 1119 74 q 893 -11 1014 -11 m 893 94 q 960 111 938 94 q 983 164 983 128 q 960 218 983 196 q 893 240 938 240 q 826 218 849 240 q 803 164 803 196 q 826 111 803 128 q 893 94 849 94 m 893 329 q 945 343 926 329 q 964 388 964 357 q 946 429 964 415 q 893 443 928 443 q 840 429 858 443 q 822 388 822 415 q 842 343 822 357 q 893 329 861 329 z "},"₀":{"ha":593,"x_min":56,"x_max":538,"o":"m 296 -150 q 120 -76 185 -150 q 56 131 56 -1 q 119 336 56 263 q 296 410 183 410 q 474 336 410 410 q 538 131 538 263 q 474 -76 538 -1 q 296 -150 410 -150 m 296 -43 q 375 0 350 -43 q 400 131 400 43 q 375 260 400 218 q 296 303 350 303 q 217 261 243 303 q 192 131 192 219 q 219 3 192 49 q 296 -43 247 -43 m 229 -57 l 182 14 l 364 318 l 411 249 l 229 -57 z "},"₁":{"ha":392,"x_min":28,"x_max":308,"o":"m 171 -139 l 171 171 l 28 169 l 28 272 l 67 272 q 163 307 131 272 q 196 399 196 342 l 308 399 l 308 -139 l 171 -139 z "},"₂":{"ha":517,"x_min":56,"x_max":460,"o":"m 61 -139 q 72 -15 61 -64 q 115 68 83 33 q 207 132 147 103 l 272 165 q 308 186 296 176 q 327 209 321 196 q 333 243 333 222 q 315 288 333 271 q 264 304 297 304 q 207 286 226 304 q 181 225 188 268 l 56 232 q 119 363 65 317 q 263 410 172 410 q 411 364 364 410 q 458 246 458 318 q 426 143 458 182 q 331 74 393 104 l 268 43 q 217 8 231 25 q 203 -24 203 -8 l 460 -24 l 460 -139 l 61 -139 z "},"₃":{"ha":513,"x_min":28,"x_max":471,"o":"m 250 -150 q 120 -132 167 -150 q 53 -78 74 -114 q 28 8 32 -43 l 164 14 q 187 -28 167 -12 q 250 -44 207 -44 q 312 -27 289 -44 q 335 22 335 -10 q 313 71 335 53 q 244 89 290 89 l 201 89 l 201 183 l 244 183 q 295 199 276 183 q 314 240 314 214 q 298 288 314 271 q 243 304 282 304 q 190 288 210 304 q 168 244 171 272 l 33 251 q 92 369 42 328 q 243 410 142 410 q 401 369 353 410 q 449 265 449 329 q 423 186 449 217 q 347 143 397 156 q 442 98 413 131 q 471 14 471 65 q 416 -103 471 -57 q 250 -150 361 -150 z "},"₄":{"ha":500,"x_min":14,"x_max":472,"o":"m 267 -139 l 267 -33 l 14 -33 l 14 65 l 254 399 l 404 399 l 404 74 l 472 74 l 472 -33 l 404 -33 l 404 -139 l 267 -139 m 143 74 l 267 74 l 267 235 l 143 74 z "},"₅":{"ha":529,"x_min":56,"x_max":488,"o":"m 269 -150 q 113 -110 164 -150 q 56 1 63 -69 l 192 8 q 216 -31 196 -18 q 269 -44 236 -44 q 332 -21 313 -44 q 351 42 351 3 q 331 103 351 81 q 275 126 311 126 q 224 114 243 126 q 193 82 206 101 l 65 82 l 107 399 l 454 399 l 454 292 l 221 292 l 208 186 q 248 210 224 201 q 308 218 272 218 q 443 170 399 218 q 488 42 488 122 q 431 -98 488 -46 q 269 -150 375 -150 z "},"₆":{"ha":558,"x_min":56,"x_max":501,"o":"m 279 -150 q 115 -87 175 -150 q 56 108 56 -24 q 82 266 56 199 q 163 372 108 333 q 303 410 218 410 q 438 374 388 410 q 500 274 488 339 l 378 258 q 353 294 374 282 q 299 307 332 307 q 222 275 250 307 q 189 179 194 243 q 233 213 204 199 q 304 226 261 226 q 448 180 394 226 q 501 40 501 133 q 441 -99 501 -49 q 279 -150 381 -150 m 283 -44 q 350 -21 325 -44 q 375 43 375 3 q 351 108 375 86 q 283 131 326 131 q 238 120 258 131 q 206 90 217 110 q 194 44 196 71 q 218 -21 193 3 q 283 -44 243 -44 z "},"₇":{"ha":439,"x_min":28,"x_max":411,"o":"m 118 -139 q 137 12 118 -62 q 190 156 156 86 q 271 285 224 225 l 28 285 l 28 400 l 411 400 l 411 297 q 322 167 357 233 q 271 26 288 100 q 254 -139 254 -49 l 118 -139 z "},"₈":{"ha":536,"x_min":42,"x_max":494,"o":"m 268 -150 q 94 -108 147 -150 q 42 4 42 -65 q 74 97 42 60 q 167 151 106 133 q 92 194 118 167 q 65 272 65 221 q 113 374 65 338 q 268 410 160 410 q 424 374 376 410 q 471 272 471 338 q 444 194 471 221 q 369 151 418 167 q 463 95 431 132 q 494 4 494 58 q 442 -108 494 -65 q 268 -150 389 -150 m 268 -44 q 335 -28 313 -44 q 358 25 358 -11 q 335 79 358 57 q 268 101 313 101 q 201 79 224 101 q 178 25 178 57 q 201 -28 178 -11 q 268 -44 224 -44 m 268 190 q 320 204 301 190 q 339 249 339 218 q 321 290 339 276 q 268 304 303 304 q 215 290 233 304 q 197 249 197 276 q 217 204 197 218 q 268 190 236 190 z "},"₉":{"ha":558,"x_min":58,"x_max":503,"o":"m 279 410 q 444 347 385 410 q 503 151 503 283 q 476 -6 503 61 q 396 -112 450 -74 q 256 -150 342 -150 q 121 -115 171 -150 q 58 -14 71 -79 l 181 1 q 207 -34 186 -21 q 260 -47 228 -47 q 337 -15 308 -47 q 369 81 365 17 q 327 48 356 63 q 254 33 299 33 q 111 81 164 33 q 58 219 58 128 q 118 359 58 308 q 279 410 178 410 m 276 304 q 209 281 233 304 q 185 217 185 257 q 208 151 185 174 q 275 129 232 129 q 322 140 303 129 q 353 169 342 150 q 365 215 365 189 q 342 281 367 257 q 276 304 317 304 z "},"⁰":{"ha":593,"x_min":56,"x_max":538,"o":"m 296 438 q 120 512 185 438 q 56 718 56 586 q 119 924 56 850 q 296 997 183 997 q 474 924 410 997 q 538 718 538 850 q 474 512 538 586 q 296 438 410 438 m 296 544 q 375 588 350 544 q 400 718 400 631 q 375 848 400 806 q 296 890 350 890 q 217 849 243 890 q 192 718 192 807 q 219 590 192 636 q 296 544 247 544 m 229 531 l 182 601 l 364 906 l 411 836 l 229 531 z "},"¹":{"ha":392,"x_min":28,"x_max":308,"o":"m 171 449 l 171 758 l 28 757 l 28 860 l 67 860 q 163 894 131 860 q 196 986 196 929 l 308 986 l 308 449 l 171 449 z "},"²":{"ha":517,"x_min":56,"x_max":460,"o":"m 61 449 q 72 572 61 524 q 115 656 83 621 q 207 719 147 690 l 272 753 q 308 774 296 764 q 327 797 321 783 q 333 831 333 810 q 315 875 333 858 q 264 892 297 892 q 207 874 226 892 q 181 813 188 856 l 56 819 q 119 951 65 904 q 263 997 172 997 q 411 951 364 997 q 458 833 458 906 q 426 731 458 769 q 331 661 393 692 l 268 631 q 217 596 231 613 q 203 564 203 579 l 460 564 l 460 449 l 61 449 z "},"³":{"ha":513,"x_min":28,"x_max":471,"o":"m 250 438 q 120 456 167 438 q 53 509 74 474 q 28 596 32 544 l 164 601 q 187 559 167 575 q 250 543 207 543 q 312 560 289 543 q 335 610 335 578 q 313 658 335 640 q 244 676 290 676 l 201 676 l 201 771 l 244 771 q 295 786 276 771 q 314 828 314 801 q 298 875 314 858 q 243 892 282 892 q 190 876 210 892 q 168 832 171 860 l 33 839 q 92 956 42 915 q 243 997 142 997 q 401 957 353 997 q 449 853 449 917 q 423 774 449 804 q 347 731 397 743 q 442 685 413 718 q 471 601 471 653 q 416 484 471 531 q 250 438 361 438 z "},"⁴":{"ha":500,"x_min":14,"x_max":472,"o":"m 267 449 l 267 554 l 14 554 l 14 653 l 254 986 l 404 986 l 404 661 l 472 661 l 472 554 l 404 554 l 404 449 l 267 449 m 143 661 l 267 661 l 267 822 l 143 661 z "},"⁵":{"ha":529,"x_min":56,"x_max":488,"o":"m 269 438 q 113 478 164 438 q 56 589 63 518 l 192 596 q 216 556 196 569 q 269 543 236 543 q 332 567 313 543 q 351 629 351 590 q 331 691 351 668 q 275 714 311 714 q 224 701 243 714 q 193 669 206 689 l 65 669 l 107 986 l 454 986 l 454 879 l 221 879 l 208 774 q 248 797 224 789 q 308 806 272 806 q 443 758 399 806 q 488 629 488 710 q 431 490 488 542 q 269 438 375 438 z "},"⁶":{"ha":558,"x_min":56,"x_max":501,"o":"m 279 438 q 115 501 175 438 q 56 696 56 564 q 82 853 56 786 q 163 959 108 921 q 303 997 218 997 q 438 962 388 997 q 500 861 488 926 l 378 846 q 353 882 374 869 q 299 894 332 894 q 222 863 250 894 q 189 767 194 831 q 233 800 204 786 q 304 814 261 814 q 448 767 394 814 q 501 628 501 721 q 441 488 501 539 q 279 438 381 438 m 283 543 q 350 567 325 543 q 375 631 375 590 q 351 696 375 674 q 283 718 326 718 q 238 708 258 718 q 206 678 217 697 q 194 632 196 658 q 218 567 193 590 q 283 543 243 543 z "},"⁷":{"ha":439,"x_min":28,"x_max":411,"o":"m 118 447 q 137 598 118 524 q 190 742 156 672 q 271 871 224 811 l 28 871 l 28 986 l 411 986 l 411 883 q 322 753 357 819 q 271 612 288 686 q 254 447 254 538 l 118 447 z "},"⁸":{"ha":536,"x_min":42,"x_max":494,"o":"m 268 438 q 94 480 147 438 q 42 592 42 522 q 74 684 42 647 q 167 739 106 721 q 92 781 118 754 q 65 860 65 808 q 113 961 65 925 q 268 997 160 997 q 424 961 376 997 q 471 860 471 925 q 444 781 471 808 q 369 739 418 754 q 463 683 431 719 q 494 592 494 646 q 442 480 494 522 q 268 438 389 438 m 268 543 q 335 560 313 543 q 358 613 358 576 q 335 667 358 644 q 268 689 313 689 q 201 667 224 689 q 178 613 178 644 q 201 560 178 576 q 268 543 224 543 m 268 778 q 320 792 301 778 q 339 836 339 806 q 321 878 339 864 q 268 892 303 892 q 215 878 233 892 q 197 836 197 864 q 217 792 197 806 q 268 778 236 778 z "},"⁹":{"ha":558,"x_min":58,"x_max":503,"o":"m 279 997 q 444 934 385 997 q 503 739 503 871 q 476 581 503 649 q 396 476 450 514 q 256 438 342 438 q 121 473 171 438 q 58 574 71 508 l 181 589 q 207 553 186 567 q 260 540 228 540 q 337 572 308 540 q 369 668 365 604 q 327 635 356 650 q 254 621 299 621 q 111 668 164 621 q 58 807 58 715 q 118 947 58 896 q 279 997 178 997 m 276 892 q 209 868 233 892 q 185 804 185 844 q 208 739 185 761 q 275 717 232 717 q 322 727 303 717 q 353 757 342 738 q 365 803 365 776 q 342 868 367 844 q 276 892 317 892 z "}," ":{"ha":317,"x_min":0,"x_max":0,"o":""}," ":{"ha":317,"x_min":0,"x_max":0,"o":""},".":{"ha":328,"x_min":51,"x_max":278,"o":"m 51 0 l 51 213 l 278 213 l 278 0 l 51 0 z "},",":{"ha":328,"x_min":51,"x_max":278,"o":"m 67 -219 l 142 0 l 51 0 l 51 213 l 278 213 l 278 22 l 181 -219 l 67 -219 z "},":":{"ha":432,"x_min":103,"x_max":329,"o":"m 103 0 l 103 213 l 329 213 l 329 0 l 103 0 m 103 494 l 103 707 l 329 707 l 329 494 l 103 494 z "},";":{"ha":432,"x_min":103,"x_max":329,"o":"m 103 494 l 103 707 l 329 707 l 329 494 l 103 494 m 118 -219 l 193 0 l 103 0 l 103 213 l 329 213 l 329 22 l 232 -219 l 118 -219 z "},"…":{"ha":965,"x_min":51,"x_max":914,"o":"m 51 0 l 51 213 l 278 213 l 278 0 l 51 0 m 369 0 l 369 213 l 596 213 l 596 0 l 369 0 m 689 0 l 689 213 l 915 213 l 915 0 l 689 0 z "},"!":{"ha":357,"x_min":65,"x_max":292,"o":"m 111 315 q 96 429 104 363 q 82 565 88 496 q 76 689 76 633 l 76 986 l 286 986 l 286 689 q 281 565 286 633 q 267 429 275 496 q 253 315 260 363 l 111 315 m 65 0 l 65 213 l 292 213 l 292 0 l 65 0 z "},"¡":{"ha":357,"x_min":65,"x_max":292,"o":"m 76 -225 l 76 72 q 82 197 76 128 q 96 332 88 265 q 111 446 104 399 l 253 446 q 267 332 260 399 q 281 197 275 265 q 286 72 286 128 l 286 -225 l 76 -225 m 65 761 l 292 761 l 292 549 l 65 549 l 65 761 z "},"?":{"ha":821,"x_min":51,"x_max":771,"o":"m 301 311 q 333 483 301 424 q 438 578 364 542 q 515 624 489 604 q 549 667 540 644 q 557 719 557 689 q 523 803 557 771 q 426 836 489 836 q 316 798 356 836 q 268 685 276 760 l 51 696 q 106 857 60 786 q 232 968 151 928 q 426 1008 313 1008 q 615 971 539 1008 q 731 868 692 933 q 771 719 771 803 q 753 618 771 660 q 699 543 736 576 q 599 475 661 510 q 528 411 549 444 q 508 311 508 378 l 301 311 m 289 0 l 289 213 l 515 213 l 515 0 l 289 0 z "},"¿":{"ha":821,"x_min":51,"x_max":771,"o":"m 394 -225 q 206 -187 283 -225 q 90 -84 129 -150 q 51 64 51 -18 q 68 166 51 124 q 123 241 85 208 q 222 308 161 274 q 294 373 275 339 q 314 472 314 407 l 519 472 q 489 301 519 361 q 383 206 458 242 q 307 159 332 179 q 273 117 282 139 q 264 64 264 94 q 299 -20 264 13 q 394 -53 333 -53 q 506 -15 467 -53 q 554 99 546 24 l 771 88 q 717 -74 763 -3 q 590 -185 671 -144 q 394 -225 508 -225 m 532 783 l 532 571 l 306 571 l 306 783 l 532 783 z "},"·":{"ha":328,"x_min":51,"x_max":278,"o":"m 51 313 l 51 525 l 278 525 l 278 313 l 51 313 z "},"•":{"ha":503,"x_min":51,"x_max":451,"o":"m 251 225 q 147 250 192 225 q 76 319 101 275 q 51 419 51 364 q 76 520 51 476 q 147 590 101 564 q 251 615 192 615 q 355 590 310 615 q 426 520 400 564 q 451 419 451 476 q 426 319 451 364 q 355 250 400 275 q 251 225 310 225 z "},"*":{"ha":586,"x_min":51,"x_max":535,"o":"m 222 504 l 114 567 l 193 688 l 51 685 l 51 824 l 193 822 l 114 943 l 222 1004 l 293 879 l 365 1004 l 474 943 l 393 822 l 535 824 l 535 685 l 393 688 l 474 567 l 365 504 l 293 631 l 222 504 z "},"〃":{"ha":551,"x_min":51,"x_max":500,"o":"m 51 390 l 138 668 l 293 668 l 165 390 l 51 390 m 258 390 l 344 668 l 500 668 l 374 390 l 258 390 z "},"#":{"ha":818,"x_min":4,"x_max":810,"o":"m 403 0 l 554 986 l 744 986 l 593 0 l 403 0 m 4 226 l 28 393 l 758 393 l 735 226 l 4 226 m 69 0 l 222 986 l 413 986 l 260 0 l 69 0 m 57 585 l 81 750 l 810 750 l 786 585 l 57 585 z "},"/":{"ha":725,"x_min":44,"x_max":661,"o":"m 44 -153 l 456 1042 l 661 1042 l 250 -153 l 44 -153 z "},"\\":{"ha":696,"x_min":39,"x_max":657,"o":"m 657 -153 l 450 -153 l 39 1042 l 244 1042 l 657 -153 z "},"-":{"ha":579,"x_min":51,"x_max":528,"o":"m 51 319 l 51 490 l 528 490 l 528 319 l 51 319 z "},"–":{"ha":826,"x_min":51,"x_max":775,"o":"m 51 321 l 51 490 l 775 490 l 775 321 l 51 321 z "},"—":{"ha":1265,"x_min":51,"x_max":1214,"o":"m 51 321 l 51 490 l 1214 490 l 1214 321 l 51 321 z "},"_":{"ha":779,"x_min":51,"x_max":728,"o":"m 51 -168 l 51 0 l 728 0 l 728 -168 l 51 -168 z "},"〜":{"ha":1201,"x_min":51,"x_max":1150,"o":"m 828 254 q 740 264 778 254 q 664 292 703 274 q 572 339 625 311 q 476 383 522 367 q 378 399 429 399 q 263 368 318 399 q 146 279 208 338 l 51 414 q 168 508 115 472 q 273 558 221 543 q 382 574 325 574 q 494 555 435 574 q 618 500 553 536 q 702 459 668 475 q 765 436 736 443 q 828 429 793 429 q 899 440 867 429 q 969 475 932 450 q 1054 543 1006 500 l 1150 408 q 988 292 1069 331 q 828 254 906 254 z "},"(":{"ha":449,"x_min":58,"x_max":432,"o":"m 246 -153 q 58 444 58 143 q 246 1042 58 747 l 432 1042 q 264 444 264 743 q 306 147 264 296 q 432 -153 349 -3 l 246 -153 z "},")":{"ha":449,"x_min":17,"x_max":390,"o":"m 201 -153 l 17 -153 q 143 147 101 -3 q 185 444 185 296 q 17 1042 185 743 l 201 1042 q 390 444 390 747 q 201 -153 390 143 z "},"{":{"ha":567,"x_min":58,"x_max":550,"o":"m 463 -174 q 257 -100 331 -174 q 183 89 183 -26 l 183 204 q 170 296 183 263 q 129 344 157 329 q 58 358 101 358 l 58 522 q 129 536 101 522 q 170 584 157 550 q 183 676 183 618 l 183 792 q 257 980 183 907 q 463 1053 331 1053 l 550 1053 l 550 874 q 422 850 463 878 q 382 758 382 822 l 382 663 q 334 508 382 564 q 222 444 286 453 l 222 436 q 335 373 288 429 q 382 218 382 317 l 382 121 q 422 27 382 57 q 550 0 463 -3 l 550 -174 l 463 -174 z "},"}":{"ha":567,"x_min":17,"x_max":508,"o":"m 104 -174 l 17 -174 l 17 0 q 144 27 104 -3 q 183 121 183 57 l 183 218 q 231 373 183 317 q 344 436 279 429 l 344 444 q 232 508 281 453 q 183 663 183 564 l 183 758 q 144 850 183 822 q 17 874 104 878 l 17 1053 l 104 1053 q 310 980 238 1053 q 382 792 382 907 l 382 676 q 395 584 382 618 q 436 536 408 550 q 508 522 464 522 l 508 358 q 436 344 464 358 q 395 296 408 329 q 382 204 382 263 l 382 89 q 310 -100 382 -26 q 104 -174 238 -174 z "},"[":{"ha":542,"x_min":103,"x_max":525,"o":"m 525 -153 l 103 -153 l 103 1042 l 525 1042 l 525 878 l 303 878 l 303 11 l 525 11 l 525 -153 z "},"]":{"ha":542,"x_min":17,"x_max":439,"o":"m 17 -153 l 17 11 l 239 11 l 239 878 l 17 878 l 17 1042 l 439 1042 l 439 -153 l 17 -153 z "},"〈":{"ha":546,"x_min":51,"x_max":494,"o":"m 288 -158 l 51 492 l 288 1140 l 494 1140 l 258 492 l 494 -158 l 288 -158 z "},"〉":{"ha":546,"x_min":51,"x_max":494,"o":"m 258 -158 l 51 -158 l 288 492 l 51 1140 l 258 1140 l 494 492 l 258 -158 z "}}}
